<?xml version="1.0" encoding="UTF-8" standalone="no"?>
<!-- Created with Inkscape (http://www.inkscape.org/) -->

<svg
   xmlns:dc="http://purl.org/dc/elements/1.1/"
   xmlns:cc="http://creativecommons.org/ns#"
   xmlns:rdf="http://www.w3.org/1999/02/22-rdf-syntax-ns#"
   xmlns:svg="http://www.w3.org/2000/svg"
   xmlns="http://www.w3.org/2000/svg"
   xmlns:sodipodi="http://sodipodi.sourceforge.net/DTD/sodipodi-0.dtd"
   xmlns:inkscape="http://www.inkscape.org/namespaces/inkscape"
   width="210mm"
   height="297mm"
   viewBox="0 0 210 297"
   version="1.1"
   id="svg8"
   inkscape:version="0.92.3 (2405546, 2018-03-11)"
   sodipodi:docname="avatar.svg">
  <defs
     id="defs2" />
  <sodipodi:namedview
     id="base"
     pagecolor="#ffffff"
     bordercolor="#666666"
     borderopacity="1.0"
     inkscape:pageopacity="0.0"
     inkscape:pageshadow="2"
     inkscape:zoom="0.35"
     inkscape:cx="-32.857143"
     inkscape:cy="560"
     inkscape:document-units="mm"
     inkscape:current-layer="layer1"
     showgrid="false"
     inkscape:window-width="1299"
     inkscape:window-height="713"
     inkscape:window-x="67"
     inkscape:window-y="27"
     inkscape:window-maximized="1" />
  <metadata
     id="metadata5">
    <rdf:RDF>
      <cc:Work
         rdf:about="">
        <dc:format>image/svg+xml</dc:format>
        <dc:type
           rdf:resource="http://purl.org/dc/dcmitype/StillImage" />
        <dc:title></dc:title>
      </cc:Work>
    </rdf:RDF>
  </metadata>
  <g
     inkscape:label="Layer 1"
     inkscape:groupmode="layer"
     id="layer1">
    <g
       id="g897"
       transform="translate(-3.0238099,-12.095238)">
      <path
         style="fill:#e6e6e6;stroke-width:0.26458332"
         d="m 38.580177,173.51227 c 0,-20.01515 -0.05348,-19.28152 1.652538,-22.6699 0.946062,-1.87901 1.367289,-2.45073 3.179657,-4.31572 1.784404,-1.83621 4.599632,-3.55852 7.074055,-4.32778 l 1.984375,-0.61692 h 30.823959 30.823959 l 2.24896,0.86243 c 4.09649,1.57093 7.1314,4.10115 9.25506,7.716 2.01781,3.43469 1.93694,2.55184 2.05831,22.46886 0.0597,9.79997 0.0367,18.10458 -0.0512,18.45469 l -0.15976,0.63656 H 83.025138 38.580177 Z M 77.56554,138.50444 c -12.494358,-1.79623 -23.804306,-10.3527 -28.456702,-21.52873 -0.424045,-1.01865 -1.138495,-3.10224 -1.587667,-4.63021 -0.76083,-2.58815 -0.824933,-3.13434 -0.937407,-7.98708 -0.09651,-4.16389 -0.03301,-5.641882 0.316521,-7.366862 2.289435,-11.298826 9.332817,-20.313527 19.858018,-25.415929 1.74625,-0.846546 4.484687,-1.918506 6.085416,-2.382132 l 2.910417,-0.842958 h 7.408334 7.408333 l 2.910417,0.83951 c 10.00468,2.885849 18.41698,9.847482 22.89408,18.946075 2.59415,5.27199 3.43196,9.046704 3.43196,15.462616 0,5.70472 -0.82909,9.49504 -3.16089,14.45051 -1.84022,3.91078 -3.69106,6.49075 -7.13188,9.94146 -5.91082,5.92781 -12.818175,9.38541 -21.03172,10.52781 -2.388741,0.33224 -8.563653,0.32428 -10.91723,-0.0141 z"
         id="path945"
         inkscape:connector-curvature="0" />
      <path
         style="fill:#d1d1d1;stroke-width:0.26458332"
         d="m 38.910906,191.54527 c -0.259944,-0.10489 -0.330729,-3.91091 -0.330729,-17.7829 0,-19.49936 -0.03563,-19.02871 1.715031,-22.65542 1.052561,-2.18051 2.803593,-4.30667 4.869625,-5.91286 1.93209,-1.50207 3.515155,-2.29048 5.928523,-2.95258 1.926983,-0.52866 2.496753,-0.5368 32.625591,-0.46651 l 30.664353,0.0715 2.06045,0.84057 c 1.13324,0.46231 2.62153,1.16936 3.30729,1.5712 1.8782,1.1006 4.80602,4.23507 5.93234,6.35105 1.83497,3.44731 1.7968,2.96115 1.7968,22.88217 0,16.08546 -0.0426,17.92411 -0.41852,18.06836 -0.5007,0.19214 -87.674181,0.17768 -88.150754,-0.0146 z M 79.19372,138.54302 c -14.032951,-1.43687 -26.375088,-10.99854 -30.673939,-23.76363 -1.665532,-4.94566 -1.873188,-6.27553 -1.826037,-11.69431 0.03953,-4.542725 0.10136,-5.119784 0.859651,-8.022871 1.727656,-6.614265 4.46332,-11.427212 9.232757,-16.243508 4.767796,-4.814638 10.631466,-8.10244 17.44673,-9.782505 2.671824,-0.658645 3.220943,-0.700908 9.061879,-0.697446 5.910345,0.0035 6.355041,0.03938 8.995834,0.725854 14.026865,3.646263 24.302235,14.384932 27.019265,28.237525 0.52005,2.651408 0.44999,9.969051 -0.12123,12.662121 -1.02439,4.82967 -3.1616,9.70158 -5.94626,13.55494 -2.04555,2.83059 -6.44762,7.07352 -9.34086,9.00317 -2.46495,1.64401 -5.900553,3.33246 -8.808874,4.3292 -4.183534,1.43379 -11.163306,2.17635 -15.898916,1.69146 z"
         id="path943"
         inkscape:connector-curvature="0" />
      <path
         style="fill:#aeaeae;stroke-width:0.26458332"
         d="m 38.695465,191.11013 c -0.0733,-0.19103 -0.09947,-8.31739 -0.05814,-18.05858 l 0.07514,-17.71126 0.864577,-2.24628 c 1.571313,-4.08247 4.00105,-6.98089 7.635617,-9.10849 3.864258,-2.26204 1.78838,-2.13898 36.082099,-2.13898 h 30.294792 l 1.85209,0.62784 c 3.05161,1.03446 4.89563,2.15265 7.03662,4.26689 2.37784,2.34815 3.7405,4.65231 4.47922,7.57408 0.50331,1.99065 0.52369,2.85966 0.45856,19.54577 l -0.0681,17.4625 -44.259575,0.0669 c -36.338628,0.0549 -44.283425,0.005 -44.392853,-0.28041 z M 78.929136,138.37331 C 65.039088,136.86304 52.769052,127.21025 48.53477,114.46216 c -1.43887,-4.33198 -1.75251,-6.32074 -1.75251,-11.1125 0,-4.791753 0.31364,-6.780514 1.75251,-11.112495 3.262027,-9.820932 11.834831,-18.435986 21.795408,-21.902824 4.934953,-1.71764 6.73686,-1.993738 12.964583,-1.986501 5.458857,0.0063 5.811518,0.0387 8.734243,0.801343 11.116806,2.900775 19.435116,9.576245 24.193966,19.415737 2.42133,5.006386 3.31971,9.007409 3.31971,14.78474 0,5.83175 -0.89063,9.73446 -3.41145,14.94896 -4.79593,9.9207 -13.80341,16.92014 -25.03126,19.45103 -2.352866,0.53036 -9.609146,0.90219 -12.170834,0.62366 z"
         id="path941"
         inkscape:connector-curvature="0" />
      <path
         style="fill:#919191;stroke-width:0.26458332"
         d="m 38.854069,190.94414 c -0.381168,-0.71222 -0.370981,-31.55378 0.01134,-34.32794 0.927868,-6.73272 5.929694,-12.48343 12.267672,-14.10442 2.028576,-0.51882 2.878872,-0.53295 32.068549,-0.53295 h 29.98472 l 2.47349,0.79233 c 6.04584,1.93665 10.15172,6.45291 11.41155,12.55211 0.34353,1.66315 0.40879,4.65445 0.40879,18.73836 0,12.68222 -0.0772,16.83652 -0.3175,17.07678 -0.24439,0.24439 -10.41664,0.3175 -44.176109,0.3175 -43.09093,0 -43.863402,-0.009 -44.1325,-0.51177 z m 40.45865,-52.68049 c -5.546649,-0.49483 -11.885743,-2.74329 -16.651547,-5.90628 -2.955254,-1.96135 -7.287446,-6.03732 -9.177591,-8.63479 -2.740093,-3.76548 -4.730436,-8.17531 -5.970887,-13.22917 -0.792893,-3.23042 -0.783195,-11.000082 0.01783,-14.287495 1.825687,-7.492594 4.942494,-12.958192 10.259909,-17.991666 9.054604,-8.571101 22.266957,-11.964497 34.505426,-8.862205 10.542391,2.672356 19.176421,9.669157 23.854761,19.331295 2.71306,5.603257 3.78218,11.623141 3.18051,17.908411 -0.40124,4.19154 -1.29632,7.45077 -3.07225,11.18695 -1.93637,4.07368 -3.73444,6.61039 -7.03472,9.92455 -6.16386,6.18978 -14.044451,9.85347 -22.74624,10.57474 -3.370038,0.27934 -3.884774,0.27831 -7.165205,-0.0143 z"
         id="path939"
         inkscape:connector-curvature="0" />
      <path
         style="fill:#c2d500;stroke-width:0.26458332"
         d="m 38.903789,173.26581 0.07326,-17.92552 0.708875,-1.94062 c 1.906898,-5.22031 5.866903,-9.09662 10.932792,-10.70172 l 1.852083,-0.58683 h 30.559376 30.559375 l 1.85209,0.62784 c 4.70867,1.59619 8.18565,4.51313 10.14299,8.50924 1.83062,3.73741 1.89555,4.526 1.89555,23.02281 0,8.84581 -0.0723,16.27162 -0.1606,16.5018 -0.14556,0.37932 -4.2969,0.41852 -44.32483,0.41852 H 38.830527 Z m 39.363889,-35.15133 c -8.439203,-1.5448 -13.600208,-3.84965 -19.424963,-8.67497 -1.581456,-1.3101 -4.799561,-4.95477 -6.085548,-6.89219 -2.468049,-3.71827 -4.409281,-8.37868 -5.313534,-12.75645 -0.538828,-2.60863 -0.538828,-10.273779 0,-12.882409 3.047358,-14.753205 14.806404,-25.755115 30.188312,-28.244563 2.685288,-0.434593 8.375761,-0.434593 11.061049,0 8.664139,1.402227 16.862476,5.864902 22.162466,12.063893 3.6178,4.231471 6.25349,9.193176 7.58961,14.287499 0.64508,2.459548 0.69401,3.046346 0.69495,8.33437 10e-4,5.35248 -0.0415,5.84792 -0.71788,8.38613 -1.62455,6.0959 -4.78216,11.53737 -9.30016,16.02687 -4.76414,4.73408 -10.802647,8.09132 -17.317856,9.62823 -2.37685,0.56069 -3.612039,0.67953 -7.847904,0.75505 -2.764896,0.0493 -5.32474,0.0351 -5.688542,-0.0315 z"
         id="path937"
         inkscape:connector-curvature="0" />
      <path
         style="fill:#bed000;stroke-width:0.26458332"
         d="m 38.903789,173.26581 0.07326,-17.92552 0.708875,-1.94062 c 1.906898,-5.22031 5.866903,-9.09662 10.932792,-10.70172 l 1.852083,-0.58683 h 30.559376 30.559375 l 1.85209,0.62784 c 4.70867,1.59619 8.18565,4.51313 10.14299,8.50924 1.83062,3.73741 1.89555,4.526 1.89555,23.02281 0,8.84581 -0.0723,16.27162 -0.1606,16.5018 -0.14556,0.37932 -4.2969,0.41852 -44.32483,0.41852 H 38.830527 Z m 86.988891,0.34375 c 0,-10.70117 -0.0986,-16.73812 -0.28842,-17.66094 -0.15863,-0.77114 -0.77119,-2.41411 -1.36123,-3.65104 -2.22374,-4.66165 -6.77463,-7.9536 -11.71181,-8.47188 -2.93336,-0.30793 -56.136658,-0.32298 -58.777965,-0.0166 -5.987364,0.69445 -11.112041,5.11243 -12.894371,11.11622 -0.37282,1.25585 -0.426624,3.54989 -0.426624,18.1901 v 16.75302 h 42.73021 42.73021 z M 78.267678,138.11448 c -8.439203,-1.5448 -13.600208,-3.84965 -19.424963,-8.67497 -1.581456,-1.3101 -4.799561,-4.95477 -6.085548,-6.89219 -2.468049,-3.71827 -4.409281,-8.37868 -5.313534,-12.75645 -0.538828,-2.60863 -0.538828,-10.273779 0,-12.882409 3.047358,-14.753205 14.806404,-25.755115 30.188312,-28.244563 2.685288,-0.434593 8.375761,-0.434593 11.061049,0 8.664139,1.402227 16.862476,5.864902 22.162466,12.063893 3.6178,4.231471 6.25349,9.193176 7.58961,14.287499 0.64508,2.459548 0.69401,3.046346 0.69495,8.33437 10e-4,5.35248 -0.0415,5.84792 -0.71788,8.38613 -1.62455,6.0959 -4.78216,11.53737 -9.30016,16.02687 -4.76414,4.73408 -10.802647,8.09132 -17.317856,9.62823 -2.37685,0.56069 -3.612039,0.67953 -7.847904,0.75505 -2.764896,0.0493 -5.32474,0.0351 -5.688542,-0.0315 z m 13.268704,-2.42815 c 5.29313,-1.37634 9.170378,-3.23082 13.259098,-6.34179 8.77449,-6.67623 14.00423,-18.27135 12.91837,-28.64195 -0.8554,-8.169478 -4.18163,-15.112853 -9.95582,-20.78233 -6.56702,-6.447937 -15.109459,-9.906872 -24.463269,-9.90547 -6.018591,9.02e-4 -10.415519,0.996585 -15.742708,3.564931 -9.723993,4.688134 -16.584089,13.602287 -18.532408,24.081402 -0.666929,3.587107 -0.431001,10.207227 0.48763,13.682867 2.905806,10.99414 11.424647,19.89723 22.575175,23.59346 4.251208,1.40922 6.657448,1.74605 11.741478,1.64362 4.1202,-0.083 4.969711,-0.18156 7.712454,-0.89474 z M 80.224348,117.35708 c -2.634123,-0.25549 -3.78632,-0.54491 -6.911493,-1.73613 -4.248023,-1.61922 -8.803511,-4.97565 -8.803511,-6.48634 0,-0.80719 1.063916,-1.8162 1.915036,-1.8162 0.286417,0 1.124323,0.54266 1.862016,1.20591 4.169222,3.74849 10.389021,5.72959 16.637365,5.29924 4.550265,-0.3134 9.042237,-2.00443 12.257263,-4.61433 0.832916,-0.67615 1.776471,-1.44361 2.096783,-1.70547 0.720754,-0.58923 1.760513,-0.28081 2.413603,0.71593 0.77739,1.18646 0.15898,2.04857 -3.183107,4.43743 -3.521286,2.51695 -7.737038,4.17652 -11.90625,4.68699 -2.609339,0.31949 -3.20484,0.3207 -6.377705,0.013 z m -9.16324,-14.68617 c -2.20399,-1.19588 -1.956324,-4.903911 0.402299,-6.023151 1.197636,-0.568315 1.96583,-0.557948 3.08379,0.04162 2.308397,1.238007 2.483353,4.859891 0.289557,5.994351 -0.978977,0.50625 -2.830589,0.49996 -3.775646,-0.0128 z m 20.108334,0 c -0.971154,-0.52695 -1.52468,-1.67817 -1.52468,-3.171022 0,-1.046301 0.134493,-1.364716 0.899583,-2.129806 0.76509,-0.765091 1.083506,-0.899584 2.129806,-0.899584 1.59131,0 2.613202,0.545193 3.152643,1.681978 0.752583,1.585955 0.577963,2.732784 -0.594654,3.905404 -0.885693,0.88569 -1.18641,1.02574 -2.182813,1.01661 -0.635584,-0.006 -1.481531,-0.18744 -1.879885,-0.40358 z"
         id="path935"
         inkscape:connector-curvature="0" />
      <path
         style="fill:#b6c800;stroke-width:0.26458332"
         d="m 38.903789,173.26581 0.07326,-17.92552 0.708875,-1.94062 c 1.906898,-5.22031 5.866903,-9.09662 10.932792,-10.70172 l 1.852083,-0.58683 h 30.559376 30.559375 l 1.85209,0.62784 c 4.70867,1.59619 8.18565,4.51313 10.14299,8.50924 1.83062,3.73741 1.89555,4.526 1.89555,23.02281 0,8.84581 -0.0723,16.27162 -0.1606,16.5018 -0.14556,0.37932 -4.2969,0.41852 -44.32483,0.41852 H 38.830527 Z m 86.988891,-0.0106 c 0,-18.14833 0.006,-18.0653 -1.56197,-21.17167 -1.77296,-3.51222 -4.88879,-6.31959 -8.4922,-7.65149 l -1.98437,-0.73347 H 83.030178 52.206219 l -1.845209,0.73806 c -2.575966,1.03035 -4.087423,2.06476 -5.992136,4.10091 -2.008844,2.14745 -3.490428,5.14414 -3.91162,7.91171 -0.185174,1.21675 -0.289577,7.58414 -0.289577,17.66094 v 15.75817 H 83.030178 125.89268 Z M 78.267678,138.11448 c -8.439203,-1.5448 -13.600208,-3.84965 -19.424963,-8.67497 -1.581456,-1.3101 -4.799561,-4.95477 -6.085548,-6.89219 -2.468049,-3.71827 -4.409281,-8.37868 -5.313534,-12.75645 -0.538828,-2.60863 -0.538828,-10.273779 0,-12.882409 3.047358,-14.753205 14.806404,-25.755115 30.188312,-28.244563 2.685288,-0.434593 8.375761,-0.434593 11.061049,0 8.664139,1.402227 16.862476,5.864902 22.162466,12.063893 3.6178,4.231471 6.25349,9.193176 7.58961,14.287499 0.64508,2.459548 0.69401,3.046346 0.69495,8.33437 10e-4,5.35248 -0.0415,5.84792 -0.71788,8.38613 -1.62455,6.0959 -4.78216,11.53737 -9.30016,16.02687 -4.76414,4.73408 -10.802647,8.09132 -17.317856,9.62823 -2.37685,0.56069 -3.612039,0.67953 -7.847904,0.75505 -2.764896,0.0493 -5.32474,0.0351 -5.688542,-0.0315 z m 11.707604,-1.97687 c 14.320788,-2.8798 25.107868,-13.65973 27.464868,-27.44666 0.65461,-3.82909 0.65192,-6.86921 -0.01,-10.738129 C 115.05294,84.044697 103.77008,72.914421 89.4975,70.397418 85.690627,69.726067 79.814691,69.787659 76.018719,70.538703 60.020589,73.703981 48.36976,87.582728 48.36976,103.47481 c 0,2.56827 0.78955,7.46431 1.60118,9.92902 3.087089,9.37468 10.591401,17.22595 19.969213,20.89249 6.610771,2.58469 13.287103,3.19826 20.035129,1.84129 z M 78.549507,117.08754 c -1.680697,-0.2967 -5.771576,-1.66031 -7.293288,-2.43106 -1.896033,-0.96035 -4.472543,-2.7818 -5.674529,-4.01157 -1.050949,-1.07524 -1.149853,-1.27978 -0.926042,-1.91518 0.147786,-0.41956 0.590741,-0.85012 1.079834,-1.0496 0.806711,-0.32904 0.882263,-0.29548 2.778125,1.23393 2.472655,1.99471 6.073177,3.79534 8.960321,4.48107 3.157178,0.74988 8.46622,0.74806 11.465293,-0.004 3.046394,-0.76384 6.646783,-2.60627 8.789601,-4.49791 1.949284,-1.72079 2.625108,-1.90604 3.511488,-0.96254 1.25044,1.33104 0.50738,2.37612 -3.697244,5.19998 -2.245828,1.50831 -5.081921,2.77417 -8.097308,3.61414 -1.816513,0.50601 -8.737936,0.72366 -10.896251,0.34264 z m -7.452599,-14.6064 c -1.276469,-0.85749 -1.794875,-2.40846 -1.267851,-3.793166 1.109369,-2.914761 5.301999,-2.898124 6.265309,0.02487 0.998265,3.029036 -2.3451,5.550086 -4.997458,3.768306 z m 20.486054,0.23049 c -2.853029,-1.28385 -2.283074,-5.653301 0.802737,-6.15406 2.020877,-0.32794 3.697256,1.156748 3.697256,3.274486 0,2.216744 -2.466096,3.794814 -4.499993,2.879574 z"
         id="path933"
         inkscape:connector-curvature="0" />
      <path
         style="fill:#80807e;stroke-width:0.26458332"
         d="m 38.903789,173.26581 0.07326,-17.92552 0.708875,-1.94062 c 1.906898,-5.22031 5.866903,-9.09662 10.932792,-10.70172 l 1.852083,-0.58683 h 30.559376 30.559375 l 1.85209,0.62784 c 4.70867,1.59619 8.18565,4.51313 10.14299,8.50924 1.83062,3.73741 1.89555,4.526 1.89555,23.02281 0,8.84581 -0.0723,16.27162 -0.1606,16.5018 -0.14556,0.37932 -4.2969,0.41852 -44.32483,0.41852 H 38.830527 Z m 87.194171,0.57779 c 0.0821,-18.14511 0.0689,-18.3069 -1.80527,-22.0188 -0.56672,-1.12242 -1.51456,-2.60067 -2.10632,-3.28499 -1.48199,-1.71382 -4.53145,-3.68781 -6.89032,-4.46029 l -1.97108,-0.64548 H 83.030178 52.735385 l -1.940614,0.70887 c -4.024533,1.4701 -6.974656,3.97876 -8.821589,7.5015 -1.827609,3.48589 -1.805505,3.22126 -1.805505,21.61549 0,9.08617 0.04962,16.56993 0.110269,16.63056 0.06065,0.0606 19.37854,0.10236 42.928648,0.0927 l 42.818376,-0.0175 z M 78.267678,138.11448 c -8.439203,-1.5448 -13.600208,-3.84965 -19.424963,-8.67497 -1.581456,-1.3101 -4.799561,-4.95477 -6.085548,-6.89219 -2.468049,-3.71827 -4.409281,-8.37868 -5.313534,-12.75645 -0.538828,-2.60863 -0.538828,-10.273779 0,-12.882409 3.047358,-14.753205 14.806404,-25.755115 30.188312,-28.244563 2.685288,-0.434593 8.375761,-0.434593 11.061049,0 8.664139,1.402227 16.862476,5.864902 22.162466,12.063893 3.6178,4.231471 6.25349,9.193176 7.58961,14.287499 0.64508,2.459548 0.69401,3.046346 0.69495,8.33437 10e-4,5.35248 -0.0415,5.84792 -0.71788,8.38613 -1.62455,6.0959 -4.78216,11.53737 -9.30016,16.02687 -4.76414,4.73408 -10.802647,8.09132 -17.317856,9.62823 -2.37685,0.56069 -3.612039,0.67953 -7.847904,0.75505 -2.764896,0.0493 -5.32474,0.0351 -5.688542,-0.0315 z m 10.602854,-1.58664 c 11.212838,-1.90583 20.786908,-8.83868 25.703428,-18.61255 3.77116,-7.49695 4.49772,-16.23134 2.00394,-24.090625 -1.7449,-5.499147 -4.26447,-9.633734 -8.39841,-13.781693 -7.09236,-7.116405 -16.265823,-10.653701 -26.472229,-10.207709 -4.050718,0.177005 -5.787189,0.449139 -8.995833,1.409798 -10.173543,3.045932 -18.738855,10.957474 -22.40397,20.693928 -1.249234,3.318615 -1.738252,6.026328 -1.871643,10.363371 -0.107025,3.47975 -0.03834,4.57271 0.446635,7.10761 1.333462,6.9698 4.510451,12.77517 9.713083,17.74892 4.98581,4.76647 10.512944,7.62323 17.68777,9.14214 3.619063,0.76615 8.858581,0.86057 12.587229,0.22681 z M 79.879599,117.0698 c -2.803218,-0.29294 -7.24888,-1.76032 -9.681713,-3.19565 -4.818012,-2.84253 -6.40935,-4.7772 -4.835919,-5.87928 0.896016,-0.62759 1.437759,-0.50495 2.659017,0.60196 2.500056,2.26597 5.515362,3.87812 9.056069,4.84185 1.752396,0.47698 2.822443,0.57556 6.217708,0.5728 3.690118,-0.003 4.339643,-0.0751 6.482292,-0.71979 3.028871,-0.91131 6.121768,-2.55636 8.030941,-4.2715 1.984187,-1.78253 2.242516,-1.85456 3.283576,-0.91553 0.82237,0.74177 0.84058,0.80093 0.45944,1.49236 -0.5741,1.04147 -4.024795,3.62031 -6.48229,4.84446 -2.85637,1.42284 -5.651894,2.29237 -8.488339,2.64023 -2.640534,0.32384 -3.502597,0.3223 -6.700782,-0.0119 z m -9.179005,-15.14889 c -0.75443,-0.75443 -0.899583,-1.0902 -0.899583,-2.08098 0,-1.770184 1.534263,-3.371196 3.228007,-3.368442 1.724411,0.0028 3.283368,1.961007 3.035099,3.812382 -0.215432,1.60652 -1.358985,2.53663 -3.118739,2.53663 -1.177058,0 -1.457643,-0.11244 -2.244784,-0.89959 z m 20.108334,0 c -0.76141,-0.76141 -0.899583,-1.08588 -0.899583,-2.112487 0,-3.054484 3.79485,-4.285135 5.480942,-1.777444 1.449205,2.155371 0.02603,4.789521 -2.587676,4.789521 -0.891492,0 -1.260686,-0.16659 -1.993683,-0.89959 z"
         id="path931"
         inkscape:connector-curvature="0" />
      <path
         style="fill:#a8b800;stroke-width:0.26458332"
         d="m 39.021149,191.01494 c -0.09701,-0.097 -0.176389,-7.81703 -0.176389,-17.15559 0,-19.03531 -0.0094,-18.92551 1.962458,-22.84117 1.704084,-3.38385 5.54042,-6.78464 8.993934,-7.97282 3.159803,-1.08713 3.86295,-1.10796 34.419651,-1.01938 l 29.368747,0.0851 2.38125,0.86736 c 1.30969,0.47705 3.0361,1.30127 3.83646,1.83159 3.32476,2.203 5.9402,5.80054 6.87538,9.45708 0.50772,1.98516 0.53296,2.90863 0.53296,19.504 v 17.42018 H 83.206568 c -24.204967,0 -44.088405,-0.0794 -44.185419,-0.17639 z M 126.09796,173.8436 c 0.0821,-18.14511 0.0689,-18.3069 -1.80527,-22.0188 -0.56672,-1.12242 -1.51456,-2.60067 -2.10632,-3.28499 -1.48199,-1.71382 -4.53145,-3.68781 -6.89032,-4.46029 l -1.97108,-0.64548 H 83.030178 52.735385 l -1.940614,0.70887 c -4.024533,1.4701 -6.974656,3.97876 -8.821589,7.5015 -1.827609,3.48589 -1.805505,3.22126 -1.805505,21.61549 0,9.08617 0.04962,16.56993 0.110269,16.63056 0.06065,0.0606 19.37854,0.10236 42.928648,0.0927 l 42.818376,-0.0175 z M 78.267678,138.02099 c -6.766338,-0.87478 -14.06841,-4.11594 -19.182292,-8.51444 -4.792444,-4.12201 -8.53143,-9.67948 -10.429621,-15.50214 -1.394653,-4.27807 -1.683724,-6.49933 -1.541532,-11.84537 0.120033,-4.512892 0.177399,-4.935839 1.094547,-8.069791 1.658062,-5.665706 4.200367,-10.047873 8.318192,-14.33806 5.133521,-5.348398 10.505748,-8.478978 17.636672,-10.277489 6.168033,-1.555657 11.490005,-1.589274 17.594546,-0.111136 13.52723,3.275449 24.03091,13.759724 26.89303,26.843351 0.73668,3.367595 0.6827,11.371275 -0.0994,14.732245 -2.29706,9.87178 -9.38533,18.79326 -18.593249,23.40197 -5.251056,2.62824 -9.426205,3.64378 -15.605506,3.7958 -2.401094,0.0591 -5.139532,0.007 -6.085417,-0.11494 z m 10.602854,-1.49315 c 11.212838,-1.90583 20.786908,-8.83868 25.703428,-18.61255 3.77116,-7.49695 4.49772,-16.23134 2.00394,-24.090625 -1.7449,-5.499147 -4.26447,-9.633734 -8.39841,-13.781693 -7.09236,-7.116405 -16.265823,-10.653701 -26.472229,-10.207709 -4.050718,0.177005 -5.787189,0.449139 -8.995833,1.409798 -10.173543,3.045932 -18.738855,10.957474 -22.40397,20.693928 -1.249234,3.318615 -1.738252,6.026328 -1.871643,10.363371 -0.107025,3.47975 -0.03834,4.57271 0.446635,7.10761 1.333462,6.9698 4.510451,12.77517 9.713083,17.74892 4.98581,4.76647 10.512944,7.62323 17.68777,9.14214 3.619063,0.76615 8.858581,0.86057 12.587229,0.22681 z M 79.879599,117.0698 c -2.803218,-0.29294 -7.24888,-1.76032 -9.681713,-3.19565 -4.818012,-2.84253 -6.40935,-4.7772 -4.835919,-5.87928 0.896016,-0.62759 1.437759,-0.50495 2.659017,0.60196 2.500056,2.26597 5.515362,3.87812 9.056069,4.84185 1.752396,0.47698 2.822443,0.57556 6.217708,0.5728 3.690118,-0.003 4.339643,-0.0751 6.482292,-0.71979 3.028871,-0.91131 6.121768,-2.55636 8.030941,-4.2715 1.984187,-1.78253 2.242516,-1.85456 3.283576,-0.91553 0.82237,0.74177 0.84058,0.80093 0.45944,1.49236 -0.5741,1.04147 -4.024795,3.62031 -6.48229,4.84446 -2.85637,1.42284 -5.651894,2.29237 -8.488339,2.64023 -2.640534,0.32384 -3.502597,0.3223 -6.700782,-0.0119 z m -9.179005,-15.14889 c -0.75443,-0.75443 -0.899583,-1.0902 -0.899583,-2.08098 0,-1.770184 1.534263,-3.371196 3.228007,-3.368442 1.724411,0.0028 3.283368,1.961007 3.035099,3.812382 -0.215432,1.60652 -1.358985,2.53663 -3.118739,2.53663 -1.177058,0 -1.457643,-0.11244 -2.244784,-0.89959 z m 20.108334,0 c -0.76141,-0.76141 -0.899583,-1.08588 -0.899583,-2.112487 0,-3.054484 3.79485,-4.285135 5.480942,-1.777444 1.449205,2.155371 0.02603,4.789521 -2.587676,4.789521 -0.891492,0 -1.260686,-0.16659 -1.993683,-0.89959 z"
         id="path929"
         inkscape:connector-curvature="0" />
      <path
         style="fill:#6f6f6e;stroke-width:0.26458332"
         d="m 39.021149,191.01494 c -0.09701,-0.097 -0.176389,-7.81703 -0.176389,-17.15559 0,-19.03531 -0.0094,-18.92551 1.962458,-22.84117 1.704084,-3.38385 5.54042,-6.78464 8.993934,-7.97282 3.159803,-1.08713 3.86295,-1.10796 34.419651,-1.01938 l 29.368747,0.0851 2.38125,0.86736 c 1.30969,0.47705 3.0361,1.30127 3.83646,1.83159 3.32476,2.203 5.9402,5.80054 6.87538,9.45708 0.50772,1.98516 0.53296,2.90863 0.53296,19.504 v 17.42018 H 83.206568 c -24.204967,0 -44.088405,-0.0794 -44.185419,-0.17639 z m 87.136111,-17.57865 c 0,-14.31403 -0.0593,-16.92543 -0.41532,-18.29949 -1.30986,-5.05491 -5.29672,-9.42538 -10.11762,-11.09112 l -1.77018,-0.61164 H 83.16247 c -29.298907,0 -30.757704,0.0225 -32.146876,0.49536 -5.108369,1.73891 -8.739653,5.46247 -10.483041,10.74943 -0.438768,1.33059 -0.487376,2.88034 -0.567641,18.09775 -0.04828,9.1534 -0.02614,16.80316 0.04919,16.99948 0.114161,0.2975 7.297773,0.35693 43.140067,0.35693 h 43.003091 z m -47.889582,-35.4153 c -6.766338,-0.87478 -14.06841,-4.11594 -19.182292,-8.51444 -4.792444,-4.12201 -8.53143,-9.67948 -10.429621,-15.50214 -1.394653,-4.27807 -1.683724,-6.49933 -1.541532,-11.84537 0.120033,-4.512892 0.177399,-4.935839 1.094547,-8.069791 1.658062,-5.665706 4.200367,-10.047873 8.318192,-14.33806 5.133521,-5.348398 10.505748,-8.478978 17.636672,-10.277489 6.168033,-1.555657 11.490005,-1.589274 17.594546,-0.111136 13.52723,3.275449 24.03091,13.759724 26.89303,26.843351 0.73668,3.367595 0.6827,11.371275 -0.0994,14.732245 -2.29706,9.87178 -9.38533,18.79326 -18.593249,23.40197 -5.251056,2.62824 -9.426205,3.64378 -15.605506,3.7958 -2.401094,0.0591 -5.139532,0.007 -6.085417,-0.11494 z m 11.773959,-1.6326 c 7.155918,-1.41863 13.302263,-4.65475 18.263433,-9.61592 2.28769,-2.28769 5.03017,-6.00787 6.32806,-8.58403 2.10849,-4.1851 3.58663,-10.30053 3.58663,-14.83878 0,-4.538242 -1.47814,-10.653673 -3.58663,-14.838769 C 111.59245,82.4755 105.54668,76.511294 99.302053,73.386633 85.261293,66.360974 67.717991,69.395184 57.230527,80.663134 49.707291,88.746255 46.610374,99.65043 48.871085,110.09654 c 0.913379,4.22047 2.45393,7.92563 4.709605,11.32702 7.820874,11.7933 22.359382,17.76041 36.460947,14.96483 z M 79.19372,116.93548 c -4.755005,-0.75669 -11.237138,-3.89397 -13.5956,-6.58011 -0.942943,-1.07395 -1.013341,-1.46957 -0.361172,-2.02969 0.950003,-0.81591 1.370566,-0.77002 2.524078,0.27541 2.603913,2.35994 6.147935,4.19899 9.761085,5.06518 3.059002,0.73335 8.221142,0.73102 11.328901,-0.005 3.089396,-0.73178 7.166528,-2.79111 9.23893,-4.66652 1.483341,-1.34235 1.72752,-1.47212 2.354858,-1.2515 0.41026,0.14428 0.81038,0.56026 0.96685,1.00518 0.25168,0.71566 0.17749,0.83902 -1.29871,2.15932 -2.303642,2.06035 -5.536271,3.87406 -8.934304,5.0127 -2.881681,0.96561 -3.13644,1.00412 -7.090125,1.07152 -2.255573,0.0385 -4.458229,0.0131 -4.894791,-0.0564 z m -8.272117,-15.02069 c -0.870016,-0.79732 -0.9883,-1.05308 -0.9883,-2.137 0,-1.083921 0.118284,-1.339683 0.9883,-2.136997 0.775383,-0.710584 1.212776,-0.905711 2.030222,-0.905711 2.059028,0 3.613021,2.20155 2.847404,4.033928 -0.916575,2.19368 -3.159302,2.7205 -4.877626,1.14578 z m 20.627653,0.46311 c -2.818937,-1.38925 -1.686991,-5.642818 1.501648,-5.642818 1.0081,0 2.290779,1.071803 2.674644,2.234927 0.394184,1.194391 -0.182679,2.591561 -1.36851,3.314541 -1.054047,0.64263 -1.652833,0.66254 -2.807782,0.0934 z"
         id="path927"
         inkscape:connector-curvature="0" />
      <path
         style="fill:#97a601;stroke-width:0.26458332"
         d="m 38.970723,190.59679 c -0.082,-0.32785 -0.114123,-8.27562 -0.07138,-17.66171 l 0.07771,-17.06563 0.771598,-2.20986 c 1.884056,-5.39594 6.081839,-9.44858 11.261626,-10.87224 1.94318,-0.53408 2.524685,-0.54394 32.077565,-0.54394 h 30.098508 l 2.49451,0.79907 c 1.43494,0.45965 3.17455,1.25317 4.0955,1.86815 2.19256,1.46414 4.52644,4.08933 5.68258,6.39185 1.74299,3.47128 1.77258,3.86988 1.6943,22.82322 l -0.0699,16.93334 -43.981739,0.0669 -43.981745,0.0669 z m 87.186537,-17.1605 c 0,-14.31403 -0.0593,-16.92543 -0.41532,-18.29949 -1.30986,-5.05491 -5.29672,-9.42538 -10.11762,-11.09112 l -1.77018,-0.61164 H 83.16247 c -29.298907,0 -30.757704,0.0225 -32.146876,0.49536 -5.108369,1.73891 -8.739653,5.46247 -10.483041,10.74943 -0.438768,1.33059 -0.487376,2.88034 -0.567641,18.09775 -0.04828,9.1534 -0.02614,16.80316 0.04919,16.99948 0.114161,0.2975 7.297773,0.35693 43.140067,0.35693 H 126.15726 Z M 79.19372,138.02311 c -8.029787,-0.78707 -16.137351,-4.61585 -21.84649,-10.31697 -4.940636,-4.9337 -7.641898,-9.71723 -9.538489,-16.89125 -0.764299,-2.89103 -0.975477,-9.61682 -0.404697,-12.889183 1.577568,-9.044418 6.855146,-17.423924 14.251851,-22.628465 5.384374,-3.788606 10.568109,-5.739641 17.957078,-6.758622 2.843292,-0.392106 3.658404,-0.409006 6.063038,-0.125708 7.446863,0.87734 12.769464,2.719482 17.983749,6.224138 14.43963,9.705259 19.63894,27.95383 12.31124,43.21008 -4.97248,10.35268 -14.52247,17.61909 -25.929363,19.72915 -2.673025,0.49447 -8.086895,0.71746 -10.847917,0.44683 z m 10.847917,-1.63472 c 7.155918,-1.41863 13.302263,-4.65475 18.263433,-9.61592 2.28769,-2.28769 5.03017,-6.00787 6.32806,-8.58403 2.10849,-4.1851 3.58663,-10.30053 3.58663,-14.83878 0,-4.538242 -1.47814,-10.653673 -3.58663,-14.838769 C 111.59245,82.4755 105.54668,76.511294 99.302053,73.386633 85.261293,66.360974 67.717991,69.395184 57.230527,80.663134 49.707291,88.746255 46.610374,99.65043 48.871085,110.09654 c 0.913379,4.22047 2.45393,7.92563 4.709605,11.32702 7.820874,11.7933 22.359382,17.76041 36.460947,14.96483 z M 79.19372,116.93548 c -4.755005,-0.75669 -11.237138,-3.89397 -13.5956,-6.58011 -0.942943,-1.07395 -1.013341,-1.46957 -0.361172,-2.02969 0.950003,-0.81591 1.370566,-0.77002 2.524078,0.27541 2.603913,2.35994 6.147935,4.19899 9.761085,5.06518 3.059002,0.73335 8.221142,0.73102 11.328901,-0.005 3.089396,-0.73178 7.166528,-2.79111 9.23893,-4.66652 1.483341,-1.34235 1.72752,-1.47212 2.354858,-1.2515 0.41026,0.14428 0.81038,0.56026 0.96685,1.00518 0.25168,0.71566 0.17749,0.83902 -1.29871,2.15932 -2.303642,2.06035 -5.536271,3.87406 -8.934304,5.0127 -2.881681,0.96561 -3.13644,1.00412 -7.090125,1.07152 -2.255573,0.0385 -4.458229,0.0131 -4.894791,-0.0564 z m -8.272117,-15.02069 c -0.870016,-0.79732 -0.9883,-1.05308 -0.9883,-2.137 0,-1.083921 0.118284,-1.339683 0.9883,-2.136997 0.775383,-0.710584 1.212776,-0.905711 2.030222,-0.905711 2.059028,0 3.613021,2.20155 2.847404,4.033928 -0.916575,2.19368 -3.159302,2.7205 -4.877626,1.14578 z m 20.627653,0.46311 c -2.818937,-1.38925 -1.686991,-5.642818 1.501648,-5.642818 1.0081,0 2.290779,1.071803 2.674644,2.234927 0.394184,1.194391 -0.182679,2.591561 -1.36851,3.314541 -1.054047,0.64263 -1.652833,0.66254 -2.807782,0.0934 z"
         id="path925"
         inkscape:connector-curvature="0" />
      <path
         style="fill:#889501;stroke-width:0.26458332"
         d="m 38.970723,190.59679 c -0.082,-0.32785 -0.114123,-8.27562 -0.07138,-17.66171 l 0.07771,-17.06563 0.771598,-2.20986 c 1.884056,-5.39594 6.081839,-9.44858 11.261626,-10.87224 1.94318,-0.53408 2.524685,-0.54394 32.077565,-0.54394 h 30.098508 l 2.49451,0.79907 c 1.43494,0.45965 3.17455,1.25317 4.0955,1.86815 2.19256,1.46414 4.52644,4.08933 5.68258,6.39185 1.74299,3.47128 1.77258,3.86988 1.6943,22.82322 l -0.0699,16.93334 -43.981739,0.0669 -43.981745,0.0669 z m 87.318827,-17.39713 c 0,-15.56137 -0.0359,-16.91817 -0.48675,-18.38854 -1.1608,-3.78587 -3.37763,-6.86599 -6.44836,-8.95955 -2.4213,-1.65079 -4.37523,-2.29179 -7.90434,-2.59308 -1.6895,-0.14423 -14.703051,-0.2162 -30.691672,-0.16972 l -27.758459,0.0807 -2.116667,0.74232 c -2.921235,1.02447 -4.658469,2.12825 -6.629805,4.21235 -1.938502,2.04938 -3.620291,5.2445 -4.067607,7.72778 -0.311614,1.72993 -0.410927,33.80018 -0.105616,34.1055 0.09745,0.0974 19.534403,0.14706 43.193231,0.11024 l 43.016045,-0.0669 z M 79.19372,138.02311 c -8.029787,-0.78707 -16.137351,-4.61585 -21.84649,-10.31697 -4.940636,-4.9337 -7.641898,-9.71723 -9.538489,-16.89125 -0.764299,-2.89103 -0.975477,-9.61682 -0.404697,-12.889183 1.577568,-9.044418 6.855146,-17.423924 14.251851,-22.628465 5.384374,-3.788606 10.568109,-5.739641 17.957078,-6.758622 2.843292,-0.392106 3.658404,-0.409006 6.063038,-0.125708 7.446863,0.87734 12.769464,2.719482 17.983749,6.224138 14.43963,9.705259 19.63894,27.95383 12.31124,43.21008 -4.97248,10.35268 -14.52247,17.61909 -25.929363,19.72915 -2.673025,0.49447 -8.086895,0.71746 -10.847917,0.44683 z m 11.803385,-1.69312 c 7.147701,-1.67227 13.025205,-4.98311 17.946805,-10.10956 10.84554,-11.29697 12.34929,-28.20767 3.66826,-41.252146 -3.16481,-4.755568 -8.84487,-9.622911 -14.055921,-12.04476 -5.121524,-2.38024 -9.369389,-3.283522 -15.393779,-3.273392 -6.370297,0.01071 -10.079835,0.81731 -15.62838,3.398219 -8.728612,4.060119 -15.904715,12.465446 -18.218964,21.339766 -1.053394,4.039391 -1.297905,6.247623 -1.131836,10.221903 0.377429,9.0324 3.706707,16.39201 10.269754,22.70203 5.326032,5.12069 11.353573,8.09856 19.285467,9.52788 3.135053,0.56493 9.752135,0.31043 13.258594,-0.50994 z M 79.458303,116.81767 c -2.660423,-0.32437 -6.73902,-1.72396 -9.309164,-3.19448 -2.602169,-1.48885 -5.110628,-3.75298 -5.110628,-4.61286 0,-0.75073 1.140923,-1.43319 1.698784,-1.01614 0.184126,0.13765 1.157144,0.87942 2.162265,1.64839 2.317303,1.77285 5.50192,3.34154 8.167952,4.02339 2.957502,0.75641 9.231191,0.75573 12.204198,-0.001 2.970001,-0.75627 6.595176,-2.62951 8.721696,-4.50676 0.981212,-0.8662 1.869366,-1.57491 1.973675,-1.57491 0.406629,0 1.583929,1.11862 1.583929,1.50498 0,0.99156 -4.645674,4.39525 -7.947391,5.82272 -4.237493,1.83204 -9.234533,2.50571 -14.145316,1.90697 z m -7.705117,-14.37736 c -1.142151,-0.49709 -1.687592,-1.38324 -1.687592,-2.741744 0,-1.863963 1.814132,-3.295999 3.605776,-2.846327 0.38245,0.09599 1.037294,0.516456 1.455209,0.934374 0.604075,0.604072 0.759849,0.996037 0.759849,1.911953 0,1.382914 -0.55272,2.254474 -1.745872,2.753004 -1.074637,0.44901 -1.332616,0.4478 -2.38737,-0.0112 z m 20.262766,0.007 c -2.493767,-0.82909 -2.545286,-4.319776 -0.07896,-5.350273 2.723745,-1.138052 5.10962,2.514452 3.012411,4.611663 -0.924018,0.92402 -1.750126,1.13202 -2.933449,0.73861 z"
         id="path923"
         inkscape:connector-curvature="0" />
      <path
         style="fill:#798502;stroke-width:0.26458332"
         d="m 38.970723,190.59679 c -0.082,-0.32785 -0.114123,-8.27562 -0.07138,-17.66171 l 0.07771,-17.06563 0.771598,-2.20986 c 1.884056,-5.39594 6.081839,-9.44858 11.261626,-10.87224 1.94318,-0.53408 2.524685,-0.54394 32.077565,-0.54394 h 30.098508 l 2.49451,0.79907 c 1.43494,0.45965 3.17455,1.25317 4.0955,1.86815 2.19256,1.46414 4.52644,4.08933 5.68258,6.39185 1.74299,3.47128 1.77258,3.86988 1.6943,22.82322 l -0.0699,16.93334 -43.981739,0.0669 -43.981745,0.0669 z m 87.032607,-0.35981 c 0.37548,-0.14409 0.41811,-1.85142 0.41461,-16.60261 -0.003,-13.8162 -0.0685,-16.71601 -0.4083,-18.15778 -1.2641,-5.36345 -4.96821,-9.5109 -10.3718,-11.61318 l -1.7837,-0.69396 H 83.294761 c -29.175121,0 -30.625293,0.0225 -32.014584,0.4956 -5.104724,1.73851 -8.854271,5.2781 -10.623671,10.02879 l -0.61322,1.64645 -0.07927,17.30892 c -0.06355,13.87588 -0.01186,17.3517 0.260633,17.52459 0.388153,0.24629 85.138841,0.30871 85.778681,0.0632 z M 79.19372,138.02311 c -8.029787,-0.78707 -16.137351,-4.61585 -21.84649,-10.31697 -4.940636,-4.9337 -7.641898,-9.71723 -9.538489,-16.89125 -0.764299,-2.89103 -0.975477,-9.61682 -0.404697,-12.889183 1.577568,-9.044418 6.855146,-17.423924 14.251851,-22.628465 5.384374,-3.788606 10.568109,-5.739641 17.957078,-6.758622 2.843292,-0.392106 3.658404,-0.409006 6.063038,-0.125708 7.446863,0.87734 12.769464,2.719482 17.983749,6.224138 14.43963,9.705259 19.63894,27.95383 12.31124,43.21008 -4.97248,10.35268 -14.52247,17.61909 -25.929363,19.72915 -2.673025,0.49447 -8.086895,0.71746 -10.847917,0.44683 z m 12.170833,-1.68523 c 12.118837,-3.07905 20.911857,-10.77958 25.014517,-21.90661 2.22285,-6.02868 2.58748,-12.62667 1.03727,-18.769264 -3.43347,-13.604919 -14.73711,-23.713887 -28.849293,-25.800238 -3.825465,-0.565559 -9.480971,-0.384957 -13.341292,0.426038 -3.727032,0.782993 -8.554506,2.838478 -11.980743,5.10127 -3.325828,2.196479 -7.181921,5.930983 -9.26806,8.975823 -2.089235,3.04936 -4.14735,7.540211 -5.00223,10.914975 -0.681909,2.691936 -0.737253,3.297721 -0.737253,8.069786 0,4.77207 0.05534,5.37786 0.737253,8.0698 0.856037,3.37933 2.925077,7.892 4.984006,10.87034 0.762323,1.10274 2.465805,3.10619 3.785516,4.4521 4.939051,5.03712 10.93905,8.26969 18.274475,9.84559 2.606226,0.55991 3.422013,0.61467 7.805209,0.52394 4.151297,-0.0859 5.296681,-0.20343 7.540625,-0.77355 z m -9.657292,-19.40506 c -5.031092,-0.34959 -9.115147,-1.73409 -13.244468,-4.48988 -2.174065,-1.45092 -3.503001,-2.80059 -3.381052,-3.43381 0.05104,-0.26505 0.41534,-0.66294 0.809548,-0.8842 0.691656,-0.38821 0.75179,-0.36885 1.717921,0.5531 3.64661,3.47984 8.611133,5.43304 14.494926,5.70275 6.289488,0.28831 12.066371,-1.61171 16.199986,-5.32819 1.357326,-1.22035 2.088458,-1.46385 2.664808,-0.88751 0.63225,0.63225 0.33514,1.47408 -0.90575,2.56636 -3.79336,3.33905 -8.773247,5.51687 -13.929884,6.09187 -1.404202,0.15658 -2.706616,0.26389 -2.894253,0.23846 -0.187635,-0.0254 -0.876938,-0.0834 -1.531782,-0.12895 z M 71.376369,102.21677 c -1.560658,-1.22983 -1.720532,-2.925668 -0.410575,-4.355082 0.764479,-0.834189 1.067557,-0.982289 2.010217,-0.982289 0.94266,0 1.245738,0.1481 2.010217,0.982289 1.309957,1.429414 1.150083,3.125252 -0.410575,4.355082 -0.528998,0.41686 -2.670286,0.41686 -3.199284,0 z m 20.252768,0.032 c -0.965872,-0.53117 -1.443242,-1.37355 -1.449324,-2.557528 -0.0084,-1.633034 1.063119,-2.691627 2.724478,-2.691627 1.023609,0 1.29455,0.126399 2.004729,0.935249 1.152949,1.313135 1.127612,2.515376 -0.07842,3.721416 -0.958239,0.95824 -2.139011,1.17676 -3.201458,0.59249 z"
         id="path921"
         inkscape:connector-curvature="0" />
      <path
         style="fill:#4f4f4c;stroke-width:0.26458332"
         d="m 38.970723,190.59679 c -0.082,-0.32785 -0.114123,-8.27562 -0.07138,-17.66171 l 0.07771,-17.06563 0.771598,-2.20986 c 1.884056,-5.39594 6.081839,-9.44858 11.261626,-10.87224 1.94318,-0.53408 2.524685,-0.54394 32.077565,-0.54394 h 30.098508 l 2.49451,0.79907 c 1.43494,0.45965 3.17455,1.25317 4.0955,1.86815 2.19256,1.46414 4.52644,4.08933 5.68258,6.39185 1.74299,3.47128 1.77258,3.86988 1.6943,22.82322 l -0.0699,16.93334 -43.981739,0.0669 -43.981745,0.0669 z m 87.386957,-17.08671 c 0.0751,-18.46096 0.0932,-18.2133 -1.58296,-21.65095 -1.77743,-3.6454 -5.268,-6.73879 -9.09407,-8.05929 l -1.82651,-0.63039 H 83.030178 52.206219 l -1.783702,0.69396 c -3.9752,1.54656 -6.929857,4.10781 -8.744445,7.58013 -1.963405,3.7571 -1.876137,2.81062 -1.977468,21.44695 -0.06851,12.59949 -0.01367,16.84975 0.221037,17.13256 0.267881,0.32278 6.413697,0.36662 43.340029,0.30917 l 43.02788,-0.0669 z M 79.19372,138.02311 c -8.029787,-0.78707 -16.137351,-4.61585 -21.84649,-10.31697 -4.940636,-4.9337 -7.641898,-9.71723 -9.538489,-16.89125 -0.764299,-2.89103 -0.975477,-9.61682 -0.404697,-12.889183 1.577568,-9.044418 6.855146,-17.423924 14.251851,-22.628465 5.384374,-3.788606 10.568109,-5.739641 17.957078,-6.758622 2.843292,-0.392106 3.658404,-0.409006 6.063038,-0.125708 7.446863,0.87734 12.769464,2.719482 17.983749,6.224138 14.43963,9.705259 19.63894,27.95383 12.31124,43.21008 -4.97248,10.35268 -14.52247,17.61909 -25.929363,19.72915 -2.673025,0.49447 -8.086895,0.71746 -10.847917,0.44683 z m 10.847917,-1.37181 c 7.348458,-1.45214 13.189223,-4.5497 18.388543,-9.75208 5.30794,-5.31107 8.50156,-11.52642 9.65331,-18.78706 2.46347,-15.529609 -7.33723,-31.231763 -22.926328,-36.731341 -7.646122,-2.697426 -17.020294,-2.64637 -24.430109,0.133058 -8.507481,3.191163 -15.40204,9.281389 -19.341797,17.085343 -2.484679,4.921702 -3.716424,10.612809 -3.45018,15.94107 0.254521,5.09366 1.156653,8.67648 3.331023,13.22917 6.729197,14.08958 22.980391,22.00313 38.775538,18.88184 z M 79.458303,116.69305 c -0.291042,-0.0657 -1.184011,-0.25004 -1.984375,-0.40966 -3.235473,-0.64531 -7.106595,-2.46105 -10.233605,-4.80005 -1.725126,-1.2904 -2.314011,-2.13799 -1.953474,-2.81166 0.542409,-1.0135 1.271992,-0.85343 3.001682,0.65856 2.186805,1.91157 5.687729,3.69052 8.833041,4.48839 3.373435,0.85575 8.376039,0.90143 11.72944,0.10712 3.023166,-0.71608 7.209919,-2.8142 9.2524,-4.63667 1.760971,-1.57128 2.086898,-1.68498 2.745138,-0.95764 0.6955,0.76851 0.5261,1.24508 -0.852971,2.39971 -2.488054,2.08312 -5.699927,3.88 -8.806511,4.92682 -2.897529,0.97637 -3.138953,1.01318 -7.100557,1.08262 -2.255573,0.0395 -4.339166,0.0182 -4.630208,-0.0475 z m -8.341178,-14.89698 c -0.949571,-0.94958 -1.20791,-1.928028 -0.781105,-2.958424 0.467122,-1.127731 1.47833,-1.837981 2.6168,-1.837981 1.212554,0 2.087129,0.602927 2.577711,1.777061 1.131134,2.707174 -2.346452,5.086294 -4.413406,3.019344 z m 20.746993,0.50053 c -0.896882,-0.36238 -1.69019,-1.57378 -1.69019,-2.58095 0,-1.287669 1.428316,-2.715985 2.715985,-2.715985 1.930517,0 3.33868,2.237449 2.467923,3.921315 -0.686261,1.32708 -2.168967,1.91088 -3.493718,1.37562 z"
         id="path919"
         inkscape:connector-curvature="0" />
      <path
         style="fill:#687201;stroke-width:0.26458332"
         d="m 39.109343,173.70165 c 0,-19.10271 -0.03451,-18.66452 1.766444,-22.43253 0.68657,-1.43647 1.47039,-2.49504 2.9573,-3.99391 2.393631,-2.41289 4.686475,-3.76919 7.630331,-4.51363 2.051527,-0.51879 2.808201,-0.52954 32.245771,-0.45836 l 30.144951,0.0729 1.92191,0.71289 c 2.97281,1.10269 4.51225,2.04749 6.39732,3.92621 2.76298,2.75368 4.18661,5.56097 4.77654,9.419 0.17763,1.16166 0.25174,7.68234 0.20558,18.08836 l -0.0722,16.27187 -43.986976,0.0669 -43.986981,0.0669 z m 87.248337,-0.19157 c 0.0751,-18.46096 0.0932,-18.2133 -1.58296,-21.65095 -1.77743,-3.6454 -5.268,-6.73879 -9.09407,-8.05929 l -1.82651,-0.63039 H 83.030178 52.206219 l -1.783702,0.69396 c -3.9752,1.54656 -6.929857,4.10781 -8.744445,7.58013 -1.963405,3.7571 -1.876137,2.81062 -1.977468,21.44695 -0.06851,12.59949 -0.01367,16.84975 0.221037,17.13256 0.267881,0.32278 6.413697,0.36662 43.340029,0.30917 l 43.02788,-0.0669 z M 76.812469,137.59914 c -3.373321,-0.6277 -5.713261,-1.34074 -8.717539,-2.65645 -9.015326,-3.94822 -16.039095,-11.49917 -19.071129,-20.50255 -1.448705,-4.30181 -1.71292,-6.02616 -1.70778,-11.14547 0.005,-5.004442 0.250959,-6.650134 1.612902,-10.792921 1.606973,-4.888121 4.049253,-8.841124 7.920854,-12.820463 5.46377,-5.615815 11.457571,-8.874591 19.217615,-10.448447 5.66024,-1.147983 10.540254,-0.994208 16.405445,0.516957 8.229573,2.120347 14.768413,6.513554 19.962653,13.412177 2.34066,3.10869 4.76853,8.091752 5.72367,11.747497 0.67997,2.602497 0.71819,3.067174 0.70514,8.57249 -0.0129,5.45981 -0.0578,5.98381 -0.723,8.44862 -0.88788,3.2898 -3.38547,8.49709 -5.43977,11.34155 -3.52629,4.88262 -9.41434,9.54004 -15.088931,11.93526 -4.723035,1.99358 -7.67774,2.57551 -13.656379,2.68964 -3.680175,0.0703 -5.594202,-0.01 -7.143751,-0.29789 z m 13.229168,-0.94784 c 7.348458,-1.45214 13.189223,-4.5497 18.388543,-9.75208 5.30794,-5.31107 8.50156,-11.52642 9.65331,-18.78706 2.46347,-15.529609 -7.33723,-31.231763 -22.926328,-36.731341 -7.646122,-2.697426 -17.020294,-2.64637 -24.430109,0.133058 -8.507481,3.191163 -15.40204,9.281389 -19.341797,17.085343 -2.484679,4.921702 -3.716424,10.612809 -3.45018,15.94107 0.254521,5.09366 1.156653,8.67648 3.331023,13.22917 6.729197,14.08958 22.980391,22.00313 38.775538,18.88184 z M 79.458303,116.69305 c -0.291042,-0.0657 -1.184011,-0.25004 -1.984375,-0.40966 -3.235473,-0.64531 -7.106595,-2.46105 -10.233605,-4.80005 -1.725126,-1.2904 -2.314011,-2.13799 -1.953474,-2.81166 0.542409,-1.0135 1.271992,-0.85343 3.001682,0.65856 2.186805,1.91157 5.687729,3.69052 8.833041,4.48839 3.373435,0.85575 8.376039,0.90143 11.72944,0.10712 3.023166,-0.71608 7.209919,-2.8142 9.2524,-4.63667 1.760971,-1.57128 2.086898,-1.68498 2.745138,-0.95764 0.6955,0.76851 0.5261,1.24508 -0.852971,2.39971 -2.488054,2.08312 -5.699927,3.88 -8.806511,4.92682 -2.897529,0.97637 -3.138953,1.01318 -7.100557,1.08262 -2.255573,0.0395 -4.339166,0.0182 -4.630208,-0.0475 z m -8.341178,-14.89698 c -0.949571,-0.94958 -1.20791,-1.928028 -0.781105,-2.958424 0.467122,-1.127731 1.47833,-1.837981 2.6168,-1.837981 1.212554,0 2.087129,0.602927 2.577711,1.777061 1.131134,2.707174 -2.346452,5.086294 -4.413406,3.019344 z m 20.746993,0.50053 c -0.896882,-0.36238 -1.69019,-1.57378 -1.69019,-2.58095 0,-1.287669 1.428316,-2.715985 2.715985,-2.715985 1.930517,0 3.33868,2.237449 2.467923,3.921315 -0.686261,1.32708 -2.168967,1.91088 -3.493718,1.37562 z"
         id="path917"
         inkscape:connector-curvature="0" />
      <path
         style="fill:#45463a;stroke-width:0.26458332"
         d="m 39.109343,173.70165 c 0,-19.10271 -0.03451,-18.66452 1.766444,-22.43253 0.68657,-1.43647 1.47039,-2.49504 2.9573,-3.99391 2.393631,-2.41289 4.686475,-3.76919 7.630331,-4.51363 2.051527,-0.51879 2.808201,-0.52954 32.245771,-0.45836 l 30.144951,0.0729 1.92191,0.71289 c 2.97281,1.10269 4.51225,2.04749 6.39732,3.92621 2.76298,2.75368 4.18661,5.56097 4.77654,9.419 0.17763,1.16166 0.25174,7.68234 0.20558,18.08836 l -0.0722,16.27187 -43.986976,0.0669 -43.986981,0.0669 z M 126.564,189.79102 c 0.0837,-0.3336 0.10813,-7.98337 0.0542,-16.99948 -0.10838,-18.12721 -0.045,-17.418 -1.89194,-21.15741 -1.73188,-3.50637 -5.0264,-6.40928 -8.88778,-7.83132 l -1.71979,-0.63336 H 83.030178 51.941635 l -1.845209,0.73806 c -1.014865,0.40593 -2.406974,1.09854 -3.093576,1.53913 -1.972069,1.26548 -4.547818,4.18176 -5.62277,6.36615 -1.705505,3.46573 -1.731861,3.79861 -1.736976,21.93809 -0.0025,8.96165 0.07478,16.37329 0.171795,16.47031 0.09701,0.097 19.620996,0.17639 43.386626,0.17639 H 126.41177 Z M 76.812469,137.59914 c -3.373321,-0.6277 -5.713261,-1.34074 -8.717539,-2.65645 -9.015326,-3.94822 -16.039095,-11.49917 -19.071129,-20.50255 -1.448705,-4.30181 -1.71292,-6.02616 -1.70778,-11.14547 0.005,-5.004442 0.250959,-6.650134 1.612902,-10.792921 1.606973,-4.888121 4.049253,-8.841124 7.920854,-12.820463 5.46377,-5.615815 11.457571,-8.874591 19.217615,-10.448447 5.66024,-1.147983 10.540254,-0.994208 16.405445,0.516957 8.229573,2.120347 14.768413,6.513554 19.962653,13.412177 2.34066,3.10869 4.76853,8.091752 5.72367,11.747497 0.67997,2.602497 0.71819,3.067174 0.70514,8.57249 -0.0129,5.45981 -0.0578,5.98381 -0.723,8.44862 -0.88788,3.2898 -3.38547,8.49709 -5.43977,11.34155 -3.52629,4.88262 -9.41434,9.54004 -15.088931,11.93526 -4.723035,1.99358 -7.67774,2.57551 -13.656379,2.68964 -3.680175,0.0703 -5.594202,-0.01 -7.143751,-0.29789 z m 12.972847,-0.78275 c 2.97479,-0.60452 8.157369,-2.37028 10.117702,-3.44721 6.891772,-3.78607 11.881982,-8.87323 15.128442,-15.42237 4.53135,-9.14117 4.57697,-19.632129 0.12617,-29.016936 -3.11169,-6.561196 -9.81714,-13.130275 -16.603048,-16.265372 -5.769465,-2.6655 -12.160007,-3.767598 -18.583038,-3.204787 -18.736523,1.641768 -32.847974,17.076815 -32.04888,35.054935 0.287737,6.47354 1.968145,11.83561 5.302655,16.92042 5.691805,8.67946 15.049435,14.44034 25.617484,15.771 2.652543,0.334 8.386138,0.12981 10.942513,-0.38968 z M 79.061428,116.53562 c -4.039894,-0.56959 -9.417111,-3.00901 -12.303477,-5.58159 -1.452595,-1.29467 -1.73663,-1.92509 -1.137357,-2.52437 0.535506,-0.5355 0.938554,-0.37142 2.791053,1.13624 2.303817,1.87497 5.952847,3.68271 8.797697,4.3584 3.184978,0.75647 8.969352,0.75459 11.99446,-0.004 3.008316,-0.75429 6.603789,-2.58831 8.798778,-4.4882 1.005752,-0.87053 1.959014,-1.58319 2.118358,-1.58369 0.3455,-0.001 1.16549,0.85936 1.16549,1.22299 0,0.69072 -3.431981,3.39891 -6.106934,4.819 -4.823915,2.56096 -10.318986,3.46276 -16.118068,2.64514 z m -7.572203,-14.48495 c -1.664793,-1.01515 -1.674937,-3.52451 -0.01834,-4.534612 1.931472,-1.1777 4.132154,-0.0028 4.145066,2.21298 0.0075,1.282452 -0.3395,1.924502 -1.311736,2.427262 -1.02879,0.53201 -1.81787,0.5024 -2.815,-0.10563 z m 20.328446,0.11263 c -2.252697,-0.99431 -1.88119,-4.435369 0.544205,-5.040702 1.614533,-0.402955 3.103719,0.90628 3.103719,2.728675 0,1.846227 -1.930781,3.069937 -3.647924,2.312027 z"
         id="path915"
         inkscape:connector-curvature="0" />
      <path
         style="fill:#5b6401;stroke-width:0.26458332"
         d="m 39.109343,173.78966 c 0,-16.51271 0.01994,-17.20904 0.547227,-19.11183 0.834672,-3.01201 2.223065,-5.42341 4.343425,-7.54377 2.243931,-2.24393 4.715717,-3.61021 7.899202,-4.36629 2.227208,-0.52896 2.861245,-0.53815 31.981307,-0.46383 l 29.709046,0.0758 2.26922,0.82558 c 2.75077,1.00077 4.13136,1.84623 6.13563,3.75744 1.81224,1.72809 3.38328,4.12503 4.2183,6.43583 l 0.60602,1.67708 0.0766,17.92552 0.0766,17.92552 H 83.040624 39.109343 Z M 126.564,189.79102 c 0.0837,-0.3336 0.10813,-7.98337 0.0542,-16.99948 -0.10838,-18.12721 -0.045,-17.418 -1.89194,-21.15741 -1.73188,-3.50637 -5.0264,-6.40928 -8.88778,-7.83132 l -1.71979,-0.63336 H 83.030178 51.941635 l -1.845209,0.73806 c -1.014865,0.40593 -2.406974,1.09854 -3.093576,1.53913 -1.972069,1.26548 -4.547818,4.18176 -5.62277,6.36615 -1.705505,3.46573 -1.731861,3.79861 -1.736976,21.93809 -0.0025,8.96165 0.07478,16.37329 0.171795,16.47031 0.09701,0.097 19.620996,0.17639 43.386626,0.17639 H 126.41177 Z M 78.496468,137.7543 c -8.349834,-1.06435 -15.383964,-4.51807 -21.272111,-10.4445 -4.968026,-5.00032 -8.027389,-10.7064 -9.512752,-17.74243 -0.546415,-2.58831 -0.534492,-9.822407 0.02062,-12.512714 1.399714,-6.783569 4.40379,-12.497765 9.149375,-17.40346 6.129739,-6.336547 13.839159,-9.966109 23.320347,-10.97912 7.816813,-0.835181 17.334699,1.770968 24.218103,6.631304 6.83057,4.823028 11.99819,12.445511 13.86925,20.457794 0.82537,3.534439 0.8251,11.643666 -5.3e-4,15.179366 -1.48575,6.36272 -4.53686,11.71884 -9.46672,16.6185 -5.11238,5.08106 -11.424178,8.43373 -18.436386,9.79296 -2.558465,0.49592 -9.351481,0.72578 -11.889206,0.4023 z m 11.288848,-0.93791 c 2.97479,-0.60452 8.157369,-2.37028 10.117702,-3.44721 6.891772,-3.78607 11.881982,-8.87323 15.128442,-15.42237 4.53135,-9.14117 4.57697,-19.632129 0.12617,-29.016936 -3.11169,-6.561196 -9.81714,-13.130275 -16.603048,-16.265372 -5.769465,-2.6655 -12.160007,-3.767598 -18.583038,-3.204787 -18.736523,1.641768 -32.847974,17.076815 -32.04888,35.054935 0.287737,6.47354 1.968145,11.83561 5.302655,16.92042 5.691805,8.67946 15.049435,14.44034 25.617484,15.771 2.652543,0.334 8.386138,0.12981 10.942513,-0.38968 z M 79.061428,116.53562 c -4.039894,-0.56959 -9.417111,-3.00901 -12.303477,-5.58159 -1.452595,-1.29467 -1.73663,-1.92509 -1.137357,-2.52437 0.535506,-0.5355 0.938554,-0.37142 2.791053,1.13624 2.303817,1.87497 5.952847,3.68271 8.797697,4.3584 3.184978,0.75647 8.969352,0.75459 11.99446,-0.004 3.008316,-0.75429 6.603789,-2.58831 8.798778,-4.4882 1.005752,-0.87053 1.959014,-1.58319 2.118358,-1.58369 0.3455,-0.001 1.16549,0.85936 1.16549,1.22299 0,0.69072 -3.431981,3.39891 -6.106934,4.819 -4.823915,2.56096 -10.318986,3.46276 -16.118068,2.64514 z m -7.572203,-14.48495 c -1.664793,-1.01515 -1.674937,-3.52451 -0.01834,-4.534612 1.931472,-1.1777 4.132154,-0.0028 4.145066,2.21298 0.0075,1.282452 -0.3395,1.924502 -1.311736,2.427262 -1.02879,0.53201 -1.81787,0.5024 -2.815,-0.10563 z m 20.328446,0.11263 c -2.252697,-0.99431 -1.88119,-4.435369 0.544205,-5.040702 1.614533,-0.402955 3.103719,0.90628 3.103719,2.728675 0,1.846227 -1.930781,3.069937 -3.647924,2.312027 z"
         id="path913"
         inkscape:connector-curvature="0" />
      <path
         style="fill:#494f02;stroke-width:0.26458332"
         d="m 39.109343,173.78966 c 0,-16.51271 0.01994,-17.20904 0.547227,-19.11183 0.834672,-3.01201 2.223065,-5.42341 4.343425,-7.54377 2.243931,-2.24393 4.715717,-3.61021 7.899202,-4.36629 2.227208,-0.52896 2.861245,-0.53815 31.981307,-0.46383 l 29.709046,0.0758 2.26922,0.82558 c 2.75077,1.00077 4.13136,1.84623 6.13563,3.75744 1.81224,1.72809 3.38328,4.12503 4.2183,6.43583 l 0.60602,1.67708 0.0766,17.92552 0.0766,17.92552 H 83.040624 39.109343 Z m 87.514167,0.33604 c 0.0571,-13.28883 8e-4,-16.50413 -0.3187,-18.20348 -1.0745,-5.71451 -5.4866,-10.64315 -11.12776,-12.43052 l -1.85208,-0.58683 h -30.1625 c -28.534732,0 -30.248173,0.0263 -31.750001,0.48675 -5.178002,1.58766 -9.387317,5.57807 -11.048973,10.47437 -0.582843,1.71744 -0.591067,1.94913 -0.666865,18.78786 -0.04221,9.37694 -0.01662,17.20566 0.05686,17.39715 0.109842,0.28624 7.840161,0.33625 43.467125,0.28122 l 43.333524,-0.0669 z M 78.496468,137.7543 c -8.349834,-1.06435 -15.383964,-4.51807 -21.272111,-10.4445 -4.968026,-5.00032 -8.027389,-10.7064 -9.512752,-17.74243 -0.546415,-2.58831 -0.534492,-9.822407 0.02062,-12.512714 1.399714,-6.783569 4.40379,-12.497765 9.149375,-17.40346 6.129739,-6.336547 13.839159,-9.966109 23.320347,-10.97912 7.816813,-0.835181 17.334699,1.770968 24.218103,6.631304 6.83057,4.823028 11.99819,12.445511 13.86925,20.457794 0.82537,3.534439 0.8251,11.643666 -5.3e-4,15.179366 -1.48575,6.36272 -4.53686,11.71884 -9.46672,16.6185 -5.11238,5.08106 -11.424178,8.43373 -18.436386,9.79296 -2.558465,0.49592 -9.351481,0.72578 -11.889206,0.4023 z m 10.374064,-0.69614 c 13.444258,-2.27888 23.952108,-11.14459 28.122698,-23.72775 2.00594,-6.0522 2.00594,-13.909292 0,-19.961486 -3.97813,-12.002467 -13.77989,-20.703258 -26.360602,-23.39966 -3.860784,-0.827475 -11.0329,-0.825031 -14.940317,0.0051 -7.015443,1.490416 -12.847826,4.619773 -17.815914,9.559102 -6.635004,6.596596 -10.035803,14.611039 -10.035803,23.650724 0,9.26394 3.337222,17.3031 9.904395,23.85908 5.393307,5.38411 11.599957,8.56359 19.596647,10.03875 2.676099,0.49366 8.547497,0.48152 11.528896,-0.0238 z M 79.98747,116.55217 c -3.773126,-0.3937 -7.885161,-1.93664 -11.377084,-4.26895 -2.928485,-1.95599 -3.784299,-3.05905 -2.989792,-3.85356 0.47825,-0.47825 1.129295,-0.38322 1.692013,0.24696 1.635808,1.83193 5.649863,4.06166 9.291286,5.16114 2.042388,0.61668 2.808023,0.7054 6.293993,0.72939 3.113247,0.0214 4.395854,-0.082 5.95012,-0.47969 3.666075,-0.93808 7.052469,-2.63212 9.343472,-4.67405 1.578219,-1.40665 2.378132,-1.61708 2.843262,-0.74799 0.25865,0.4833 0.15071,0.69237 -0.85371,1.65364 -3.305193,3.16318 -8.702325,5.61603 -13.749826,6.24893 -2.44865,0.30704 -3.371223,0.30477 -6.443734,-0.0158 z m -8.972315,-15.07489 c -0.944097,-1.122 -0.915001,-2.359742 0.0817,-3.475241 0.634458,-0.710078 0.95853,-0.858057 1.879161,-0.858057 0.920631,0 1.244703,0.147979 1.879161,0.858057 0.996696,1.115499 1.025792,2.353241 0.0817,3.475241 -0.590502,0.70177 -0.860954,0.81405 -1.960856,0.81405 -1.099902,0 -1.370354,-0.11228 -1.960856,-0.81405 z m 20.613982,0.49448 c -0.874337,-0.50143 -1.173356,-1.07612 -1.182212,-2.272141 -0.01175,-1.586431 0.849122,-2.435371 2.469582,-2.435371 0.99187,0 1.287914,0.129281 1.864111,0.814052 1.855875,2.20558 -0.664718,5.31962 -3.151481,3.89346 z"
         id="path911"
         inkscape:connector-curvature="0" />
      <path
         style="fill:#33342b;stroke-width:0.26458332"
         d="m 39.109343,173.78966 c 0,-16.51271 0.01994,-17.20904 0.547227,-19.11183 0.834672,-3.01201 2.223065,-5.42341 4.343425,-7.54377 2.243931,-2.24393 4.715717,-3.61021 7.899202,-4.36629 2.227208,-0.52896 2.861245,-0.53815 31.981307,-0.46383 l 29.709046,0.0758 2.26922,0.82558 c 2.75077,1.00077 4.13136,1.84623 6.13563,3.75744 1.81224,1.72809 3.38328,4.12503 4.2183,6.43583 l 0.60602,1.67708 0.0766,17.92552 0.0766,17.92552 H 83.040624 39.109343 Z m 87.259587,16.555 c 0.43376,-0.43376 0.45651,-32.99068 0.0243,-34.82106 -0.46807,-1.98242 -2.47705,-5.88427 -3.79987,-7.38015 -1.57399,-1.77992 -4.64769,-3.82588 -6.93323,-4.61501 l -1.806,-0.62357 H 83.16247 52.470802 l -2.051695,0.75488 c -3.977568,1.46345 -7.107439,4.16173 -8.995828,7.75534 -1.816436,3.45668 -1.784769,3.06722 -1.784769,21.9504 0,13.34283 0.07097,17.01662 0.330729,17.12144 0.181901,0.0734 19.624808,0.14285 43.20646,0.15434 33.018381,0.0161 42.948731,-0.0521 43.193231,-0.29661 z M 78.496468,137.7543 c -8.349834,-1.06435 -15.383964,-4.51807 -21.272111,-10.4445 -4.968026,-5.00032 -8.027389,-10.7064 -9.512752,-17.74243 -0.546415,-2.58831 -0.534492,-9.822407 0.02062,-12.512714 1.399714,-6.783569 4.40379,-12.497765 9.149375,-17.40346 6.129739,-6.336547 13.839159,-9.966109 23.320347,-10.97912 7.816813,-0.835181 17.334699,1.770968 24.218103,6.631304 6.83057,4.823028 11.99819,12.445511 13.86925,20.457794 0.82537,3.534439 0.8251,11.643666 -5.3e-4,15.179366 -1.48575,6.36272 -4.53686,11.71884 -9.46672,16.6185 -5.11238,5.08106 -11.424178,8.43373 -18.436386,9.79296 -2.558465,0.49592 -9.351481,0.72578 -11.889206,0.4023 z m 10.751419,-0.70367 c 2.788549,-0.46053 7.822514,-2.08105 10.221616,-3.2905 3.250657,-1.63875 6.170857,-3.79374 9.110267,-6.72304 5.32291,-5.30457 8.29122,-10.99929 9.64718,-18.50818 0.95009,-5.26128 0.54277,-9.909122 -1.37541,-15.694551 -3.81066,-11.493343 -13.81165,-20.270141 -26.148445,-22.947681 -3.119184,-0.676979 -9.594147,-0.82159 -13.170453,-0.294147 -9.569562,1.411343 -17.974514,6.56583 -23.700994,14.535057 -7.993779,11.124502 -8.151898,26.604672 -0.3875,37.936992 1.857172,2.71059 5.786048,6.7572 8.359799,8.61032 8.024914,5.77798 17.597558,8.00188 27.44394,6.37573 z M 78.468023,116.3202 c -4.251862,-0.76618 -9.574798,-3.38318 -12.179721,-5.98811 -1.116312,-1.11631 -1.216671,-1.54826 -0.45448,-1.95618 0.451906,-0.24185 0.795732,-0.0706 2.315104,1.15337 4.457023,3.59033 9.177954,5.19747 15.267475,5.19747 5.403162,0 11.171217,-2.036 14.707624,-5.19148 1.653159,-1.47508 2.043565,-1.64236 2.580325,-1.10561 0.56321,0.56322 0.34201,1.13752 -0.806984,2.09517 -3.022087,2.51884 -5.410176,3.8151 -9.460302,5.1351 -2.009595,0.65496 -2.695641,0.74064 -6.480844,0.80945 -2.328334,0.0423 -4.798023,-0.0248 -5.488197,-0.14918 z m -7.166285,-14.5695 c -1.462206,-1.15017 -1.110826,-3.433553 0.661718,-4.300074 0.884232,-0.432263 1.056881,-0.439541 1.915536,-0.08077 1.134178,0.47389 1.905418,1.856499 1.635492,2.931964 -0.462287,1.8419 -2.724144,2.61982 -4.212746,1.44888 z m 19.910172,-0.23277 c -0.572588,-0.57258 -0.773398,-1.02441 -0.773398,-1.74014 0,-2.12348 2.644902,-3.332276 4.102309,-1.874869 1.270243,1.270243 1.062932,3.235979 -0.42227,4.004009 -1.148667,0.594 -2.043385,0.47426 -2.906641,-0.389 z"
         id="path909"
         inkscape:connector-curvature="0" />
      <path
         style="fill:#3d4205;stroke-width:0.26458332"
         d="m 39.22237,190.57507 c -0.07422,-0.19342 -0.09802,-8.08131 -0.05288,-17.52864 l 0.08207,-17.17698 0.615526,-1.71107 c 2.145873,-5.96521 6.048046,-9.79608 11.34205,-11.13482 2.027047,-0.5126 2.882224,-0.52457 32.495707,-0.45486 23.171867,0.0545 30.539867,0.14761 30.943037,0.39084 0.44716,0.26978 0.36516,0.29028 -0.52917,0.13229 -0.58208,-0.10283 -14.690986,-0.18696 -31.353122,-0.18696 H 52.470802 l -2.051695,0.75488 c -3.977568,1.46345 -7.107439,4.16173 -8.995828,7.75534 -1.816382,3.45658 -1.784769,3.06789 -1.784769,21.94414 0,15.24104 0.0429,16.99819 0.418515,17.14233 0.230183,0.0883 19.682323,0.1606 43.226978,0.1606 35.509307,0 42.858757,-0.0606 43.103427,-0.35541 0.20825,-0.25092 0.3156,-5.20959 0.36517,-16.86718 l 0.0702,-16.51178 0.0641,16.99948 0.0641,16.99947 H 83.154167 c -36.184392,0 -43.820304,-0.0611 -43.931797,-0.35167 z m 87.08064,-35.30093 c -0.0977,-0.5457 -0.71537,-2.10668 -1.37249,-3.46884 -1.39703,-2.89592 -3.65557,-5.34786 -6.45265,-7.00518 -0.94233,-0.55835 -1.41566,-0.92791 -1.05186,-0.82125 2.97653,0.87268 7.20886,5.32976 8.46363,8.91308 0.53527,1.52859 0.93096,3.37438 0.72339,3.37438 -0.0728,0 -0.21227,-0.44649 -0.31002,-0.99219 z M 75.224969,137.069 c -10.215515,-2.21492 -18.600061,-8.37183 -23.76012,-17.44746 -2.082643,-3.663 -4.603288,-12.16463 -4.017589,-13.55053 0.131415,-0.31095 0.321924,0.34138 0.557471,1.90886 0.767364,5.10655 2.678395,10.05494 5.439417,14.08471 1.857172,2.71059 5.786048,6.7572 8.359799,8.61032 5.235499,3.76959 11.768176,6.22841 18.051231,6.79427 l 2.248958,0.20254 -1.984375,0.0142 c -1.154292,0.008 -3.201831,-0.24981 -4.894792,-0.61687 z m 11.112501,0.41633 c 8.938321,-0.97186 16.11697,-4.344 22.2423,-10.44824 5.23612,-5.21808 8.20006,-10.84384 9.66251,-18.34014 l 0.50122,-2.56916 -0.12803,1.85208 c -0.29292,4.2373 -2.56357,10.1025 -5.66296,14.62774 -1.94961,2.8465 -6.2357,7.08874 -9.13818,9.04469 -5.105015,3.4402 -11.730417,5.77222 -16.947694,5.96527 l -2.645833,0.0979 z M 78.468023,116.3202 c -4.251862,-0.76618 -9.574798,-3.38318 -12.179721,-5.98811 -1.116312,-1.11631 -1.216671,-1.54826 -0.45448,-1.95618 0.451906,-0.24185 0.795732,-0.0706 2.315104,1.15337 4.457023,3.59033 9.177954,5.19747 15.267475,5.19747 5.403162,0 11.171217,-2.036 14.707624,-5.19148 1.653159,-1.47508 2.043565,-1.64236 2.580325,-1.10561 0.56321,0.56322 0.34201,1.13752 -0.806984,2.09517 -3.022087,2.51884 -5.410176,3.8151 -9.460302,5.1351 -2.009595,0.65496 -2.695641,0.74064 -6.480844,0.80945 -2.328334,0.0423 -4.798023,-0.0248 -5.488197,-0.14918 z m 40.373357,-12.97054 c 0,-1.23692 0.0456,-1.74294 0.10128,-1.12447 0.0557,0.61846 0.0557,1.63049 0,2.24895 -0.0557,0.61847 -0.10128,0.11245 -0.10128,-1.12448 z m -71.529953,0 c 0,-0.7276 0.119062,-1.32291 0.264583,-1.32291 0.145521,0 0.264584,0.59531 0.264584,1.32291 0,0.72761 -0.119063,1.32292 -0.264584,1.32292 -0.145521,0 -0.264583,-0.59531 -0.264583,-1.32292 z m 23.990311,-1.59896 c -1.462206,-1.15017 -1.110826,-3.433553 0.661718,-4.300074 0.884232,-0.432263 1.056881,-0.439541 1.915536,-0.08077 1.134178,0.47389 1.905418,1.856499 1.635492,2.931964 -0.462287,1.8419 -2.724144,2.61982 -4.212746,1.44888 z m 19.910172,-0.23277 c -0.572588,-0.57258 -0.773398,-1.02441 -0.773398,-1.74014 0,-2.12348 2.644902,-3.332276 4.102309,-1.874869 1.270243,1.270243 1.062932,3.235979 -0.42227,4.004009 -1.148667,0.594 -2.043385,0.47426 -2.906641,-0.389 z M 47.47795,100.52591 C 47.184806,99.635135 47.784148,96.684306 49.053996,92.766332 53.665673,78.53752 67.569325,68.68925 83.045691,68.68925 c 3.982206,0 6.470417,0.352007 10.31957,1.459909 5.811848,1.672825 11.538329,5.051295 15.716329,9.272207 5.18919,5.242502 9.14541,13.302561 9.53724,19.430382 l 0.10997,1.719792 -0.39704,-2.244778 C 115.81966,84.124281 105.00341,72.990377 90.703095,69.886678 87.583911,69.209699 81.108948,69.065088 77.532642,69.592531 62.242149,71.847611 50.204275,83.726077 48.014836,98.719457 c -0.242618,1.661463 -0.404905,2.207503 -0.536886,1.806453 z"
         id="path907"
         inkscape:connector-curvature="0" />
      <path
         style="fill:#343806;stroke-width:0.26458332"
         d="m 39.22237,190.57507 c -0.07422,-0.19342 -0.100119,-8.08131 -0.05755,-17.52864 0.05965,-13.23792 0.154473,-17.32866 0.413492,-17.83843 0.332397,-0.65419 0.334115,-0.65273 0.156219,0.13229 -0.323143,1.42597 -0.416863,34.19321 -0.0995,34.78622 0.286037,0.53446 0.38288,0.53565 43.523594,0.53565 40.898885,0 43.251505,-0.025 43.506605,-0.46302 0.24084,-0.41351 0.27054,-0.39936 0.27773,0.13229 l 0.008,0.59531 H 83.154167 c -36.184392,0 -43.820304,-0.0611 -43.931797,-0.35167 z m 87.48495,-33.14016 c 0.0127,-0.30823 0.0754,-0.37092 0.15985,-0.15986 0.0764,0.191 0.067,0.4192 -0.0209,0.50712 -0.0879,0.0879 -0.15045,-0.0684 -0.13896,-0.34726 z m -0.26459,-1.85209 c 0.0127,-0.30822 0.0754,-0.37092 0.15986,-0.15985 0.0764,0.19099 0.067,0.4192 -0.0209,0.50712 -0.0879,0.0879 -0.15045,-0.0684 -0.13896,-0.34727 z m -0.52221,-1.72555 c -0.98052,-3.31946 -4.39358,-7.46384 -7.56847,-9.19017 -0.87312,-0.47475 -1.28984,-0.78019 -0.92604,-0.67874 1.92241,0.53605 5.12788,3.22806 6.75102,5.66962 1.18997,1.78997 2.36378,4.53166 2.17834,5.08799 -0.0503,0.15076 -0.24594,-0.24915 -0.43485,-0.8887 z m -85.994779,0.29239 c -0.008,-0.21828 0.100872,-0.57547 0.241936,-0.79375 0.312558,-0.48365 0.312558,-0.0659 0,0.66146 -0.149935,0.34892 -0.232345,0.39398 -0.241936,0.13229 z m 0.51357,-1.39661 c -0.01691,-0.49405 1.635148,-3.34343 2.620374,-4.51948 2.099183,-2.50575 5.102958,-4.43291 8.106833,-5.20117 1.988601,-0.5086 2.952072,-0.52346 31.972129,-0.4931 16.456956,0.0172 30.272083,0.10651 30.700283,0.19844 0.4282,0.0919 -13.32352,0.16713 -30.559374,0.16713 H 51.941635 l -2.116666,0.90351 c -1.164167,0.49693 -2.596965,1.2291 -3.183995,1.62704 -1.629005,1.10428 -4.388894,4.17409 -5.341767,5.94163 -0.469065,0.87009 -0.856018,1.4893 -0.859896,1.376 z M 75.224969,137.069 c -10.215515,-2.21492 -18.600061,-8.37183 -23.76012,-17.44746 -1.843643,-3.24264 -4.153422,-10.55094 -4.153422,-13.14172 0,-1.14605 0.471631,-0.12414 0.6434,1.39409 0.344709,3.04683 1.436797,6.62185 3.017351,9.8775 4.186028,8.62244 11.608151,15.07978 20.67885,17.99085 3.251994,1.04366 5.204267,1.47063 7.939567,1.73641 l 1.984375,0.19281 -1.719792,0.0143 c -0.945886,0.008 -3.029479,-0.26969 -4.630209,-0.61676 z m 11.906251,0.39074 c 9.240806,-1.13698 17.71307,-5.56472 23.24781,-12.14966 4.14524,-4.93178 6.38505,-9.49011 7.73544,-15.74271 0.51523,-2.38563 0.60366,-2.61918 0.49044,-1.29526 -0.3528,4.12524 -2.65049,9.95259 -5.6524,14.3355 -1.94961,2.8465 -6.2357,7.08874 -9.13818,9.04469 -4.886056,3.29265 -11.655995,5.73131 -16.550819,5.96192 l -2.248958,0.10596 z m -8.559224,-21.16271 c -4.229084,-0.74877 -9.965555,-3.59142 -12.4504,-6.16968 -0.758709,-0.78723 -0.847759,-0.99967 -0.562917,-1.34288 0.524658,-0.63218 0.9617,-0.49985 2.507504,0.75923 4.426328,3.60529 9.01423,5.17934 15.096287,5.17934 6.228821,0 10.943452,-1.67086 15.359068,-5.44324 1.440283,-1.23047 2.076382,-1.36158 2.408382,-0.49638 0.32282,0.84126 -2.926738,3.48734 -6.446374,5.2492 -3.508393,1.75623 -6.030957,2.33912 -10.527326,2.43255 -2.182813,0.0454 -4.605714,-0.0303 -5.384224,-0.16814 z m 40.269384,-12.94737 c 0,-1.23692 0.0456,-1.74294 0.10128,-1.12447 0.0557,0.61846 0.0557,1.63049 0,2.24895 -0.0557,0.61847 -0.10128,0.11245 -0.10128,-1.12448 z m -71.450667,0 c 0,-0.80036 0.0496,-1.12778 0.110223,-0.7276 0.06062,0.40018 0.06062,1.05503 0,1.45521 -0.06062,0.40018 -0.110223,0.0728 -0.110223,-0.72761 z m 24.093133,-1.44467 c -0.743024,-0.52043 -1.252538,-1.82955 -1.040649,-2.673782 0.615868,-2.453809 4.127273,-2.631167 4.913728,-0.248187 0.348081,1.054699 -0.160105,2.563189 -1.018204,3.022429 -0.757071,0.40517 -2.205768,0.3542 -2.854875,-0.10046 z m 20.104394,-0.12457 c -1.398924,-0.85301 -1.482077,-2.949886 -0.158271,-3.991191 1.223269,-0.962223 2.937126,-0.510966 3.633592,0.956726 0.530677,1.118317 0.307054,2.032705 -0.705477,2.884695 -0.941557,0.79227 -1.653056,0.83074 -2.769844,0.14977 z m -44.276813,-1.66185 c 0,-1.128733 0.899528,-4.890748 1.854884,-7.757516 C 53.800596,78.45479 67.77716,68.68925 83.045691,68.68925 c 3.982206,0 6.470417,0.352007 10.31957,1.459909 7.756679,2.232606 14.649279,7.065978 19.268549,13.511885 3.20846,4.477216 5.65928,10.640657 5.9878,15.058413 0.10526,1.415343 0.0752,1.346393 -0.27683,-0.635865 -0.80969,-4.558755 -2.83867,-9.55048 -5.49521,-13.519343 -1.81777,-2.715737 -6.1911,-7.114027 -8.95837,-9.009477 -10.457968,-7.16324 -23.472105,-8.452486 -35.190932,-3.486189 -7.731637,3.276574 -13.786759,8.968069 -17.581409,16.525595 -1.547849,3.082737 -2.501632,6.018639 -3.031524,9.331529 -0.308667,1.929788 -0.775908,3.250303 -0.775908,2.192863 z"
         id="path905"
         inkscape:connector-curvature="0" />
      <path
         style="fill:#282917;stroke-width:0.26458332"
         d="m 39.285732,190.75035 c -0.09701,-0.097 -0.147966,-7.74677 -0.113228,-16.99947 l 0.06316,-16.82309 0.135277,16.66099 0.135276,16.66098 0.661459,0.33459 0.661458,0.33459 -0.683507,0.004 c -0.375929,0.002 -0.762882,-0.0755 -0.859896,-0.17249 z m 8.507144,-0.0219 c 3.684537,-0.0415 9.637662,-0.0415 13.229167,9e-5 3.591505,0.0416 0.576884,0.0755 -6.699158,0.0755 -7.276041,-4e-5 -10.214546,-0.034 -6.530009,-0.0756 z m 36.626365,-1e-4 c 6.803099,-0.0393 17.935439,-0.0393 24.738539,0 6.8031,0.0393 1.23693,0.0714 -12.369268,0.0714 -13.606199,0 -19.172371,-0.0322 -12.369271,-0.0714 z m 39.558299,0.0112 c 0.32911,-0.0633 0.80536,-0.0609 1.05833,0.005 0.25296,0.0662 -0.0163,0.118 -0.5984,0.11506 -0.58208,-0.003 -0.78905,-0.0571 -0.45993,-0.1204 z m 1.91514,-0.002 c 0.21828,-0.0808 0.5457,-0.26459 0.7276,-0.40839 0.23612,-0.18666 0.33073,-0.13865 0.33073,0.16782 0,0.29697 -0.22424,0.42284 -0.7276,0.40838 -0.41471,-0.0119 -0.55693,-0.0841 -0.33073,-0.16781 z m -86.467173,-34.604 c 0.0054,-0.43657 0.06469,-0.58313 0.131774,-0.3257 0.06708,0.25743 0.06267,0.61462 -0.0098,0.79375 -0.07248,0.17913 -0.127362,-0.0315 -0.12197,-0.46805 z m 85.990533,-3.83023 c -0.3038,-0.73103 -0.4952,-1.32915 -0.42534,-1.32915 0.1768,0 1.20313,2.43288 1.07879,2.55722 -0.0556,0.0556 -0.34965,-0.49704 -0.65345,-1.22807 z m -83.817307,-2.05675 c 0.514847,-0.96969 2.288982,-3.07279 3.23349,-3.83305 1.664981,-1.34019 1.739579,-1.29661 0.209041,0.12212 -0.884788,0.82015 -2.065438,2.15433 -2.623666,2.96485 -1.100669,1.59813 -1.431085,1.89917 -0.818865,0.74608 z m 82.332587,-0.608 c -0.38983,-0.58906 -1.09026,-1.52399 -1.55652,-2.07763 -0.46626,-0.55363 -0.31196,-0.43808 0.34288,0.25677 1.08371,1.14993 2.30921,2.89188 2.03449,2.89188 -0.0617,0 -0.43103,-0.48196 -0.82085,-1.07102 z m -3.48774,-3.75763 -0.50403,-0.59531 0.59532,0.50403 c 0.32742,0.27721 0.59531,0.5451 0.59531,0.59531 0,0.21173 -0.21293,0.0554 -0.6866,-0.50403 z m -73.574334,-0.91888 c 0.220875,-0.35738 2.851124,-1.61491 3.749473,-1.79262 0.473927,-0.0938 0.207408,0.097 -0.661459,0.47337 -0.800364,0.34673 -1.855266,0.83827 -2.344225,1.09232 -0.48896,0.25405 -0.823665,0.35617 -0.743789,0.22693 z m 71.085934,-0.60247 c -0.23847,-0.15411 -0.2711,-0.2581 -0.0818,-0.26053 0.17331,-0.002 0.3887,0.11501 0.47863,0.26053 0.20302,0.32849 0.11143,0.32849 -0.39687,0 z m -66.195446,-1.50366 c 0.190996,-0.0764 0.4192,-0.067 0.507119,0.0209 0.08792,0.0879 -0.06835,0.15045 -0.347266,0.13896 -0.308225,-0.0127 -0.370919,-0.0754 -0.159853,-0.15985 z m 1.570964,-0.27057 c 0.327422,-0.0631 0.863203,-0.0631 1.190625,0 0.327422,0.0631 0.05953,0.11467 -0.595313,0.11467 -0.654843,0 -0.922734,-0.0516 -0.595312,-0.11467 z m 58.208332,0 c 0.32742,-0.0631 0.86321,-0.0631 1.19063,0 0.32742,0.0631 0.0595,0.11467 -0.59531,0.11467 -0.65485,0 -0.92274,-0.0516 -0.59532,-0.11467 z m -33.320962,-5.02109 c 0.190995,-0.0764 0.419198,-0.067 0.507119,0.0209 0.08792,0.0879 -0.06835,0.15046 -0.347265,0.13897 -0.308227,-0.0127 -0.37092,-0.0754 -0.159854,-0.15985 z m 9.243881,0.005 c 0.181901,-0.0734 0.479557,-0.0734 0.661458,0 0.181901,0.0734 0.03307,0.13345 -0.330729,0.13345 -0.363802,0 -0.51263,-0.06 -0.330729,-0.13345 z m 1.5875,-0.26458 c 0.181901,-0.0734 0.479557,-0.0734 0.661458,0 0.181901,0.0734 0.03307,0.13345 -0.330729,0.13345 -0.363802,0 -0.51263,-0.0601 -0.330729,-0.13345 z m 1.604037,-0.2701 c 0.190994,-0.0764 0.419197,-0.067 0.507118,0.0209 0.08792,0.0879 -0.06835,0.15045 -0.347265,0.13896 -0.308227,-0.0127 -0.37092,-0.0754 -0.159853,-0.15985 z M 74.249318,136.771 c 0.190995,-0.0764 0.419198,-0.067 0.507119,0.0209 0.08792,0.0879 -0.06835,0.15046 -0.347265,0.13897 -0.308227,-0.0127 -0.37092,-0.0754 -0.159854,-0.15985 z m 19.89336,-0.75714 c 1.527969,-0.49694 2.837657,-0.90116 2.910417,-0.89827 0.468839,0.0186 -1.568595,0.84405 -3.197834,1.29553 -2.973665,0.82405 -2.821606,0.61388 0.287417,-0.39726 z m -23.158263,-0.0863 c -1.168135,-0.41206 -2.477822,-0.95308 -2.910416,-1.20225 -0.432591,-0.24917 -0.548405,-0.36666 -0.257363,-0.26108 0.291042,0.10558 1.779323,0.64166 3.307292,1.1913 1.527968,0.54963 2.599531,1.00426 2.38125,1.01028 -0.218282,0.006 -1.352624,-0.32619 -2.520763,-0.73825 z m 26.597847,-1.09244 c 0.218281,-0.14107 0.515937,-0.25648 0.661458,-0.25648 0.145521,0 0.08599,0.11541 -0.132292,0.25648 -0.218281,0.14106 -0.515937,0.25648 -0.661458,0.25648 -0.145521,0 -0.08599,-0.11542 0.132292,-0.25648 z m -34.676153,-2.94247 c -4.836125,-3.23266 -8.473508,-7.10081 -11.313718,-12.0315 -0.983565,-1.7075 -2.167908,-4.34445 -2.161868,-4.81343 0.0014,-0.10375 0.640105,1.12105 1.419486,2.72178 0.779381,1.60072 2.161057,3.9483 3.070391,5.21682 2.74598,3.83066 7.741745,8.26279 11.44884,10.15716 1.218449,0.62264 1.526254,0.89789 1.004081,0.89789 -0.138978,0 -1.699223,-0.96692 -3.467212,-2.14872 z m 36.792819,2.0286 c 0,-0.072 0.386952,-0.32966 0.859892,-0.57263 2.44274,-1.25491 5.63186,-3.67922 8.13594,-6.18478 3.94407,-3.94639 6.34972,-7.71762 8.24235,-12.92117 0.56476,-1.55275 0.95308,-2.40646 0.86292,-1.89713 -0.41342,2.33551 -2.63813,7.02495 -4.90844,10.34643 -2.66,3.8916 -8.13391,8.7847 -12.06818,10.78767 -0.61847,0.31487 -1.124482,0.51359 -1.124482,0.44161 z M 80.119761,116.40742 c -4.01942,-0.60367 -7.518847,-1.82924 -10.451042,-3.66018 -2.703158,-1.68791 -4.145947,-2.99668 -4.049011,-3.67289 0.129495,-0.90336 0.973495,-0.83447 2.027827,0.16552 2.279878,2.16236 6.034162,4.09832 9.609993,4.95557 3.152664,0.7558 8.944914,0.74593 11.946141,-0.0204 3.638037,-0.92887 7.065677,-2.72546 9.624828,-5.04483 1.130869,-1.02491 1.734653,-1.10402 2.061063,-0.27003 0.22837,0.58351 -1.913529,2.48809 -4.676647,4.15847 -2.291074,1.38501 -6.316247,2.86092 -8.949402,3.28146 -1.631169,0.26052 -5.715058,0.32184 -7.14375,0.10726 z M 48.286589,111.6251 c -0.563993,-2.04516 -1.055549,-4.99888 -0.902176,-5.42109 0.06809,-0.18744 0.209843,0.13545 0.315009,0.71753 0.105166,0.58208 0.413552,2.18403 0.685302,3.55988 0.271751,1.37585 0.455685,2.53996 0.408744,2.5869 -0.04694,0.0469 -0.275037,-0.60251 -0.506879,-1.44322 z m 69.849691,-1.52336 c 0.089,-0.72474 0.25894,-1.61771 0.37761,-1.98437 0.13562,-0.41901 0.15565,-0.17716 0.0539,0.65105 -0.089,0.72474 -0.25893,1.61771 -0.37761,1.98438 -0.13561,0.419 -0.15565,0.17715 -0.0539,-0.65106 z m -70.745567,-6.75208 c 0,-0.80036 0.0496,-1.12778 0.110223,-0.7276 0.06062,0.40018 0.06062,1.05503 0,1.45521 -0.06062,0.40018 -0.110223,0.0728 -0.110223,-0.72761 z m 23.948596,-1.81897 c -0.695523,-0.62145 -0.846018,-0.94692 -0.822441,-1.778684 0.03622,-1.277733 1.244253,-2.487758 2.48367,-2.487758 1.181695,0 2.356723,1.253215 2.356723,2.513542 0,0.71573 -0.200811,1.16756 -0.773398,1.74014 -1.022266,1.02227 -2.109936,1.02655 -3.244554,0.0128 z m 20.516986,0.38426 c -1.854896,-0.82052 -1.673643,-3.734095 0.272251,-4.376297 1.154498,-0.381018 1.831281,-0.19345 2.536396,0.702958 0.71659,0.910992 0.690809,2.259529 -0.05924,3.098969 -0.756351,0.84647 -1.692278,1.042 -2.749404,0.57437 z M 47.45938,99.248623 c 0.204046,-1.743302 0.928643,-4.964723 1.082183,-4.811183 0.0665,0.0665 -0.07718,1.23575 -0.319283,2.598335 -0.504583,2.839853 -1.006786,4.296525 -0.7629,2.212848 z m 70.89267,-1.190625 c -0.10165,-0.601694 -0.12933,-1.149487 -0.0615,-1.217318 0.0678,-0.06783 0.20266,0.372808 0.29963,0.979193 0.097,0.606386 0.12464,1.154179 0.0615,1.217319 -0.0631,0.06314 -0.19797,-0.377499 -0.29963,-0.979194 z m -0.37598,-2.271006 c 0.0127,-0.308226 0.0754,-0.370919 0.15985,-0.159853 0.0764,0.190995 0.067,0.419198 -0.0209,0.507119 -0.0879,0.08792 -0.15045,-0.06835 -0.13896,-0.347266 z m -1.15631,-3.52139 c -1.72351,-4.925771 -4.27781,-8.921929 -8.23598,-12.885024 -4.98851,-4.994717 -11.774252,-8.522746 -18.816048,-9.782804 -3.79045,-0.678262 -10.181466,-0.625545 -13.864202,0.114361 -3.086973,0.620209 -3.96418,0.576954 -1.160229,-0.05721 3.258793,-0.737038 5.201237,-0.961649 8.333878,-0.963675 3.947067,-0.0026 6.442739,0.351105 10.288082,1.45791 9.589489,2.760146 17.693949,9.426176 22.103779,18.180687 1.17249,2.327649 2.58351,6.135174 2.43432,6.568789 -0.0443,0.12863 -0.53188,-1.056235 -1.0836,-2.633034 z m -66.982869,-1.88052 c 0.353491,-1.400016 3.515136,-6.525887 5.447008,-8.831054 3.941663,-4.703308 9.506692,-8.632647 14.995902,-10.588262 2.999796,-1.068724 2.871711,-0.796007 -0.214207,0.456086 -8.787707,3.56556 -14.726347,8.87045 -18.995253,16.968149 -0.770254,1.461097 -1.325307,2.358883 -1.23345,1.995081 z"
         id="path903"
         inkscape:connector-curvature="0" />
      <path
         style="fill:#262907;stroke-width:0.26458332"
         d="m 39.373927,190.38196 c 0,-0.15411 0.119062,-0.20661 0.264583,-0.11667 0.145521,0.0899 0.264583,0.21602 0.264583,0.28019 0,0.0642 -0.119062,0.11668 -0.264583,0.11668 -0.145521,0 -0.264583,-0.12609 -0.264583,-0.2802 z m 2.910416,-41.09469 c 0,-0.0549 0.20836,-0.2633 0.463021,-0.46302 0.419644,-0.32911 0.429003,-0.31975 0.0999,0.0999 -0.345643,0.44073 -0.562916,0.58089 -0.562916,0.36313 z m 1.852084,-2.14907 c 0.341774,-0.3638 0.680939,-0.66145 0.753699,-0.66145 0.07276,0 -0.147342,0.29765 -0.489116,0.66145 -0.341774,0.36381 -0.680939,0.66146 -0.753699,0.66146 -0.07276,0 0.147342,-0.29765 0.489116,-0.66146 z m 9.860765,-4.54897 c 0.257431,-0.0671 0.614618,-0.0627 0.79375,0.01 0.179131,0.0725 -0.03149,0.12736 -0.468057,0.12197 -0.436562,-0.005 -0.583124,-0.0647 -0.325693,-0.13177 z m 57.277258,0.008 c 0.1819,-0.0734 0.47956,-0.0734 0.66146,0 0.1819,0.0734 0.0331,0.13345 -0.33073,0.13345 -0.3638,0 -0.51263,-0.06 -0.33073,-0.13345 z M 59.977678,129.60956 c -0.329107,-0.41965 -0.319749,-0.429 0.0999,-0.0999 0.254662,0.19972 0.463021,0.40808 0.463021,0.46302 0,0.21777 -0.217272,0.0776 -0.562916,-0.36312 z m 46.203542,-0.0661 c 0.26339,-0.29104 0.53842,-0.52916 0.61118,-0.52916 0.0728,0 -0.0832,0.23812 -0.3466,0.52916 -0.26339,0.29105 -0.53842,0.52917 -0.61118,0.52917 -0.0728,0 0.0832,-0.23812 0.3466,-0.52917 z m -48.691617,-2.18281 -1.579217,-1.65364 1.653645,1.57921 c 1.536096,1.46696 1.774719,1.72808 1.579218,1.72808 -0.04093,0 -0.785076,-0.74414 -1.653646,-1.65365 z m 50.940577,0.23083 c 0,-0.0549 0.20836,-0.2633 0.46302,-0.46302 0.41964,-0.3291 0.429,-0.31975 0.0999,0.0999 -0.34565,0.44073 -0.56292,0.58089 -0.56292,0.36312 z m 2.51354,-2.81052 c 0.26339,-0.29104 0.53842,-0.52916 0.61118,-0.52916 0.0728,0 -0.0832,0.23812 -0.3466,0.52916 -0.26339,0.29105 -0.53842,0.52917 -0.61118,0.52917 -0.0728,0 0.0832,-0.23812 0.3466,-0.52917 z m 3.30729,-4.7625 c 0.15576,-0.29104 0.34274,-0.52916 0.4155,-0.52916 0.0728,0 0.005,0.23812 -0.15091,0.52916 -0.15576,0.29105 -0.34274,0.52917 -0.4155,0.52917 -0.0728,0 -0.005,-0.23812 0.15091,-0.52917 z m -34.131249,-3.61099 c -4.01942,-0.60367 -7.518847,-1.82924 -10.451042,-3.66018 -2.703158,-1.68791 -4.145947,-2.99668 -4.049011,-3.67289 0.129495,-0.90336 0.973495,-0.83447 2.027827,0.16552 2.279878,2.16236 6.034162,4.09832 9.609993,4.95557 3.152664,0.7558 8.944914,0.74593 11.946141,-0.0204 3.638037,-0.92887 7.065677,-2.72546 9.624828,-5.04483 1.130869,-1.02491 1.734653,-1.10402 2.061063,-0.27003 0.22837,0.58351 -1.913529,2.48809 -4.676647,4.15847 -2.291074,1.38501 -6.316247,2.86092 -8.949402,3.28146 -1.631169,0.26052 -5.715058,0.32184 -7.14375,0.10726 z m -31.993696,-6.06835 c 0.0127,-0.30822 0.07539,-0.37091 0.159853,-0.15985 0.07643,0.191 0.06703,0.4192 -0.02089,0.50712 -0.08792,0.0879 -0.150453,-0.0683 -0.138965,-0.34727 z m -0.233891,-1.30086 c 0.0054,-0.43657 0.06469,-0.58313 0.131773,-0.3257 0.06708,0.25743 0.06267,0.61462 -0.0098,0.79375 -0.07248,0.17913 -0.127363,-0.0315 -0.121971,-0.46805 z m 70.348476,-0.022 c 0.0127,-0.30823 0.0754,-0.37092 0.15985,-0.15986 0.0764,0.191 0.067,0.4192 -0.0209,0.50712 -0.0879,0.0879 -0.15046,-0.0683 -0.13897,-0.34726 z M 47.627591,107.4508 c 0.0054,-0.43657 0.06469,-0.58313 0.131773,-0.3257 0.06708,0.25743 0.06267,0.61462 -0.0098,0.79375 -0.07248,0.17913 -0.127363,-0.0315 -0.12197,-0.46805 z m 23.711718,-5.92002 c -0.695523,-0.62145 -0.846018,-0.94692 -0.822441,-1.778684 0.03622,-1.277733 1.244253,-2.487758 2.48367,-2.487758 1.181695,0 2.356723,1.253215 2.356723,2.513542 0,0.71573 -0.200811,1.16756 -0.773398,1.74014 -1.022266,1.02227 -2.109936,1.02655 -3.244554,0.0128 z m 20.516986,0.38426 c -1.854896,-0.82052 -1.673643,-3.734095 0.272251,-4.376297 1.154498,-0.381018 1.831281,-0.19345 2.536396,0.702958 0.71659,0.910992 0.690809,2.259529 -0.05924,3.098969 -0.756351,0.84647 -1.692278,1.042 -2.749404,0.57437 z M 47.627591,99.248623 c 0.0054,-0.436562 0.06469,-0.583125 0.131773,-0.325694 0.06708,0.257432 0.06267,0.614619 -0.0098,0.79375 -0.07248,0.179131 -0.127363,-0.03149 -0.12197,-0.468056 z m 0.254779,-1.719791 c 0,-0.363802 0.06005,-0.51263 0.133452,-0.330729 0.0734,0.181901 0.0734,0.479557 0,0.661458 -0.0734,0.181901 -0.133452,0.03307 -0.133452,-0.330729 z m 70.35828,0.110244 c 0.0127,-0.308227 0.0754,-0.37092 0.15985,-0.159854 0.0764,0.190995 0.067,0.419198 -0.0209,0.507119 -0.0879,0.08792 -0.15046,-0.06835 -0.13897,-0.347265 z M 48.126065,96.316159 c 0.0127,-0.308226 0.07539,-0.370919 0.159853,-0.159853 0.07643,0.190995 0.06703,0.419198 -0.02089,0.507119 -0.08792,0.08792 -0.150453,-0.06835 -0.138965,-0.347266 z m 68.406595,-4.75068 c -0.25532,-0.665347 -0.18,-0.837024 0.1319,-0.300657 0.15443,0.265576 0.22505,0.538602 0.15693,0.606724 -0.0681,0.06812 -0.1981,-0.06961 -0.28883,-0.306067 z M 50.486427,89.07778 c 0,-0.136932 0.117699,-0.32171 0.261553,-0.410616 0.149982,-0.09269 0.194338,0.01351 0.103984,0.248968 -0.175893,0.458369 -0.365537,0.542234 -0.365537,0.161648 z m 63.764583,-2.396864 c -0.15576,-0.291042 -0.22367,-0.529167 -0.15091,-0.529167 0.0728,0 0.25974,0.238125 0.4155,0.529167 0.15576,0.291041 0.22367,0.529166 0.15091,0.529166 -0.0728,0 -0.25974,-0.238125 -0.4155,-0.529166 z M 53.661427,83.670604 c 0,-0.05494 0.20836,-0.263301 0.463021,-0.46302 0.419644,-0.329108 0.429002,-0.31975 0.09989,0.09989 -0.345644,0.440729 -0.562916,0.580887 -0.562916,0.363126 z m 1.190625,-1.487605 c 0.263389,-0.291041 0.538421,-0.529166 0.611181,-0.529166 0.07276,0 -0.08321,0.238125 -0.346597,0.529166 -0.26339,0.291042 -0.538421,0.529167 -0.611181,0.529167 -0.07276,0 0.08321,-0.238125 0.346597,-0.529167 z m 55.925628,-0.463021 c -0.32911,-0.419644 -0.31975,-0.429002 0.0999,-0.09989 0.44073,0.345643 0.58089,0.562915 0.36313,0.562915 -0.0549,0 -0.2633,-0.208359 -0.46302,-0.463021 z M 57.497886,79.272583 c 1.01084,-1.018646 1.897422,-1.852084 1.970183,-1.852084 0.07276,0 -0.69476,0.833438 -1.7056,1.852084 -1.01084,1.018646 -1.897423,1.852083 -1.970183,1.852083 -0.07276,0 0.694759,-0.833437 1.7056,-1.852083 z m 51.187834,0.06615 -1.44617,-1.521355 1.52136,1.446171 c 0.83674,0.795393 1.52135,1.480002 1.52135,1.521354 0,0.196387 -0.253,-0.03278 -1.59654,-1.44617 z m -48.542001,-2.4474 c 0.263389,-0.291042 0.53842,-0.529167 0.611181,-0.529167 0.07276,0 -0.08321,0.238125 -0.346598,0.529167 -0.263389,0.291042 -0.53842,0.529166 -0.611181,0.529166 -0.07276,0 0.08321,-0.238124 0.346598,-0.529166 z m 45.871461,0.06615 c -0.32911,-0.419644 -0.31975,-0.429003 0.0999,-0.0999 0.44073,0.345643 0.58089,0.562915 0.36313,0.562915 -0.0549,0 -0.2633,-0.208359 -0.46302,-0.46302 z m -3.14125,-2.206453 c -0.56985,-0.466111 -0.58105,-0.501742 -0.0809,-0.257278 0.31932,0.15607 0.65376,0.402186 0.74322,0.546924 0.2388,0.386397 0.0784,0.31626 -0.66234,-0.289646 z M 63.715594,74.39641 c 0,-0.07276 0.238125,-0.259733 0.529167,-0.415494 0.291041,-0.15576 0.529166,-0.22367 0.529166,-0.15091 0,0.07276 -0.238125,0.259733 -0.529166,0.415494 -0.291042,0.15576 -0.529167,0.22367 -0.529167,0.15091 z m 2.910417,-1.640484 c 0,-0.176768 2.953102,-1.466351 3.076141,-1.343313 0.05497,0.05497 -0.614672,0.40829 -1.488096,0.785153 -0.873424,0.376863 -1.588045,0.628035 -1.588045,0.55816 z m 30.162501,-1.15626 c -0.218282,-0.141064 -0.277813,-0.25648 -0.132292,-0.25648 0.145521,0 0.443177,0.115416 0.661458,0.25648 0.218282,0.141065 0.277813,0.256481 0.132292,0.256481 -0.145521,0 -0.443177,-0.115416 -0.661458,-0.256481 z M 70.330178,71.0705 c 0.218281,-0.141064 0.575468,-0.249935 0.79375,-0.241936 0.261688,0.0096 0.216625,0.092 -0.132292,0.241936 -0.727363,0.312558 -1.145109,0.312558 -0.661458,0 z m 21.117058,-1.239074 c 0.190994,-0.07643 0.419197,-0.06703 0.507118,0.02089 0.08792,0.08792 -0.06835,0.150453 -0.347265,0.138964 -0.308227,-0.01269 -0.37092,-0.07539 -0.159853,-0.159852 z M 75.836818,69.566843 c 0.190995,-0.07643 0.419198,-0.06703 0.507119,0.02089 0.08792,0.08792 -0.06835,0.150452 -0.347265,0.138964 -0.308227,-0.0127 -0.37092,-0.07539 -0.159854,-0.159852 z m 14.270964,0.0055 c 0.181901,-0.0734 0.479558,-0.0734 0.661459,0 0.181901,0.0734 0.03307,0.133452 -0.330729,0.133452 -0.363803,0 -0.512631,-0.06005 -0.33073,-0.133452 z M 77.143199,69.307771 c 0.181901,-0.0734 0.479557,-0.0734 0.661458,0 0.181901,0.0734 0.03307,0.133453 -0.330729,0.133453 -0.363802,0 -0.51263,-0.06005 -0.330729,-0.133453 z m 11.244792,-0.0072 c 0.254661,-0.06655 0.67138,-0.06655 0.926041,0 0.254662,0.06655 0.0463,0.121 -0.46302,0.121 -0.509323,0 -0.717683,-0.05445 -0.463021,-0.121 z m -7.649689,-0.447104 c 1.344631,-0.133761 3.368508,-0.133761 4.7625,0 2.239888,0.21493 2.062136,0.232613 -2.338332,0.232613 -4.335378,0 -4.552789,-0.02086 -2.424168,-0.232613 z"
         id="path901"
         inkscape:connector-curvature="0" />
      <path
         style="fill:#060700;stroke-width:0.26458332"
         d="m 78.003095,115.93633 c -3.895712,-0.81125 -8.550522,-3.09134 -11.201485,-5.48688 -1.304394,-1.17871 -1.345338,-1.25605 -0.904722,-1.70882 0.442555,-0.45477 0.502306,-0.4355 1.455208,0.46911 2.488557,2.36244 6.802197,4.5174 10.616597,5.3037 3.101224,0.63929 8.634561,0.55441 11.411485,-0.17504 2.66668,-0.70049 6.931248,-2.87701 8.885685,-4.53501 1.660089,-1.4083 2.491397,-1.67321 2.491397,-0.79395 0,0.37167 -1.923768,2.12628 -3.587055,3.27164 -1.429753,0.98454 -4.420584,2.37005 -6.731693,3.11847 -1.999409,0.64748 -2.718697,0.73754 -6.482292,0.8116 -2.841879,0.0559 -4.798613,-0.0344 -5.953125,-0.27482 z m -6.381449,-14.17594 c -0.611346,-0.35721 -1.115653,-1.7252 -0.921361,-2.499307 0.57586,-2.294411 3.975592,-2.294411 4.551452,0 0.201877,0.804337 -0.324575,2.164857 -0.971703,2.511197 -0.602277,0.32233 -2.097834,0.31564 -2.658388,-0.0119 z m 20.272074,-0.0392 c -2.055096,-1.12405 -1.306536,-4.192398 1.022787,-4.192398 0.696423,0 1.07792,0.194156 1.599528,0.814051 0.897628,1.066771 0.870757,1.951287 -0.08842,2.910467 -0.806463,0.80647 -1.635109,0.95947 -2.533893,0.46788 z"
         id="path899"
         inkscape:connector-curvature="0" />
    </g>
  </g>
</svg>
