<?xml version="1.0" encoding="UTF-8" standalone="no"?>
<!-- Created with Inkscape (http://www.inkscape.org/) -->

<svg
   xmlns:dc="http://purl.org/dc/elements/1.1/"
   xmlns:cc="http://creativecommons.org/ns#"
   xmlns:rdf="http://www.w3.org/1999/02/22-rdf-syntax-ns#"
   xmlns:svg="http://www.w3.org/2000/svg"
   xmlns="http://www.w3.org/2000/svg"
   xmlns:sodipodi="http://sodipodi.sourceforge.net/DTD/sodipodi-0.dtd"
   xmlns:inkscape="http://www.inkscape.org/namespaces/inkscape"
   width="397mm"
   height="160mm"
   viewBox="0 0 397 160"
   version="1.1"
   id="svg8"
   inkscape:version="0.92.5 (0.92.5+69)"
   sodipodi:docname="bankid-chip.svg">
  <defs
     id="defs2" />
  <sodipodi:namedview
     id="base"
     pagecolor="#ffffff"
     bordercolor="#666666"
     borderopacity="1.0"
     inkscape:pageopacity="0.0"
     inkscape:pageshadow="2"
     inkscape:zoom="0.7"
     inkscape:cx="730.68859"
     inkscape:cy="299.24506"
     inkscape:document-units="mm"
     inkscape:current-layer="layer1"
     showgrid="false"
     inkscape:window-width="1853"
     inkscape:window-height="1025"
     inkscape:window-x="1987"
     inkscape:window-y="27"
     inkscape:window-maximized="1" />
  <metadata
     id="metadata5">
    <rdf:RDF>
      <cc:Work
         rdf:about="">
        <dc:format>image/svg+xml</dc:format>
        <dc:type
           rdf:resource="http://purl.org/dc/dcmitype/StillImage" />
        <dc:title />
      </cc:Work>
    </rdf:RDF>
  </metadata>
  <g
     inkscape:label="Layer 1"
     inkscape:groupmode="layer"
     id="layer1"
     transform="translate(0,-137)">
    <g
       id="g6048">
      <ellipse
         ry="43.278278"
         rx="75.784225"
         cy="204.20685"
         cx="90.903275"
         id="path6024"
         style="fill:#ffffff;fill-opacity:1;stroke:none;stroke-width:0.118683;stroke-miterlimit:4;stroke-dasharray:none;stroke-opacity:1" />
      <g
         transform="translate(-96.383929,108.10119)"
         id="g754">
        <path
           inkscape:connector-curvature="0"
           id="path685"
           d="m 240.29081,184.93656 c -36.53728,-3.41878 -78.53292,-15.64302 -102.32509,-29.78517 -14.97966,-8.90396 -29.65518,-22.51935 -35.26257,-32.71527 -4.159678,-7.56356 -4.663008,-9.54898 -4.626818,-18.25086 0.0535,-12.87555 3.426858,-19.18483 16.284858,-30.45833 20.49028,-17.965239 55.50707,-29.928502 101.89409,-34.811469 16.85975,-1.774751 62.16439,-0.747026 78.43366,1.779255 50.97297,7.915041 90.17786,23.152378 113.66524,44.177044 4.74549,4.2479 9.15385,7.72346 9.79636,7.72346 0.64251,0 1.9738,-0.8689 2.95842,-1.93089 1.19823,-1.29241 3.04273,-1.70667 5.57796,-1.25279 3.21974,0.57643 5.3215,-0.52403 14.01515,-7.33821 7.15452,-5.60781 10.22737,-8.85527 10.22737,-10.80854 0,-1.986696 1.76819,-3.790152 6.1293,-6.251575 3.37112,-1.902654 6.45585,-4.281057 6.85496,-5.285337 0.39912,-1.004279 3.28111,-2.948797 6.40443,-4.321167 3.70408,-1.62753 5.95036,-3.532375 6.45981,-5.47789 1.06465,-4.065824 6.12089,-4.57763 10.3219,-1.044804 1.79667,1.510899 3.26667,3.473287 3.26667,4.360851 0,0.887577 0.61195,1.613774 1.3599,1.613774 2.22601,0 1.54226,3.328805 -0.85274,4.151487 -1.30198,0.447239 -2.90012,-0.08156 -3.88304,-1.284858 -2.03362,-2.489531 -3.34476,-1.973854 -12.94291,5.090494 -4.11369,3.027728 -9.77427,6.931102 -12.57906,8.674155 -2.80479,1.74305 -5.09962,3.98099 -5.09962,4.97318 0,0.99221 -4.58966,6.02579 -10.19924,11.18576 -8.90024,8.18686 -10.19924,9.94541 -10.19924,13.80736 0,3.59877 -0.88925,5.06074 -4.75961,7.82511 -4.19692,2.9976 -4.7596,4.0602 -4.75964,8.98824 -1.1e-4,15.39071 -11.10523,30.31354 -31.08884,41.77654 -15.86368,9.09972 -37.7868,16.68011 -62.06427,21.46007 -22.56697,4.44317 -65.32804,6.02033 -93.00739,3.43038 z m -56.46437,-58.56101 c 2.67095,-7.5452 4.18339,-34.74404 2.28456,-41.08418 -1.11075,-3.7088 -1.7972,-4.24085 -5.30035,-4.10818 -6.34058,0.24012 -23.93082,8.13176 -29.43638,13.20626 -12.15092,11.19954 -6.16219,22.82425 18.17344,35.2764 9.34822,4.78333 11.6048,4.26333 14.27873,-3.2903 z m 246.44954,-22.74847 c 0.33998,-0.91298 -0.16999,-1.36947 -1.18991,-1.06514 -0.98168,0.29291 -2.05259,1.25154 -2.37982,2.13029 -0.33998,0.91298 0.16998,1.36947 1.18991,1.06515 0.98167,-0.29293 2.05259,-1.25156 2.37982,-2.1303 z M 142.04727,74.35665 c 2.71964,-1.32747 6.62768,-2.95727 8.68453,-3.6218 5.37394,-1.736226 4.84318,-4.110125 -0.67995,-3.041194 -5.8232,1.126985 -17.33871,6.360334 -17.33871,7.879754 0,1.91217 3.98905,1.39217 9.33413,-1.21676 z M 458.63554,49.177863 c -1.33928,-1.198842 -1.10143,-5.275002 0.3078,-5.275002 1.21462,0 2.86529,2.862478 2.86529,4.9688 0,1.301827 -1.8603,1.481356 -3.17309,0.306202 z m 25.06451,-13.977812 c -2.15977,-5.545905 -1.85104,-6.572336 1.22686,-4.078934 2.72389,2.206616 3.80047,7.912508 1.49294,7.912508 -0.67478,0 -1.89869,-1.725109 -2.7198,-3.833574 z"
           style="fill:#6b6d6c;stroke-width:1.28663003" />
        <path
           inkscape:connector-curvature="0"
           id="path683"
           d="M 251.70428,184.28793 C 168.95909,177.99773 102.33663,144.23824 99.109802,106.96397 97.898872,92.97612 105.64361,80.58683 122.5139,69.52438 154.70753,48.413855 202.19896,37.79925 257.14387,39.433828 c 42.90779,1.276482 78.62547,8.552253 111.5117,22.715193 17.45535,7.517394 26.27441,12.906219 38.10915,23.286249 5.25319,4.6075 10.22689,8.37726 11.05264,8.37726 0.82576,0 2.2632,-0.82168 3.19431,-1.82596 0.93111,-1.00428 3.8213,-1.82597 6.42265,-1.82597 3.91062,0 6.47241,-1.39615 14.79237,-8.06171 5.87506,-4.70681 10.06265,-9.03229 10.06265,-10.39397 0,-1.4577 2.27858,-3.569965 6.07656,-5.633011 3.34212,-1.81541 6.09591,-3.972713 6.11955,-4.793982 0.0392,-1.36038 9.91971,-6.419285 12.5375,-6.419285 3.0187,0 0.48603,4.619153 -4.00444,7.303368 -2.79968,1.673532 -5.70229,3.622054 -6.45023,4.330053 -0.74794,0.707987 -3.65473,2.790291 -6.45952,4.627337 -2.80479,1.83705 -5.09962,4.1968 -5.09962,5.24389 0,1.0471 -4.62069,6.15413 -10.26819,11.34899 -8.97068,8.25166 -10.15435,9.85118 -9.36731,12.65821 0.75341,2.68706 0.0109,3.95767 -4.53406,7.76168 -5.0474,4.2243 -5.48173,5.11542 -6.09085,12.49696 -2.58376,31.3101 -47.6984,55.34531 -117.62892,62.66781 -15.60896,1.63442 -40.98244,2.08817 -55.41553,0.99099 z M 181.23692,134.2488 c 0.88399,-0.50323 2.87284,-5.00308 4.41967,-9.99969 3.16347,-10.21877 3.89277,-32.38262 1.33672,-40.62294 -1.38612,-4.46862 -1.68994,-4.67513 -5.96413,-4.05426 -8.06585,1.17166 -25.4162,9.18066 -30.73872,14.18912 -9.36444,8.81189 -8.74157,16.76502 2.05178,26.19779 3.87698,3.38826 11.2967,8.18797 16.48828,10.66605 10.46027,4.99295 10.15708,4.90438 12.4064,3.62393 z m 158.21307,-7.03618 c 2.3184,-5.45848 3.29697,-23.18079 1.33975,-24.26358 -0.94549,-0.52307 -7.96635,-1.02062 -15.60189,-1.10567 -11.96491,-0.13324 -13.61718,0.0831 -11.95996,1.56664 1.10666,0.99061 1.57924,2.80683 1.11332,4.27872 -0.44524,1.4066 -1.19505,5.99881 -1.66623,10.20486 -0.47117,4.20607 -1.37831,7.93598 -2.01584,8.28868 -1.92033,1.06239 -1.30965,2.7185 1.22066,3.3104 1.3089,0.30619 7.74957,0.62026 14.31259,0.69792 11.61707,0.13747 11.96783,0.0587 13.2576,-2.97797 z m -33.75773,-0.77621 c -0.89753,-0.80342 -1.63188,-2.93598 -1.63188,-4.73899 0,-1.91795 -0.92719,-3.59673 -2.23449,-4.04578 -2.83868,-0.97509 -2.81131,-1.00726 -4.34594,5.10672 l -1.28986,5.13882 h 5.56703 c 4.3299,0 5.20437,-0.32462 3.93514,-1.46077 z m -15.73408,-6.45391 c 0.0972,-3.68117 -0.20878,-6.68464 -0.67995,-6.67439 -2.64805,0.0576 -4.33406,2.58316 -5.11076,7.6556 -0.83177,5.43213 -0.71403,5.71605 2.36936,5.71399 3.00439,-0.002 3.2577,-0.49773 3.42135,-6.6952 z m 140.3008,-14.24034 c 2.08662,-1.86783 2.10993,-4.62578 0.039,-4.62578 -1.89816,0 -6.5666,3.59585 -6.5666,5.05791 0,1.54544 4.66318,1.23673 6.52752,-0.43213 z m -122.1189,-2.11931 c 0,-1.43626 -2.65228,-2.97267 -3.62641,-2.1007 -0.9741,0.87198 0.74228,3.24616 2.34677,3.24616 0.7038,0 1.27964,-0.51546 1.27964,-1.14546 z m 116.95129,-9.954 c 0,-0.66952 -0.61196,-0.87876 -1.3599,-0.46497 -0.74795,0.41378 -1.3599,1.30012 -1.3599,1.96964 0,0.66952 0.61195,0.87876 1.3599,0.46497 0.74794,-0.41378 1.3599,-1.30012 1.3599,-1.96964 z M 145.63218,77.36297 c 20.83976,-8.240521 33.39062,-13.505346 35.62566,-14.944218 2.11842,-1.3638 2.17155,-1.72601 0.40503,-2.761344 -4.39299,-2.574693 -26.61526,1.60848 -39.78438,7.489092 -9.16244,4.09145 -17.32474,10.2517 -17.32474,13.07534 0,2.60717 11.04286,1.10944 21.07843,-2.85887 z M 485.7089,54.786298 c -1.43977,-1.299246 -3.7346,-2.362274 -5.09963,-2.362274 -1.57525,0 -2.48185,-0.889341 -2.48185,-2.434618 0,-3.75205 5.98528,-3.17109 9.40579,0.912982 1.54203,1.84118 3.44644,4.032336 4.23201,4.869236 2.42253,2.580805 -3.10018,1.682297 -6.05632,-0.985326 z"
           style="fill:#4d4e4e;stroke-width:1.28663003" />
        <path
           inkscape:connector-curvature="0"
           id="path681"
           d="m 255.78397,183.09052 c -21.88531,-1.17172 -54.62233,-6.94047 -74.92719,-13.20327 -36.23919,-11.17757 -65.7576,-29.87591 -75.70933,-47.95783 -9.366109,-17.01784 -6.040619,-30.2644 10.96256,-43.66761 9.3755,-7.3905 21.58852,-14.477042 22.91048,-13.293696 0.40969,0.366738 -1.30083,1.590195 -3.80115,2.718799 -5.70951,2.577167 -13.02799,8.684857 -15.53117,12.961627 -1.6847,2.87836 -1.64741,3.50808 0.31151,5.26161 2.86813,2.56739 5.66057,1.93009 23.59265,-5.38434 16.61262,-6.77625 37.39864,-12.95078 53.69689,-15.95079 4.47716,-0.824106 10.28167,-2.525745 12.8989,-3.781412 2.61723,-1.255666 6.14458,-2.283039 7.83852,-2.283039 1.69396,0 3.07992,-0.547789 3.07992,-1.217309 0,-0.66952 -1.10152,-1.217309 -2.44782,-1.217309 -1.3463,0 -3.21371,-0.684736 -4.1498,-1.521636 -3.12121,-2.790486 -40.76855,-1.203139 -52.76519,2.224778 -1.94349,0.555337 -1.7688,0.131385 0.77131,-1.871807 1.80614,-1.424373 4.17525,-2.283586 5.26469,-1.909361 1.08944,0.374225 5.23437,-0.697397 9.21096,-2.381361 3.97659,-1.683977 8.7581,-3.061776 10.62558,-3.061776 1.86749,0 5.02881,-0.555896 7.02514,-1.235313 9.78008,-3.3285 68.00618,-5.709021 88.33192,-3.611378 12.3518,1.274717 36.81544,5.641265 47.94503,8.557755 12.26924,3.215145 15.14132,4.102344 21.41841,6.616221 3.73972,1.497704 10.16524,3.955341 14.27893,5.46142 12.92534,4.732131 28.59058,13.719367 39.3173,22.556527 5.68873,4.68664 11.69042,9.19702 13.33708,10.02307 3.73486,1.87356 7.18117,0.79819 7.18117,-2.2408 0,-1.43149 0.95405,-2.30438 2.51864,-2.30438 3.53111,0 24.67933,-16.64191 24.67933,-19.42062 0,-1.29658 2.09049,-3.354547 4.93206,-4.855319 7.61868,-4.023802 8.46043,-2.296575 1.40342,2.879779 -3.48451,2.55592 -6.33548,5.55446 -6.33548,6.66341 0,1.10897 -4.28368,5.82144 -9.51929,10.47217 -5.23561,4.65073 -9.51929,9.42919 -9.51929,10.61881 0,1.33072 -1.0173,2.16294 -2.64397,2.16294 -3.54504,0 -10.29864,5.30007 -9.05283,7.10447 0.53797,0.77918 1.95478,1.41669 3.14848,1.41669 1.94865,0 1.95898,0.21762 0.10131,2.13029 -1.16969,1.20426 -2.41981,5.68722 -2.87582,10.31281 -2.60316,26.40453 -33.98995,46.44068 -89.98956,57.44596 -21.70714,4.26597 -52.11061,6.14131 -77.51423,4.78122 z m -69.91518,-56.23277 c 5.70521,-16.13097 4.83994,-46.46617 -1.37578,-48.23211 -2.45396,-0.6972 -8.56097,0.98109 -19.18386,5.27199 -16.57269,6.69419 -24.93588,16.60226 -21.83462,25.86798 0.85258,2.5473 3.14589,6.32904 5.09625,8.40386 6.7581,7.18943 28.53235,18.80676 32.61853,17.40316 0.99994,-0.34349 3.1057,-4.26518 4.67948,-8.71488 z m 156.94313,3.16972 c 0.39941,-1.50642 0.87003,-8.47202 1.04584,-15.47911 0.31391,-12.5118 0.25868,-12.76646 -3.08011,-14.20604 -3.72069,-1.60423 -59.09923,-3.90616 -69.23437,-2.87786 -5.22862,0.53049 -5.71728,0.81698 -3.80498,2.23086 1.41304,1.04473 3.30654,1.28479 5.31912,0.67433 3.97335,-1.2052 6.58178,-0.74952 9.61669,1.67996 1.84905,1.48018 2.7853,1.59659 4.0117,0.49878 1.99331,-1.78431 8.74599,-1.87909 9.94697,-0.13961 0.49077,0.71082 2.36275,1.79284 4.15995,2.40449 2.25939,0.76895 3.26765,2.06041 3.26765,4.1855 0,3.80774 3.70923,4.17635 4.32509,0.4298 0.239,-1.45398 1.2521,-2.88479 2.25131,-3.17958 1.44377,-0.42597 1.63029,0.92902 0.90852,6.59984 -0.49951,3.92472 -1.2053,8.09448 -1.56841,9.26614 -0.97782,3.15518 -3.19671,2.58278 -3.19671,-0.82463 0,-3.25201 -5.67262,-8.00087 -9.55719,-8.00087 -2.52806,0 -4.0418,-2.31684 -4.0418,-6.1861 0,-3.59458 -2.69323,-2.76661 -4.28346,1.31687 -0.85803,2.20323 -2.37732,3.65193 -3.82991,3.65193 -1.78843,0 -2.599,1.2767 -3.15146,4.96372 -0.93431,6.23531 -4.44782,9.87855 -9.06269,9.39727 -4.25198,-0.44341 -4.66157,-3.86201 -0.52592,-4.38937 4.76145,-0.60716 5.23031,-4.10466 0.95895,-7.1534 -4.65315,-3.32125 -5.94359,-2.67917 -5.94359,2.95738 0,2.76983 -1.03485,5.40066 -2.77758,7.0612 l -2.77758,2.64659 9.2371,0.85512 c 19.40186,1.79613 51.79827,4.00648 61.22732,4.17744 9.15382,0.16598 9.88354,-0.011 10.55955,-2.56065 z m -50.75528,-10.12058 c 0.24453,-1.86251 1.25662,-3.62528 2.2491,-3.91725 1.27182,-0.37416 1.67326,0.46877 1.3599,2.85551 -0.24453,1.86251 -1.25662,3.62528 -2.24911,3.91725 -1.27181,0.37416 -1.67326,-0.46877 -1.35989,-2.85551 z m -50.27962,5.31221 c -2.52792,-2.26285 -1.94833,-4.10592 1.76787,-5.62159 4.31459,-1.75973 4.33227,-4.26377 0.0479,-6.77669 -4.40813,-2.58545 -4.80751,-2.50254 -4.80751,0.99806 0,4.78941 -2.53907,9.39468 -5.57093,10.10441 -4.04427,0.9467 -0.49199,2.71412 5.50294,2.73795 3.64905,0.0145 4.329,-0.30599 3.05977,-1.44214 z m 13.72737,-0.95215 c -0.5214,-1.78476 0.2198,-2.72764 2.84711,-3.6218 3.8836,-1.32172 4.74987,-4.586 1.51217,-5.69815 -2.88573,-0.99126 -2.52964,-3.77184 0.67995,-5.30945 1.49589,-0.71663 2.7198,-2.24751 2.7198,-3.40194 0,-1.15444 -1.22391,-2.78317 -2.7198,-3.61942 -1.49589,-0.83624 -2.7198,-2.61137 -2.7198,-3.94473 0,-1.61277 -0.91045,-2.42431 -2.71979,-2.42431 -1.80263,0 -2.7198,0.81154 -2.7198,2.40656 0,1.3236 -1.52989,3.30386 -3.39975,4.40058 -1.86986,1.09671 -3.39975,2.53692 -3.39975,3.20047 0,0.66354 1.52989,2.28366 3.39975,3.60027 4.87835,3.43496 4.78385,10.80433 -0.1834,14.30187 l -3.58314,2.52297 h 5.49568 c 4.80969,0 5.40769,-0.30118 4.79077,-2.41292 z m -25.89847,-5.77966 c 3.56918,-0.91865 2.86488,-4.60919 -1.19566,-6.26531 -4.252,-1.7342 -3.99598,-1.93439 -5.00538,3.91401 -0.70201,4.06745 -0.50682,4.56185 1.50739,3.81814 1.27261,-0.46988 3.38475,-1.12996 4.69365,-1.46684 z m 172.60007,-2.34321 c 3.01503,-2.44247 3.16107,-4.49028 0.46314,-6.49458 -2.20373,-1.63717 -2.4084,-1.3736 -4.00811,5.16161 -0.93998,3.84001 0.01,4.19704 3.54497,1.33297 z m -123.98369,-9.013 c 0,-1.29952 -0.54649,-2.36277 -1.2144,-2.36277 -1.59701,0 -3.08943,3.55978 -2.09579,4.99894 1.18596,1.71773 3.31019,0.026 3.31019,-2.63617 z m -44.87665,-2.43461 c 0,-1.37856 -0.61196,-2.16791 -1.3599,-1.75412 -0.74795,0.41379 -1.3599,1.5417 -1.3599,2.50646 0,0.96477 0.61195,1.75412 1.3599,1.75412 0.74794,0 1.3599,-1.12791 1.3599,-2.50646 z m 9.51929,-7.16188 c 0,-0.55192 -1.22391,-1.28999 -2.7198,-1.64016 -3.03849,-0.71127 -3.5285,0.35919 -1.14221,2.49528 1.61354,1.44435 3.86201,0.94649 3.86201,-0.85512 z M 466.49505,62.056432 c -1.28274,-1.857881 0.6557,-3.101533 6.19277,-3.973162 l 4.75965,-0.749242 -3.81555,3.022895 c -4.19518,3.323643 -5.75849,3.695908 -7.13687,1.699509 z m 18.40778,-10.267039 c -0.97437,-1.050928 -2.59145,-1.629149 -3.59353,-1.284931 -1.0021,0.344206 -1.82198,0.09524 -1.82198,-0.553255 0,-0.648509 0.80096,-1.17911 1.77993,-1.17911 2.40346,0 7.26218,3.267526 6.23114,4.190465 -0.4532,0.40568 -1.62121,-0.122242 -2.59556,-1.173169 z"
           style="fill:#2b2d2d;stroke-width:1.28663003" />
        <path
           inkscape:connector-curvature="0"
           id="path679"
           d="m 227.2261,174.41067 c -4.48767,-0.93183 -11.21916,-1.81151 -14.95889,-1.95485 -19.88563,-0.76221 -55.96732,-11.88942 -73.43243,-22.64578 -3.26245,-2.00927 -6.36996,-3.65322 -6.90558,-3.65322 -1.93981,0 -14.97531,-11.61059 -19.96813,-17.78541 -6.12643,-7.5768 -9.1811,-14.81827 -9.12246,-21.62586 0.0581,-6.74871 2.14189,-8.7785 9.80245,-9.5486 4.39114,-0.44144 9.15964,-2.22642 14.95888,-5.59954 27.4688,-15.9772 52.8056,-22.9916 93.50662,-25.886969 22.91711,-1.630257 75.09381,-0.719381 84.31372,1.471909 3.36575,0.799943 13.15702,1.608078 21.75838,1.795872 16.90878,0.369161 25.43095,1.348238 26.61089,3.057248 0.41118,0.59554 3.48568,1.08281 6.83221,1.08281 5.14065,0 6.82304,0.66098 10.84427,4.26058 2.61781,2.34332 6.00115,4.26058 7.51857,4.26058 4.24205,0 15.89792,3.69718 17.66517,5.6033 0.86715,0.93531 2.17859,1.70055 2.91431,1.70055 0.73572,0 3.67487,1.65701 6.53145,3.68223 2.85657,2.02523 5.69842,3.60372 6.31523,3.50777 3.53449,-0.54982 4.5237,0.28978 3.71975,3.15713 -1.20672,4.30387 0.46587,9.50558 2.79883,8.7042 4.07486,-1.39971 4.85798,2.31947 1.37755,6.54229 -1.85621,2.25213 -3.37491,5.32552 -3.37491,6.82973 0,1.50421 -0.58499,3.05856 -1.29997,3.45411 -0.71498,0.39555 -2.00366,3.92098 -2.86375,7.83429 -1.37024,6.23453 -2.34284,7.69861 -7.85881,11.83007 -8.75588,6.55816 -14.93593,10.19287 -17.33075,10.19287 -1.98973,0 -9.37588,4.15788 -12.10812,6.81599 -2.15156,2.09319 -16.79786,5.6917 -20.05887,4.92835 -1.61337,-0.37767 -3.75977,-0.0728 -4.76979,0.67759 -1.89436,1.40735 -4.16367,1.76802 -16.26321,2.58489 -3.89339,0.26285 -8.78903,1.05497 -10.87919,1.76025 -13.01805,4.39271 -79.533,6.44165 -96.27342,2.96562 z m 73.77451,-16.95266 c -2.05685,-0.27892 -5.4226,-0.27892 -7.47945,0 -2.05684,0.27891 -0.37397,0.50712 3.73973,0.50712 4.11369,0 5.79656,-0.22821 3.73972,-0.50712 z m 49.36572,-19.28855 c 1.48928,-1.60631 1.18224,-2.38229 -1.98172,-5.00846 -2.6135,-2.16927 -3.5241,-3.89265 -3.01565,-5.70737 0.40063,-1.42985 0.83082,-8.03558 0.95601,-14.67939 0.18311,-9.71877 -0.18817,-12.35182 -1.89967,-13.47207 -2.06411,-1.35107 -22.57184,-2.64336 -88.60328,-5.58335 l -29.87973,-1.33036 -2.41786,2.67286 c -1.63006,1.80196 -2.41787,4.75224 -2.41787,9.05462 0,3.50998 -0.38641,9.69106 -0.85868,13.73575 -0.77478,6.63548 -0.58109,7.48695 1.98259,8.71513 2.61484,1.25269 25.11433,3.2909 46.47254,4.20992 4.86164,0.20919 22.9143,1.31503 40.11702,2.45743 27.98772,1.85861 31.47391,2.32739 33.14341,4.45659 2.24651,2.86512 5.99249,3.07853 8.40289,0.4787 z m -91.86256,-15.14151 c 0.46226,-0.66952 1.72229,-1.21731 2.80006,-1.21731 1.07777,0 2.0079,-0.95863 2.06695,-2.13029 0.0675,-1.33913 0.36776,-1.54998 0.80852,-0.56773 0.38562,0.85941 -0.0435,2.36583 -0.95382,3.3476 -1.83969,1.98425 -6.04916,2.49038 -4.72171,0.56773 z m -13.25901,-1.48572 c 4.7724,-2.0603 4.06304,-7.2788 -1.50632,-11.08134 -5.46784,-3.73323 -7.673,-2.57047 -7.673,4.04589 0,4.50875 -1.92556,7.30386 -5.03162,7.30386 -1.13325,0 -0.79153,-0.87397 0.95193,-2.43462 3.72132,-3.33113 3.42206,-5.16393 -1.3599,-8.32868 -6.78697,-4.49169 -4.7563,-13.16413 2.84603,-12.15469 1.64766,0.21878 3.67019,1.49335 4.49452,2.83239 0.82433,1.33904 1.64321,2.65519 1.81973,2.92478 0.1765,0.2696 1.59781,-0.96293 3.15847,-2.73895 1.56065,-1.776 3.71105,-3.2291 4.77868,-3.2291 2.89551,0 2.34384,2.15614 -0.77865,3.04327 -4.06109,1.15379 -3.64168,7.0918 0.67995,9.62653 5.43716,3.18902 3.64248,11.76003 -2.42766,11.59399 l -3.01193,-0.0824 3.05977,-1.32094 z m -9.85927,-16.16526 c 0,-2.84039 -0.60439,-3.65193 -2.71979,-3.65193 -2.08813,0 -2.82062,0.94106 -3.15391,4.05196 -0.38879,3.62892 -0.10485,4.01019 2.7198,3.65193 2.49843,-0.31689 3.1539,-1.15902 3.1539,-4.05196 z m 26.71282,8.02565 c -1.36803,-0.76083 -1.43253,-1.25435 -0.2495,-1.90885 1.86605,-1.03235 3.26695,-0.11844 2.57619,1.68061 -0.2829,0.73679 -1.24296,0.83097 -2.32669,0.22824 z m 8.86791,-3.47164 c -2.52372,-3.58495 3.72362,-10.16021 7.61046,-8.00989 1.0974,0.60712 0.51407,1.15903 -1.72513,1.6322 -2.41277,0.50986 -3.58731,1.74686 -4.09483,4.31257 -0.47289,2.39074 -1.07356,3.08353 -1.7905,2.06512 z m -4.94165,-3.07058 c -0.0228,-1.8622 -0.95929,-3.70111 -2.0812,-4.08649 -2.26905,-0.77942 -2.7875,-2.87483 -0.7113,-2.87483 0.7307,0 2.30941,1.34001 3.50824,2.97781 1.62742,2.22333 1.81812,3.53416 0.75265,5.17357 -1.24447,1.91484 -1.43233,1.76259 -1.46839,-1.19006 z m -80.07988,22.86275 c 4.00825,-10.91386 5.63398,-22.61129 4.86922,-35.03468 -0.88767,-14.42028 -3.09869,-18.57457 -9.29538,-17.46518 -8.28185,1.48269 -24.3788,8.41045 -30.20048,12.99757 -16.03301,12.63305 -11.90457,26.96363 11.51173,39.9594 8.94016,4.96169 12.37422,6.23288 16.11992,5.96713 4.40607,-0.31261 4.9257,-0.78983 6.99499,-6.42424 z m -30.1341,0.91298 c -0.0479,-2.10041 -2.50999,-4.20449 -3.97286,-3.39519 -1.19564,0.66148 -1.19214,1.28916 0.0145,2.59058 1.70603,1.8401 3.99261,2.30489 3.95839,0.80461 z m 247.95444,-13.96389 c 2.3165,-2.78004 2.50829,-3.8072 1.1932,-6.39087 -1.49498,-2.93707 -4.83569,-4.10914 -6.17221,-2.16546 -0.34529,0.50214 -1.07183,3.56868 -1.61456,6.81452 -0.87815,5.25194 -0.72148,5.85492 1.42334,5.47789 1.32555,-0.233 3.65216,-1.91424 5.17023,-3.73608 z M 225.18625,84.07952 c 5.60959,-0.73412 16.91463,-1.53805 25.12232,-1.78652 13.13357,-0.39758 15.19814,-0.75581 17.21672,-2.98727 1.85079,-2.04598 3.95821,-2.56753 10.91499,-2.7013 4.74175,-0.0912 7.09148,-0.40383 5.22162,-0.69477 -1.86986,-0.29094 -4.16534,-1.41742 -5.10106,-2.50327 -2.56672,-2.97854 -43.24976,-3.65569 -63.90124,-1.06361 -17.79463,2.23349 -23.47082,4.33655 -23.47082,8.69608 0,2.27 0.89941,3.16639 3.73973,3.72714 2.05684,0.40608 4.35167,0.94345 5.09962,1.19416 1.76052,0.59011 12.29702,-0.19751 25.15812,-1.88064 z m 195.18126,17.08871 c -0.44256,-0.64101 1.05121,-2.02454 3.31949,-3.07453 2.2683,-1.04999 4.12417,-2.71668 4.12417,-3.70378 0,-0.98709 0.81111,-1.7947 1.80246,-1.7947 0.99135,0 6.49894,-3.60146 12.23909,-8.00324 5.74014,-4.40178 10.43662,-7.53688 10.43662,-6.96688 0,0.57 -4.28368,4.8415 -9.51929,9.49223 -5.23561,4.65073 -9.53508,9.01835 -9.55438,9.70583 -0.0193,0.68747 -2.36161,2.20858 -5.20516,3.38024 -5.98076,2.46432 -6.55744,2.53712 -7.643,0.96483 z m 47.56067,-40.223043 c -0.46226,-0.669519 0.1497,-1.217309 1.3599,-1.217309 1.2102,0 1.82215,0.54779 1.3599,1.217309 -0.46226,0.66952 -1.07422,1.217309 -1.3599,1.217309 -0.28569,0 -0.89764,-0.547789 -1.3599,-1.217309 z"
           style="fill:#161918;stroke-width:1.28663003" />
      </g>
    </g>
  </g>
</svg>
