<?xml version="1.0" encoding="UTF-8" standalone="no"?>
<!-- Created with Inkscape (http://www.inkscape.org/) -->

<svg
   xmlns:dc="http://purl.org/dc/elements/1.1/"
   xmlns:cc="http://creativecommons.org/ns#"
   xmlns:rdf="http://www.w3.org/1999/02/22-rdf-syntax-ns#"
   xmlns:svg="http://www.w3.org/2000/svg"
   xmlns="http://www.w3.org/2000/svg"
   xmlns:sodipodi="http://sodipodi.sourceforge.net/DTD/sodipodi-0.dtd"
   xmlns:inkscape="http://www.inkscape.org/namespaces/inkscape"
   width="421mm"
   height="85mm"
   viewBox="0 0 421 85"
   version="1.1"
   id="svg8"
   inkscape:version="0.92.5 (0.92.5+69)"
   sodipodi:docname="bankid-logo.svg">
  <defs
     id="defs2" />
  <sodipodi:namedview
     id="base"
     pagecolor="#ffffff"
     bordercolor="#666666"
     borderopacity="1.0"
     inkscape:pageopacity="0.0"
     inkscape:pageshadow="2"
     inkscape:zoom="0.7"
     inkscape:cx="817.01697"
     inkscape:cy="559.50427"
     inkscape:document-units="mm"
     inkscape:current-layer="layer1"
     showgrid="false"
     inkscape:window-width="1853"
     inkscape:window-height="1025"
     inkscape:window-x="1987"
     inkscape:window-y="27"
     inkscape:window-maximized="1" />
  <metadata
     id="metadata5">
    <rdf:RDF>
      <cc:Work
         rdf:about="">
        <dc:format>image/svg+xml</dc:format>
        <dc:type
           rdf:resource="http://purl.org/dc/dcmitype/StillImage" />
        <dc:title></dc:title>
      </cc:Work>
    </rdf:RDF>
  </metadata>
  <g
     inkscape:label="Layer 1"
     inkscape:groupmode="layer"
     id="layer1"
     transform="translate(0,-212)">
    <g
       id="g671"
       transform="matrix(0.88258388,0,0,0.99127515,-39.318407,400.13671)">
      <path
         style="fill:#897294;stroke-width:0.73645234"
         d="m 212.27786,-104.52636 c -2.0175,-0.93393 -4.86379,-2.84962 -6.32509,-4.2571 -1.46129,-1.40748 -2.83273,-2.55905 -3.04762,-2.55905 -0.2149,0 -0.39073,0.99212 -0.39073,2.20472 0,3.4352 -1.12336,4.09448 -6.97657,4.09448 -3.9211,0 -5.60859,-0.32595 -6.40586,-1.23735 -0.95534,-1.09209 -1.0824,-5.89186 -1.0824,-40.88855 0,-34.99669 0.12706,-39.79646 1.0824,-40.88855 1.34568,-1.53831 11.26394,-1.76933 12.55586,-0.29247 0.57729,0.65992 0.82657,4.93438 0.82657,14.1732 0,7.27558 0.1832,13.22832 0.40711,13.22832 0.2239,0 1.66233,-1.22824 3.19651,-2.72942 3.82858,-3.74622 8.48066,-5.38889 14.19057,-5.01076 8.34133,0.55239 14.68869,5.75896 18.87803,15.48513 2.07514,4.81772 2.2634,5.90732 2.48761,14.39711 0.36565,13.84557 -2.00583,21.45871 -8.88759,28.53168 -3.53738,3.63568 -11.54998,7.65659 -14.98582,7.52026 -1.02014,-0.0405 -3.50548,-0.83772 -5.52298,-1.77165 z m 7.68307,-14.97679 c 3.08977,-1.47578 5.73787,-5.31396 6.98894,-10.12981 2.56974,-9.89191 -0.41172,-20.19821 -6.80288,-23.51621 -3.65844,-1.8993 -6.87458,-1.8798 -10.35489,0.0627 -4.75652,2.65493 -7.27768,8.38724 -7.27768,16.54711 0,5.28124 0.84009,8.84831 2.88887,12.26632 3.14268,5.24298 9.32564,7.26884 14.55764,4.76984 z m 45.00486,14.89611 c -5.8058,-2.72889 -9.01516,-5.39589 -11.53867,-9.5887 -8.79996,-14.62118 -7.44378,-37.24194 2.86816,-47.84042 8.25566,-8.48506 19.87858,-9.15917 28.48819,-1.65228 l 2.35937,2.05717 0.21926,-2.61146 0.21926,-2.61148 6.09513,-0.22864 c 3.90161,-0.14636 6.44244,0.10087 7.06021,0.68696 0.79559,0.7548 0.96509,6.00541 0.96509,29.89675 0,25.29663 -0.13761,29.13845 -1.08241,30.21848 -0.79726,0.9114 -2.48475,1.23735 -6.40585,1.23735 -5.85322,0 -6.97657,-0.65928 -6.97657,-4.09448 0,-1.2126 -0.1523,-2.20472 -0.33844,-2.20472 -0.18614,0 -1.71166,1.19825 -3.39005,2.66278 -3.03867,2.65149 -10.41298,6.01551 -13.10868,5.97992 -0.77884,-0.0103 -3.22413,-0.86853 -5.434,-1.90723 z m 16.94088,-16.38135 c 3.31157,-2.88742 4.87734,-7.01701 5.20199,-13.71974 0.36218,-7.47759 -1.11483,-12.60868 -4.69326,-16.30436 -5.94516,-6.13994 -14.6335,-4.1057 -18.42356,4.31358 -4.41187,9.8006 -1.58591,23.45855 5.62719,27.19621 3.36823,1.74535 9.42138,1.01346 12.28764,-1.48569 z m -233.339319,14.52436 c -1.136522,-0.80958 -2.492813,-2.38693 -3.013981,-3.50523 -0.851702,-1.82755 -0.791239,-2.28426 0.597563,-4.51384 0.849829,-1.36431 2.303785,-2.81029 3.231022,-3.21329 2.489134,-1.08183 22.714273,-0.93079 24.544121,0.18329 3.671228,2.2352 4.357295,7.04259 1.450967,10.16719 -1.71258,1.84119 -2.182866,1.91679 -13.259423,2.13137 -10.227954,0.19814 -11.709854,0.0615 -13.550269,-1.24949 z m 83.000539,0.86463 c -4.85551,-2.02903 -5.66166,-9.11611 -1.32834,-11.67774 2.28244,-1.34924 22.10018,-1.66488 25.01415,-0.3984 0.95362,0.41447 2.23806,1.86817 2.85432,3.23046 0.93133,2.05881 0.97866,2.86822 0.28037,4.79536 -1.44817,3.99665 -3.5179,4.61344 -15.24887,4.54424 -5.79613,-0.0342 -11.00337,-0.25645 -11.57163,-0.49392 z m 181.91949,-0.52037 c -0.5597,-0.77092 -0.73027,-9.543 -0.60094,-30.90545 l 0.18057,-29.82899 6.09512,-0.22864 c 6.82679,-0.25609 8.0253,0.3353 8.0253,3.95998 v 2.3574 l 2.64941,-2.7362 c 4.05112,-4.18384 7.99939,-5.59358 14.46732,-5.16556 4.23306,0.28013 6.10648,0.8124 8.49771,2.41435 3.36236,2.25254 6.41642,6.7041 7.46391,10.87931 0.37013,1.4753 0.67291,13.187 0.67291,26.02827 0,20.56222 -0.12992,23.40309 -1.08954,23.82404 -1.98568,0.87106 -10.99993,0.51616 -11.85992,-0.46693 -0.594,-0.67902 -0.84131,-6.27307 -0.87897,-19.88185 -0.0362,-13.06508 -0.32053,-19.7915 -0.9171,-21.69287 -2.51548,-8.01709 -14.10614,-8.49963 -17.7471,-0.73885 -1.11962,2.38648 -1.25863,4.7868 -1.25863,21.73327 0,16.26876 -0.15805,19.23117 -1.0824,20.28783 -1.43812,1.64398 -11.44826,1.77162 -12.61765,0.16089 z m 59.67753,0.22599 c -1.12283,-0.74761 -1.2054,-3.52737 -1.2054,-40.57892 0,-25.91306 0.24851,-40.30716 0.71303,-41.29937 0.61251,-1.30831 1.47959,-1.52304 6.15002,-1.52304 4.0243,0 5.7182,0.3215 6.51937,1.23735 0.93334,1.06694 1.0824,4.3264 1.0824,23.66847 0,14.03809 0.24596,22.25735 0.65735,21.9667 0.36155,-0.25543 3.65774,-4.97122 7.32489,-10.47952 10.275,-15.43377 8.99311,-14.3458 16.90282,-14.3458 3.69517,0 6.90729,0.34921 7.13805,0.77602 0.23075,0.42681 -3.48408,6.15437 -8.25519,12.72791 -4.7711,6.57355 -8.54148,12.34882 -8.37864,12.83394 0.16285,0.48512 4.69112,8.26056 10.06284,17.27877 5.45324,9.15506 9.60431,16.88061 9.39896,17.49234 -0.27823,0.82885 -1.9514,1.09562 -6.87178,1.09562 -7.66942,0 -6.65626,0.93105 -15.23648,-14.00171 -3.03072,-5.27458 -5.87374,-9.59693 -6.31781,-9.60522 -0.44408,-0.008 -2.06937,1.668 -3.61176,3.72508 l -2.80435,3.74015 -0.004,6.8335 c -0.006,8.75702 -0.43447,9.3166 -7.11386,9.28425 -2.71953,-0.0131 -5.48704,-0.3851 -6.15001,-0.82652 z m 61.64771,0.32899 c -0.67279,-0.31034 -0.86101,-9.05516 -0.86101,-40.0034 v -39.60625 l 1.54981,-0.47478 c 3.26909,-1.00149 10.71628,-0.53508 11.83262,0.74106 0.95415,1.09073 1.0824,5.74869 1.0824,39.31375 0,33.56506 -0.12825,38.22302 -1.0824,39.31375 -0.80731,0.92288 -2.42661,1.22155 -6.37141,1.17518 -2.90896,-0.0342 -5.67646,-0.24088 -6.15001,-0.45931 z m 26.17444,0.0465 c -0.6721,-0.3463 -0.861,-9.06047 -0.861,-39.72029 v -39.27668 l 1.49579,-0.91511 c 2.38669,-1.46017 30.1538,-0.47285 35.01067,1.24487 8.77012,3.10171 15.29558,8.80382 19.53205,17.0676 1.96733,3.83753 5.24277,17.36544 5.25665,21.71054 0.0114,3.56549 -3.08718,16.81092 -4.86413,20.79262 -2.05038,4.59438 -7.76061,11.28839 -11.9447,14.00256 -6.78188,4.39932 -9.65567,4.96097 -26.9219,5.26161 -8.71333,0.15172 -16.22988,0.0762 -16.70343,-0.16774 z m 30.97866,-16.09628 c 3.89969,-1.23808 8.2219,-5.43978 10.52161,-10.22828 1.9721,-4.10634 2.06641,-4.73392 2.06641,-13.7515 0,-9.00221 -0.0966,-9.64812 -2.04325,-13.66576 -4.08467,-8.43019 -9.14353,-11.13736 -20.81221,-11.13736 h -7.1074 v 24.8031 24.8031 l 7.40462,-0.005 c 4.07253,-0.002 8.55913,-0.37092 9.97022,-0.81892 z m -443.998632,-8.68655 c -3.082426,-2.77172 -3.466461,-4.35637 -1.80189,-7.43523 2.055293,-3.80158 4.978703,-4.50981 17.283723,-4.18717 9.636625,0.25268 10.24122,0.36293 11.927433,2.17507 2.368223,2.54509 2.405184,6.4988 0.08555,9.15048 -1.665576,1.90399 -1.868821,1.9327 -13.683132,1.9327 -11.098674,0 -12.128019,-0.12191 -13.811683,-1.63586 z m 40.474344,-0.20802 c -2.529988,-2.48771 -2.539225,-6.15389 -0.02273,-9.03059 l 1.852455,-2.11762 h 11.982873 c 11.73398,0 12.01979,0.0397 13.76037,1.9089 2.36957,2.54475 2.40707,6.49809 0.0868,9.15048 -1.66616,1.90468 -1.86545,1.93271 -13.73761,1.93271 -11.639877,0 -12.11028,-0.0623 -13.92213,-1.84388 z m -0.262744,-23.7402 c -2.256257,-2.74547 -2.146345,-6.42359 0.262744,-8.79243 1.810238,-1.78 2.288294,-1.84388 13.797938,-1.84388 11.01891,0 12.06029,0.12371 13.73761,1.63195 2.42418,2.17982 2.53365,6.77043 0.22069,9.25439 -1.51498,1.62697 -2.21066,1.71204 -14.00036,1.71204 -12.331823,0 -12.415816,-0.0117 -14.018622,-1.96209 z m 40.754062,0.13969 c -2.05359,-2.49887 -1.96906,-6.37171 0.19303,-8.84329 1.66617,-1.90467 1.86546,-1.93271 13.73761,-1.93271 11.63988,0 12.11029,0.0623 13.92214,1.84388 2.40908,2.36884 2.519,6.04696 0.26274,8.79243 -1.6037,1.9514 -1.68045,1.96207 -14.11516,1.96207 -12.17831,0 -12.54154,-0.0472 -14.00036,-1.8224 z m -80.365399,-22.43294 c -1.136522,-0.80957 -2.492813,-2.38692 -3.013981,-3.50523 -0.85038,-1.8247 -0.791818,-2.28332 0.570906,-4.47104 2.644577,-4.24559 4.387333,-4.77621 15.687227,-4.77621 10.570123,0 12.061701,0.39236 14.480096,3.80899 1.476858,2.08646 1.037031,5.96346 -0.914556,8.06161 -1.71258,1.84119 -2.182866,1.91679 -13.259423,2.13137 -10.227954,0.19814 -11.709854,0.0615 -13.550269,-1.24949 z m 83.000539,0.86464 c -3.57264,-1.49295 -5.36157,-6.85576 -3.2718,-9.80813 2.41839,-3.41663 3.90997,-3.80899 14.48009,-3.80899 11.40885,0 13.46538,0.64544 15.35317,4.81859 1.48776,3.28884 0.27401,6.75704 -2.89435,8.27037 -2.2669,1.08275 -21.32234,1.508 -23.66711,0.52816 z"
         id="path675"
         inkscape:connector-curvature="0" />
      <path
         style="fill:#3e1950;stroke-width:0.73645234"
         d="m 214.3069,-105.55404 c -3.99288,-1.16813 -6.92613,-3.17775 -9.94375,-6.81264 -2.26113,-2.72366 -3.0468,-2.20685 -3.3525,2.20527 l -0.21824,3.1496 h -5.51041 -5.51041 v -39.7637 -39.7637 l 5.68261,-0.22869 5.68261,-0.22869 v 14.15857 c 0,8.92951 0.26389,14.34501 0.71453,14.66338 0.39299,0.27766 1.87862,-0.86641 3.30141,-2.54235 3.64127,-4.28918 7.15156,-6.01536 12.98312,-6.38444 4.15811,-0.26317 5.53326,-0.006 8.64144,1.62154 5.21878,2.73124 8.44666,6.26804 10.84418,11.88199 5.21705,12.21608 3.57315,30.63086 -3.59968,40.32315 -2.24596,3.03486 -8.04905,6.66995 -12.56276,7.86939 -2.77664,0.73785 -4.22471,0.70775 -7.15215,-0.14868 z m 8.05262,-13.86426 c 5.50425,-4.16397 8.26491,-14.96498 6.05051,-23.67259 -3.87058,-15.22023 -19.06072,-17.65499 -25.44414,-4.07832 -2.14511,4.56234 -2.14511,16.69746 0,21.2598 1.68296,3.57942 3.7831,6.01429 6.78094,7.86169 3.10241,1.91185 9.14114,1.25564 12.61269,-1.37058 z m 44.90221,13.97555 c -11.92335,-3.56146 -18.03407,-14.20315 -18.03407,-31.40598 0,-11.42456 3.1105,-20.32336 8.85445,-25.33162 8.05593,-7.02413 20.20927,-6.76289 26.85673,0.57731 2.55895,2.82561 3.67572,2.40254 3.67572,-1.39248 v -2.74127 l 5.68261,0.22869 5.68261,0.22869 v 29.1338 29.1338 h -5.51041 -5.5104 l -0.21181,-3.34645 c -0.25872,-4.08762 -1.43195,-4.34443 -4.39148,-0.96126 -4.23226,4.83809 -11.82837,7.44958 -17.09395,5.87677 z m 14.98988,-13.95013 c 7.0255,-5.31477 8.51963,-21.56903 2.8108,-30.57794 -3.61855,-5.7103 -9.87169,-7.65378 -15.39579,-4.785 -11.66188,6.05625 -12.40726,29.35546 -1.16252,36.33883 3.68864,2.29076 10.02385,1.84106 13.74751,-0.97589 z m -233.591367,11.14282 c -1.042694,-0.93759 -1.814895,-2.42088 -1.814895,-3.48615 0,-1.06528 0.772201,-2.54856 1.814895,-3.48615 1.665838,-1.49792 2.728079,-1.63195 12.933957,-1.63195 12.748553,0 14.180798,0.51692 14.180798,5.1181 0,4.60118 -1.432245,5.1181 -14.180798,5.1181 -10.205878,0 -11.268119,-0.13403 -12.933957,-1.63195 z m 81.683317,0.4062 c -1.06952,-0.85635 -1.53087,-2.02937 -1.53087,-3.89235 0,-4.60967 1.42105,-5.1181 14.30499,-5.1181 11.0189,0 11.27701,0.0386 12.93396,1.93271 0.92988,1.06299 1.6907,2.49641 1.6907,3.18539 0,0.68897 -0.76082,2.1224 -1.6907,3.18539 -1.65695,1.89414 -1.91506,1.93271 -12.93396,1.93271 -9.06123,0 -11.54036,-0.23789 -12.77412,-1.22575 z m 184.24228,0.73103 c -0.2671,-0.30534 -0.48563,-13.62063 -0.48563,-29.58956 v -29.0344 l 5.68261,0.22869 5.68261,0.22869 0.0794,2.3622 c 0.0437,1.29921 0.12117,2.80511 0.1722,3.34645 0.16459,1.74586 2.0256,1.04812 3.49459,-1.31019 2.31289,-3.71311 7.77542,-6.36774 13.09247,-6.36257 2.48279,0.002 5.70791,0.38331 7.16694,0.84644 3.36792,1.06904 8.09433,6.42998 9.31581,10.56647 1.00653,3.40862 2.00546,43.48516 1.17785,47.25466 -0.4349,1.98078 -0.55582,2.01843 -5.76213,1.79369 l -5.3179,-0.22955 -0.3444,-20.0787 c -0.32827,-19.13814 -0.41751,-20.21309 -1.90506,-22.94762 -2.13618,-3.92688 -5.56332,-5.66936 -10.27256,-5.22294 -3.94507,0.37399 -6.36013,1.92305 -8.78826,5.63694 -1.32438,2.02568 -1.44339,3.53589 -1.76456,22.39225 l -0.3444,20.22007 -5.19698,0.22706 c -2.85834,0.12489 -5.41551,-0.0228 -5.68261,-0.32808 z m 59.07818,-0.45619 c -0.18758,-0.55968 -0.26037,-18.55693 -0.16178,-39.99389 l 0.17927,-38.9763 h 5.51041 5.51041 l 0.14288,23.15541 c 0.0786,12.73547 0.39113,23.43921 0.69456,23.78606 0.8884,1.01558 1.56212,0.16104 10.47002,-13.28012 l 8.47984,-12.79525 h 6.17838 c 3.39811,0 6.07506,0.27665 5.94877,0.61478 -0.12628,0.33812 -3.79414,5.5366 -8.15081,11.55217 -4.35667,6.01557 -7.90346,11.5124 -7.88176,12.21517 0.0217,0.70276 4.28365,8.40992 9.47101,17.127 5.18736,8.71709 9.43157,16.23099 9.43157,16.69756 0,0.53936 -2.12395,0.84832 -5.83177,0.84832 h -5.83176 L 400.74,-118.5865 c -3.89579,-6.58261 -7.42422,-12.08654 -7.84096,-12.23096 -0.41674,-0.14441 -2.27651,1.7676 -4.13281,4.2489 l -3.3751,4.51147 -0.3444,7.52264 -0.3444,7.52264 -5.34864,0.23019 c -3.88789,0.16731 -5.44177,-0.0477 -5.68967,-0.7874 z m 61.83089,-37.79658 0.17871,-38.81141 4.1041,-0.24104 c 2.25726,-0.13257 4.81738,-0.0364 5.68916,0.21373 l 1.58504,0.45477 -0.17874,38.36887 -0.17874,38.36887 -5.68912,0.22881 -5.68911,0.22882 z m 26.3526,37.84735 c -0.19701,-0.5876 -0.27747,-18.0762 -0.17882,-38.86356 l 0.17937,-37.7952 15.15363,0.0338 c 17.45616,0.0389 21.74129,1.01495 29.01233,6.60831 7.05642,5.42824 10.53538,12.06813 12.78127,24.39414 l 1.42013,7.79405 -1.45766,7.73804 c -3.01587,16.00984 -8.74122,23.8823 -20.91641,28.76044 -3.82008,1.53056 -6.08387,1.76431 -19.97204,2.0623 -12.7563,0.27369 -15.7301,0.13777 -16.0218,-0.73229 z m 33.3481,-14.15089 c 7.57526,-4.32726 11.08013,-11.93118 11.08013,-24.03865 0,-9.01499 -1.77647,-14.34007 -6.58205,-19.73009 -4.83989,-5.42852 -8.47673,-6.67 -18.64639,-6.3652 l -7.48962,0.22447 -0.1821,25.18999 c -0.10015,13.85449 -0.0324,25.63596 0.15058,26.18105 0.24256,0.72258 2.64118,0.99106 8.8543,0.99106 8.16014,0 8.70375,-0.10404 12.81515,-2.45263 z M 48.343015,-132.06251 c -1.812525,-2.20553 -1.887832,-3.75209 -0.292265,-6.00229 1.143066,-1.61203 1.775357,-1.7008 12.226221,-1.71647 6.06145,-0.009 11.541112,0.008 12.17702,0.0379 3.072095,0.14467 4.470554,5.70773 2.061368,8.20011 -1.06811,1.10499 -3.039796,1.30314 -12.967157,1.30314 -11.347125,0 -11.753614,-0.0561 -13.205187,-1.8224 z m 40.557131,-0.26982 c -0.931039,-1.35306 -1.287604,-2.67442 -1.009266,-3.74015 0.9456,-3.62063 1.530592,-3.77391 14.40296,-3.77391 12.87238,0 13.45737,0.15328 14.40297,3.77391 0.27833,1.06573 -0.0782,2.38709 -1.00927,3.74015 l -1.43966,2.09222 H 102.29384 90.339809 Z m 0.778565,-22.06822 c -2.711142,-1.23988 -2.064571,-7.74315 0.8514,-8.5635 0.787444,-0.22154 6.51307,-0.30162 12.723609,-0.17798 11.28753,0.22473 11.29243,0.22562 12.6409,2.29184 1.15203,1.76523 1.22311,2.34004 0.4868,3.937 -0.4742,1.02849 -1.20323,2.1303 -1.62007,2.44848 -0.85184,0.6502 -23.67353,0.70858 -25.082639,0.0642 z m 40.216379,-0.6989 c -1.46149,-1.6707 -1.36814,-5.30958 0.17724,-6.90832 1.06871,-1.10562 3.02627,-1.30131 12.91502,-1.29108 6.41046,0.006 11.99643,0.27237 12.41327,0.59055 2.53493,1.93491 2.48891,7.22143 -0.0727,8.3451 -0.62827,0.2756 -6.36415,0.50109 -12.74639,0.50109 -9.63077,0 -11.78815,-0.21042 -12.68649,-1.23734 z m -81.234847,-23.22921 c -2.240065,-2.01426 -2.32394,-4.63346 -0.220699,-6.8922 1.503529,-1.61467 2.239162,-1.71205 12.933957,-1.71205 13.254712,0 14.623373,0.51532 14.266974,5.37166 -0.317841,4.33092 -1.827514,4.83935 -14.409611,4.85294 -9.846964,0.0106 -10.909075,-0.12629 -12.570621,-1.62035 z m 82.218847,0.61799 c -1.28022,-0.73657 -1.77584,-1.72443 -1.93188,-3.85058 -0.35724,-4.86785 0.99648,-5.37166 14.43358,-5.37166 h 11.50636 l 1.42759,2.07469 c 1.84962,2.688 1.79966,3.87077 -0.2631,6.2288 -1.65333,1.89 -1.93112,1.93245 -12.57062,1.92111 -7.35176,-0.008 -11.43834,-0.33289 -12.60193,-1.00236 z"
         id="path673"
         inkscape:connector-curvature="0" />
    </g>
  </g>
</svg>
