<?xml version="1.0" encoding="UTF-8" standalone="no"?>
<!-- Created with Inkscape (http://www.inkscape.org/) -->

<svg
   xmlns:dc="http://purl.org/dc/elements/1.1/"
   xmlns:cc="http://creativecommons.org/ns#"
   xmlns:rdf="http://www.w3.org/1999/02/22-rdf-syntax-ns#"
   xmlns:svg="http://www.w3.org/2000/svg"
   xmlns="http://www.w3.org/2000/svg"
   xmlns:sodipodi="http://sodipodi.sourceforge.net/DTD/sodipodi-0.dtd"
   xmlns:inkscape="http://www.inkscape.org/namespaces/inkscape"
   width="430mm"
   height="262mm"
   viewBox="0 0 430 262"
   version="1.1"
   id="svg8"
   inkscape:version="0.92.5 (0.92.5+69)"
   sodipodi:docname="bankid.svg">
  <defs
     id="defs2" />
  <sodipodi:namedview
     id="base"
     pagecolor="#ffffff"
     bordercolor="#666666"
     borderopacity="1.0"
     inkscape:pageopacity="0.0"
     inkscape:pageshadow="2"
     inkscape:zoom="0.7"
     inkscape:cx="757.48369"
     inkscape:cy="459.52974"
     inkscape:document-units="mm"
     inkscape:current-layer="layer1"
     showgrid="false"
     inkscape:window-width="1853"
     inkscape:window-height="1025"
     inkscape:window-x="1987"
     inkscape:window-y="27"
     inkscape:window-maximized="1" />
  <metadata
     id="metadata5">
    <rdf:RDF>
      <cc:Work
         rdf:about="">
        <dc:format>image/svg+xml</dc:format>
        <dc:type
           rdf:resource="http://purl.org/dc/dcmitype/StillImage" />
        <dc:title />
      </cc:Work>
    </rdf:RDF>
  </metadata>
  <g
     inkscape:label="Layer 1"
     inkscape:groupmode="layer"
     id="layer1"
     transform="translate(0,-35)">
    <g
       id="g671"
       transform="matrix(0.88258388,0,0,0.99127515,-39.318407,225.13373)">
      <path
         style="fill:#897294;stroke-width:0.73645234"
         d="m 212.27786,-104.52636 c -2.0175,-0.93393 -4.86379,-2.84962 -6.32509,-4.2571 -1.46129,-1.40748 -2.83273,-2.55905 -3.04762,-2.55905 -0.2149,0 -0.39073,0.99212 -0.39073,2.20472 0,3.4352 -1.12336,4.09448 -6.97657,4.09448 -3.9211,0 -5.60859,-0.32595 -6.40586,-1.23735 -0.95534,-1.09209 -1.0824,-5.89186 -1.0824,-40.88855 0,-34.99669 0.12706,-39.79646 1.0824,-40.88855 1.34568,-1.53831 11.26394,-1.76933 12.55586,-0.29247 0.57729,0.65992 0.82657,4.93438 0.82657,14.1732 0,7.27558 0.1832,13.22832 0.40711,13.22832 0.2239,0 1.66233,-1.22824 3.19651,-2.72942 3.82858,-3.74622 8.48066,-5.38889 14.19057,-5.01076 8.34133,0.55239 14.68869,5.75896 18.87803,15.48513 2.07514,4.81772 2.2634,5.90732 2.48761,14.39711 0.36565,13.84557 -2.00583,21.45871 -8.88759,28.53168 -3.53738,3.63568 -11.54998,7.65659 -14.98582,7.52026 -1.02014,-0.0405 -3.50548,-0.83772 -5.52298,-1.77165 z m 7.68307,-14.97679 c 3.08977,-1.47578 5.73787,-5.31396 6.98894,-10.12981 2.56974,-9.89191 -0.41172,-20.19821 -6.80288,-23.51621 -3.65844,-1.8993 -6.87458,-1.8798 -10.35489,0.0627 -4.75652,2.65493 -7.27768,8.38724 -7.27768,16.54711 0,5.28124 0.84009,8.84831 2.88887,12.26632 3.14268,5.24298 9.32564,7.26884 14.55764,4.76984 z m 45.00486,14.89611 c -5.8058,-2.72889 -9.01516,-5.39589 -11.53867,-9.5887 -8.79996,-14.62118 -7.44378,-37.24194 2.86816,-47.84042 8.25566,-8.48506 19.87858,-9.15917 28.48819,-1.65228 l 2.35937,2.05717 0.21926,-2.61146 0.21926,-2.61148 6.09513,-0.22864 c 3.90161,-0.14636 6.44244,0.10087 7.06021,0.68696 0.79559,0.7548 0.96509,6.00541 0.96509,29.89675 0,25.29663 -0.13761,29.13845 -1.08241,30.21848 -0.79726,0.9114 -2.48475,1.23735 -6.40585,1.23735 -5.85322,0 -6.97657,-0.65928 -6.97657,-4.09448 0,-1.2126 -0.1523,-2.20472 -0.33844,-2.20472 -0.18614,0 -1.71166,1.19825 -3.39005,2.66278 -3.03867,2.65149 -10.41298,6.01551 -13.10868,5.97992 -0.77884,-0.0103 -3.22413,-0.86853 -5.434,-1.90723 z m 16.94088,-16.38135 c 3.31157,-2.88742 4.87734,-7.01701 5.20199,-13.71974 0.36218,-7.47759 -1.11483,-12.60868 -4.69326,-16.30436 -5.94516,-6.13994 -14.6335,-4.1057 -18.42356,4.31358 -4.41187,9.8006 -1.58591,23.45855 5.62719,27.19621 3.36823,1.74535 9.42138,1.01346 12.28764,-1.48569 z m -233.339319,14.52436 c -1.136522,-0.80958 -2.492813,-2.38693 -3.013981,-3.50523 -0.851702,-1.82755 -0.791239,-2.28426 0.597563,-4.51384 0.849829,-1.36431 2.303785,-2.81029 3.231022,-3.21329 2.489134,-1.08183 22.714273,-0.93079 24.544121,0.18329 3.671228,2.2352 4.357295,7.04259 1.450967,10.16719 -1.71258,1.84119 -2.182866,1.91679 -13.259423,2.13137 -10.227954,0.19814 -11.709854,0.0615 -13.550269,-1.24949 z m 83.000539,0.86463 c -4.85551,-2.02903 -5.66166,-9.11611 -1.32834,-11.67774 2.28244,-1.34924 22.10018,-1.66488 25.01415,-0.3984 0.95362,0.41447 2.23806,1.86817 2.85432,3.23046 0.93133,2.05881 0.97866,2.86822 0.28037,4.79536 -1.44817,3.99665 -3.5179,4.61344 -15.24887,4.54424 -5.79613,-0.0342 -11.00337,-0.25645 -11.57163,-0.49392 z m 181.91949,-0.52037 c -0.5597,-0.77092 -0.73027,-9.543 -0.60094,-30.90545 l 0.18057,-29.82899 6.09512,-0.22864 c 6.82679,-0.25609 8.0253,0.3353 8.0253,3.95998 v 2.3574 l 2.64941,-2.7362 c 4.05112,-4.18384 7.99939,-5.59358 14.46732,-5.16556 4.23306,0.28013 6.10648,0.8124 8.49771,2.41435 3.36236,2.25254 6.41642,6.7041 7.46391,10.87931 0.37013,1.4753 0.67291,13.187 0.67291,26.02827 0,20.56222 -0.12992,23.40309 -1.08954,23.82404 -1.98568,0.87106 -10.99993,0.51616 -11.85992,-0.46693 -0.594,-0.67902 -0.84131,-6.27307 -0.87897,-19.88185 -0.0362,-13.06508 -0.32053,-19.7915 -0.9171,-21.69287 -2.51548,-8.01709 -14.10614,-8.49963 -17.7471,-0.73885 -1.11962,2.38648 -1.25863,4.7868 -1.25863,21.73327 0,16.26876 -0.15805,19.23117 -1.0824,20.28783 -1.43812,1.64398 -11.44826,1.77162 -12.61765,0.16089 z m 59.67753,0.22599 c -1.12283,-0.74761 -1.2054,-3.52737 -1.2054,-40.57892 0,-25.91306 0.24851,-40.30716 0.71303,-41.29937 0.61251,-1.30831 1.47959,-1.52304 6.15002,-1.52304 4.0243,0 5.7182,0.3215 6.51937,1.23735 0.93334,1.06694 1.0824,4.3264 1.0824,23.66847 0,14.03809 0.24596,22.25735 0.65735,21.9667 0.36155,-0.25543 3.65774,-4.97122 7.32489,-10.47952 10.275,-15.43377 8.99311,-14.3458 16.90282,-14.3458 3.69517,0 6.90729,0.34921 7.13805,0.77602 0.23075,0.42681 -3.48408,6.15437 -8.25519,12.72791 -4.7711,6.57355 -8.54148,12.34882 -8.37864,12.83394 0.16285,0.48512 4.69112,8.26056 10.06284,17.27877 5.45324,9.15506 9.60431,16.88061 9.39896,17.49234 -0.27823,0.82885 -1.9514,1.09562 -6.87178,1.09562 -7.66942,0 -6.65626,0.93105 -15.23648,-14.00171 -3.03072,-5.27458 -5.87374,-9.59693 -6.31781,-9.60522 -0.44408,-0.008 -2.06937,1.668 -3.61176,3.72508 l -2.80435,3.74015 -0.004,6.8335 c -0.006,8.75702 -0.43447,9.3166 -7.11386,9.28425 -2.71953,-0.0131 -5.48704,-0.3851 -6.15001,-0.82652 z m 61.64771,0.32899 c -0.67279,-0.31034 -0.86101,-9.05516 -0.86101,-40.0034 v -39.60625 l 1.54981,-0.47478 c 3.26909,-1.00149 10.71628,-0.53508 11.83262,0.74106 0.95415,1.09073 1.0824,5.74869 1.0824,39.31375 0,33.56506 -0.12825,38.22302 -1.0824,39.31375 -0.80731,0.92288 -2.42661,1.22155 -6.37141,1.17518 -2.90896,-0.0342 -5.67646,-0.24088 -6.15001,-0.45931 z m 26.17444,0.0465 c -0.6721,-0.3463 -0.861,-9.06047 -0.861,-39.72029 v -39.27668 l 1.49579,-0.91511 c 2.38669,-1.46017 30.1538,-0.47285 35.01067,1.24487 8.77012,3.10171 15.29558,8.80382 19.53205,17.0676 1.96733,3.83753 5.24277,17.36544 5.25665,21.71054 0.0114,3.56549 -3.08718,16.81092 -4.86413,20.79262 -2.05038,4.59438 -7.76061,11.28839 -11.9447,14.00256 -6.78188,4.39932 -9.65567,4.96097 -26.9219,5.26161 -8.71333,0.15172 -16.22988,0.0762 -16.70343,-0.16774 z m 30.97866,-16.09628 c 3.89969,-1.23808 8.2219,-5.43978 10.52161,-10.22828 1.9721,-4.10634 2.06641,-4.73392 2.06641,-13.7515 0,-9.00221 -0.0966,-9.64812 -2.04325,-13.66576 -4.08467,-8.43019 -9.14353,-11.13736 -20.81221,-11.13736 h -7.1074 v 24.8031 24.8031 l 7.40462,-0.005 c 4.07253,-0.002 8.55913,-0.37092 9.97022,-0.81892 z m -443.998632,-8.68655 c -3.082426,-2.77172 -3.466461,-4.35637 -1.80189,-7.43523 2.055293,-3.80158 4.978703,-4.50981 17.283723,-4.18717 9.636625,0.25268 10.24122,0.36293 11.927433,2.17507 2.368223,2.54509 2.405184,6.4988 0.08555,9.15048 -1.665576,1.90399 -1.868821,1.9327 -13.683132,1.9327 -11.098674,0 -12.128019,-0.12191 -13.811683,-1.63586 z m 40.474344,-0.20802 c -2.529988,-2.48771 -2.539225,-6.15389 -0.02273,-9.03059 l 1.852455,-2.11762 h 11.982873 c 11.73398,0 12.01979,0.0397 13.76037,1.9089 2.36957,2.54475 2.40707,6.49809 0.0868,9.15048 -1.66616,1.90468 -1.86545,1.93271 -13.73761,1.93271 -11.639877,0 -12.11028,-0.0623 -13.92213,-1.84388 z m -0.262744,-23.7402 c -2.256257,-2.74547 -2.146345,-6.42359 0.262744,-8.79243 1.810238,-1.78 2.288294,-1.84388 13.797938,-1.84388 11.01891,0 12.06029,0.12371 13.73761,1.63195 2.42418,2.17982 2.53365,6.77043 0.22069,9.25439 -1.51498,1.62697 -2.21066,1.71204 -14.00036,1.71204 -12.331823,0 -12.415816,-0.0117 -14.018622,-1.96209 z m 40.754062,0.13969 c -2.05359,-2.49887 -1.96906,-6.37171 0.19303,-8.84329 1.66617,-1.90467 1.86546,-1.93271 13.73761,-1.93271 11.63988,0 12.11029,0.0623 13.92214,1.84388 2.40908,2.36884 2.519,6.04696 0.26274,8.79243 -1.6037,1.9514 -1.68045,1.96207 -14.11516,1.96207 -12.17831,0 -12.54154,-0.0472 -14.00036,-1.8224 z m -80.365399,-22.43294 c -1.136522,-0.80957 -2.492813,-2.38692 -3.013981,-3.50523 -0.85038,-1.8247 -0.791818,-2.28332 0.570906,-4.47104 2.644577,-4.24559 4.387333,-4.77621 15.687227,-4.77621 10.570123,0 12.061701,0.39236 14.480096,3.80899 1.476858,2.08646 1.037031,5.96346 -0.914556,8.06161 -1.71258,1.84119 -2.182866,1.91679 -13.259423,2.13137 -10.227954,0.19814 -11.709854,0.0615 -13.550269,-1.24949 z m 83.000539,0.86464 c -3.57264,-1.49295 -5.36157,-6.85576 -3.2718,-9.80813 2.41839,-3.41663 3.90997,-3.80899 14.48009,-3.80899 11.40885,0 13.46538,0.64544 15.35317,4.81859 1.48776,3.28884 0.27401,6.75704 -2.89435,8.27037 -2.2669,1.08275 -21.32234,1.508 -23.66711,0.52816 z"
         id="path675"
         inkscape:connector-curvature="0" />
      <path
         style="fill:#3e1950;stroke-width:0.73645234"
         d="m 214.3069,-105.55404 c -3.99288,-1.16813 -6.92613,-3.17775 -9.94375,-6.81264 -2.26113,-2.72366 -3.0468,-2.20685 -3.3525,2.20527 l -0.21824,3.1496 h -5.51041 -5.51041 v -39.7637 -39.7637 l 5.68261,-0.22869 5.68261,-0.22869 v 14.15857 c 0,8.92951 0.26389,14.34501 0.71453,14.66338 0.39299,0.27766 1.87862,-0.86641 3.30141,-2.54235 3.64127,-4.28918 7.15156,-6.01536 12.98312,-6.38444 4.15811,-0.26317 5.53326,-0.006 8.64144,1.62154 5.21878,2.73124 8.44666,6.26804 10.84418,11.88199 5.21705,12.21608 3.57315,30.63086 -3.59968,40.32315 -2.24596,3.03486 -8.04905,6.66995 -12.56276,7.86939 -2.77664,0.73785 -4.22471,0.70775 -7.15215,-0.14868 z m 8.05262,-13.86426 c 5.50425,-4.16397 8.26491,-14.96498 6.05051,-23.67259 -3.87058,-15.22023 -19.06072,-17.65499 -25.44414,-4.07832 -2.14511,4.56234 -2.14511,16.69746 0,21.2598 1.68296,3.57942 3.7831,6.01429 6.78094,7.86169 3.10241,1.91185 9.14114,1.25564 12.61269,-1.37058 z m 44.90221,13.97555 c -11.92335,-3.56146 -18.03407,-14.20315 -18.03407,-31.40598 0,-11.42456 3.1105,-20.32336 8.85445,-25.33162 8.05593,-7.02413 20.20927,-6.76289 26.85673,0.57731 2.55895,2.82561 3.67572,2.40254 3.67572,-1.39248 v -2.74127 l 5.68261,0.22869 5.68261,0.22869 v 29.1338 29.1338 h -5.51041 -5.5104 l -0.21181,-3.34645 c -0.25872,-4.08762 -1.43195,-4.34443 -4.39148,-0.96126 -4.23226,4.83809 -11.82837,7.44958 -17.09395,5.87677 z m 14.98988,-13.95013 c 7.0255,-5.31477 8.51963,-21.56903 2.8108,-30.57794 -3.61855,-5.7103 -9.87169,-7.65378 -15.39579,-4.785 -11.66188,6.05625 -12.40726,29.35546 -1.16252,36.33883 3.68864,2.29076 10.02385,1.84106 13.74751,-0.97589 z m -233.591367,11.14282 c -1.042694,-0.93759 -1.814895,-2.42088 -1.814895,-3.48615 0,-1.06528 0.772201,-2.54856 1.814895,-3.48615 1.665838,-1.49792 2.728079,-1.63195 12.933957,-1.63195 12.748553,0 14.180798,0.51692 14.180798,5.1181 0,4.60118 -1.432245,5.1181 -14.180798,5.1181 -10.205878,0 -11.268119,-0.13403 -12.933957,-1.63195 z m 81.683317,0.4062 c -1.06952,-0.85635 -1.53087,-2.02937 -1.53087,-3.89235 0,-4.60967 1.42105,-5.1181 14.30499,-5.1181 11.0189,0 11.27701,0.0386 12.93396,1.93271 0.92988,1.06299 1.6907,2.49641 1.6907,3.18539 0,0.68897 -0.76082,2.1224 -1.6907,3.18539 -1.65695,1.89414 -1.91506,1.93271 -12.93396,1.93271 -9.06123,0 -11.54036,-0.23789 -12.77412,-1.22575 z m 184.24228,0.73103 c -0.2671,-0.30534 -0.48563,-13.62063 -0.48563,-29.58956 v -29.0344 l 5.68261,0.22869 5.68261,0.22869 0.0794,2.3622 c 0.0437,1.29921 0.12117,2.80511 0.1722,3.34645 0.16459,1.74586 2.0256,1.04812 3.49459,-1.31019 2.31289,-3.71311 7.77542,-6.36774 13.09247,-6.36257 2.48279,0.002 5.70791,0.38331 7.16694,0.84644 3.36792,1.06904 8.09433,6.42998 9.31581,10.56647 1.00653,3.40862 2.00546,43.48516 1.17785,47.25466 -0.4349,1.98078 -0.55582,2.01843 -5.76213,1.79369 l -5.3179,-0.22955 -0.3444,-20.0787 c -0.32827,-19.13814 -0.41751,-20.21309 -1.90506,-22.94762 -2.13618,-3.92688 -5.56332,-5.66936 -10.27256,-5.22294 -3.94507,0.37399 -6.36013,1.92305 -8.78826,5.63694 -1.32438,2.02568 -1.44339,3.53589 -1.76456,22.39225 l -0.3444,20.22007 -5.19698,0.22706 c -2.85834,0.12489 -5.41551,-0.0228 -5.68261,-0.32808 z m 59.07818,-0.45619 c -0.18758,-0.55968 -0.26037,-18.55693 -0.16178,-39.99389 l 0.17927,-38.9763 h 5.51041 5.51041 l 0.14288,23.15541 c 0.0786,12.73547 0.39113,23.43921 0.69456,23.78606 0.8884,1.01558 1.56212,0.16104 10.47002,-13.28012 l 8.47984,-12.79525 h 6.17838 c 3.39811,0 6.07506,0.27665 5.94877,0.61478 -0.12628,0.33812 -3.79414,5.5366 -8.15081,11.55217 -4.35667,6.01557 -7.90346,11.5124 -7.88176,12.21517 0.0217,0.70276 4.28365,8.40992 9.47101,17.127 5.18736,8.71709 9.43157,16.23099 9.43157,16.69756 0,0.53936 -2.12395,0.84832 -5.83177,0.84832 h -5.83176 L 400.74,-118.5865 c -3.89579,-6.58261 -7.42422,-12.08654 -7.84096,-12.23096 -0.41674,-0.14441 -2.27651,1.7676 -4.13281,4.2489 l -3.3751,4.51147 -0.3444,7.52264 -0.3444,7.52264 -5.34864,0.23019 c -3.88789,0.16731 -5.44177,-0.0477 -5.68967,-0.7874 z m 61.83089,-37.79658 0.17871,-38.81141 4.1041,-0.24104 c 2.25726,-0.13257 4.81738,-0.0364 5.68916,0.21373 l 1.58504,0.45477 -0.17874,38.36887 -0.17874,38.36887 -5.68912,0.22881 -5.68911,0.22882 z m 26.3526,37.84735 c -0.19701,-0.5876 -0.27747,-18.0762 -0.17882,-38.86356 l 0.17937,-37.7952 15.15363,0.0338 c 17.45616,0.0389 21.74129,1.01495 29.01233,6.60831 7.05642,5.42824 10.53538,12.06813 12.78127,24.39414 l 1.42013,7.79405 -1.45766,7.73804 c -3.01587,16.00984 -8.74122,23.8823 -20.91641,28.76044 -3.82008,1.53056 -6.08387,1.76431 -19.97204,2.0623 -12.7563,0.27369 -15.7301,0.13777 -16.0218,-0.73229 z m 33.3481,-14.15089 c 7.57526,-4.32726 11.08013,-11.93118 11.08013,-24.03865 0,-9.01499 -1.77647,-14.34007 -6.58205,-19.73009 -4.83989,-5.42852 -8.47673,-6.67 -18.64639,-6.3652 l -7.48962,0.22447 -0.1821,25.18999 c -0.10015,13.85449 -0.0324,25.63596 0.15058,26.18105 0.24256,0.72258 2.64118,0.99106 8.8543,0.99106 8.16014,0 8.70375,-0.10404 12.81515,-2.45263 z M 48.343015,-132.06251 c -1.812525,-2.20553 -1.887832,-3.75209 -0.292265,-6.00229 1.143066,-1.61203 1.775357,-1.7008 12.226221,-1.71647 6.06145,-0.009 11.541112,0.008 12.17702,0.0379 3.072095,0.14467 4.470554,5.70773 2.061368,8.20011 -1.06811,1.10499 -3.039796,1.30314 -12.967157,1.30314 -11.347125,0 -11.753614,-0.0561 -13.205187,-1.8224 z m 40.557131,-0.26982 c -0.931039,-1.35306 -1.287604,-2.67442 -1.009266,-3.74015 0.9456,-3.62063 1.530592,-3.77391 14.40296,-3.77391 12.87238,0 13.45737,0.15328 14.40297,3.77391 0.27833,1.06573 -0.0782,2.38709 -1.00927,3.74015 l -1.43966,2.09222 H 102.29384 90.339809 Z m 0.778565,-22.06822 c -2.711142,-1.23988 -2.064571,-7.74315 0.8514,-8.5635 0.787444,-0.22154 6.51307,-0.30162 12.723609,-0.17798 11.28753,0.22473 11.29243,0.22562 12.6409,2.29184 1.15203,1.76523 1.22311,2.34004 0.4868,3.937 -0.4742,1.02849 -1.20323,2.1303 -1.62007,2.44848 -0.85184,0.6502 -23.67353,0.70858 -25.082639,0.0642 z m 40.216379,-0.6989 c -1.46149,-1.6707 -1.36814,-5.30958 0.17724,-6.90832 1.06871,-1.10562 3.02627,-1.30131 12.91502,-1.29108 6.41046,0.006 11.99643,0.27237 12.41327,0.59055 2.53493,1.93491 2.48891,7.22143 -0.0727,8.3451 -0.62827,0.2756 -6.36415,0.50109 -12.74639,0.50109 -9.63077,0 -11.78815,-0.21042 -12.68649,-1.23734 z m -81.234847,-23.22921 c -2.240065,-2.01426 -2.32394,-4.63346 -0.220699,-6.8922 1.503529,-1.61467 2.239162,-1.71205 12.933957,-1.71205 13.254712,0 14.623373,0.51532 14.266974,5.37166 -0.317841,4.33092 -1.827514,4.83935 -14.409611,4.85294 -9.846964,0.0106 -10.909075,-0.12629 -12.570621,-1.62035 z m 82.218847,0.61799 c -1.28022,-0.73657 -1.77584,-1.72443 -1.93188,-3.85058 -0.35724,-4.86785 0.99648,-5.37166 14.43358,-5.37166 h 11.50636 l 1.42759,2.07469 c 1.84962,2.688 1.79966,3.87077 -0.2631,6.2288 -1.65333,1.89 -1.93112,1.93245 -12.57062,1.92111 -7.35176,-0.008 -11.43834,-0.33289 -12.60193,-1.00236 z"
         id="path673"
         inkscape:connector-curvature="0" />
    </g>
    <g
       transform="translate(32.127977,-2.6458334)"
       id="g6048">
      <ellipse
         ry="43.278278"
         rx="75.784225"
         cy="204.20685"
         cx="90.903275"
         id="path6024"
         style="fill:#ffffff;fill-opacity:1;stroke:none;stroke-width:0.118683;stroke-miterlimit:4;stroke-dasharray:none;stroke-opacity:1" />
      <g
         transform="translate(-96.383929,108.10119)"
         id="g754">
        <path
           inkscape:connector-curvature="0"
           id="path685"
           d="m 240.29081,184.93656 c -36.53728,-3.41878 -78.53292,-15.64302 -102.32509,-29.78517 -14.97966,-8.90396 -29.65518,-22.51935 -35.26257,-32.71527 -4.159678,-7.56356 -4.663008,-9.54898 -4.626818,-18.25086 0.0535,-12.87555 3.426858,-19.18483 16.284858,-30.45833 20.49028,-17.965239 55.50707,-29.928502 101.89409,-34.811469 16.85975,-1.774751 62.16439,-0.747026 78.43366,1.779255 50.97297,7.915041 90.17786,23.152378 113.66524,44.177044 4.74549,4.2479 9.15385,7.72346 9.79636,7.72346 0.64251,0 1.9738,-0.8689 2.95842,-1.93089 1.19823,-1.29241 3.04273,-1.70667 5.57796,-1.25279 3.21974,0.57643 5.3215,-0.52403 14.01515,-7.33821 7.15452,-5.60781 10.22737,-8.85527 10.22737,-10.80854 0,-1.986696 1.76819,-3.790152 6.1293,-6.251575 3.37112,-1.902654 6.45585,-4.281057 6.85496,-5.285337 0.39912,-1.004279 3.28111,-2.948797 6.40443,-4.321167 3.70408,-1.62753 5.95036,-3.532375 6.45981,-5.47789 1.06465,-4.065824 6.12089,-4.57763 10.3219,-1.044804 1.79667,1.510899 3.26667,3.473287 3.26667,4.360851 0,0.887577 0.61195,1.613774 1.3599,1.613774 2.22601,0 1.54226,3.328805 -0.85274,4.151487 -1.30198,0.447239 -2.90012,-0.08156 -3.88304,-1.284858 -2.03362,-2.489531 -3.34476,-1.973854 -12.94291,5.090494 -4.11369,3.027728 -9.77427,6.931102 -12.57906,8.674155 -2.80479,1.74305 -5.09962,3.98099 -5.09962,4.97318 0,0.99221 -4.58966,6.02579 -10.19924,11.18576 -8.90024,8.18686 -10.19924,9.94541 -10.19924,13.80736 0,3.59877 -0.88925,5.06074 -4.75961,7.82511 -4.19692,2.9976 -4.7596,4.0602 -4.75964,8.98824 -1.1e-4,15.39071 -11.10523,30.31354 -31.08884,41.77654 -15.86368,9.09972 -37.7868,16.68011 -62.06427,21.46007 -22.56697,4.44317 -65.32804,6.02033 -93.00739,3.43038 z m -56.46437,-58.56101 c 2.67095,-7.5452 4.18339,-34.74404 2.28456,-41.08418 -1.11075,-3.7088 -1.7972,-4.24085 -5.30035,-4.10818 -6.34058,0.24012 -23.93082,8.13176 -29.43638,13.20626 -12.15092,11.19954 -6.16219,22.82425 18.17344,35.2764 9.34822,4.78333 11.6048,4.26333 14.27873,-3.2903 z m 246.44954,-22.74847 c 0.33998,-0.91298 -0.16999,-1.36947 -1.18991,-1.06514 -0.98168,0.29291 -2.05259,1.25154 -2.37982,2.13029 -0.33998,0.91298 0.16998,1.36947 1.18991,1.06515 0.98167,-0.29293 2.05259,-1.25156 2.37982,-2.1303 z M 142.04727,74.35665 c 2.71964,-1.32747 6.62768,-2.95727 8.68453,-3.6218 5.37394,-1.736226 4.84318,-4.110125 -0.67995,-3.041194 -5.8232,1.126985 -17.33871,6.360334 -17.33871,7.879754 0,1.91217 3.98905,1.39217 9.33413,-1.21676 z M 458.63554,49.177863 c -1.33928,-1.198842 -1.10143,-5.275002 0.3078,-5.275002 1.21462,0 2.86529,2.862478 2.86529,4.9688 0,1.301827 -1.8603,1.481356 -3.17309,0.306202 z m 25.06451,-13.977812 c -2.15977,-5.545905 -1.85104,-6.572336 1.22686,-4.078934 2.72389,2.206616 3.80047,7.912508 1.49294,7.912508 -0.67478,0 -1.89869,-1.725109 -2.7198,-3.833574 z"
           style="fill:#6b6d6c;stroke-width:1.28663003" />
        <path
           inkscape:connector-curvature="0"
           id="path683"
           d="M 251.70428,184.28793 C 168.95909,177.99773 102.33663,144.23824 99.109802,106.96397 97.898872,92.97612 105.64361,80.58683 122.5139,69.52438 154.70753,48.413855 202.19896,37.79925 257.14387,39.433828 c 42.90779,1.276482 78.62547,8.552253 111.5117,22.715193 17.45535,7.517394 26.27441,12.906219 38.10915,23.286249 5.25319,4.6075 10.22689,8.37726 11.05264,8.37726 0.82576,0 2.2632,-0.82168 3.19431,-1.82596 0.93111,-1.00428 3.8213,-1.82597 6.42265,-1.82597 3.91062,0 6.47241,-1.39615 14.79237,-8.06171 5.87506,-4.70681 10.06265,-9.03229 10.06265,-10.39397 0,-1.4577 2.27858,-3.569965 6.07656,-5.633011 3.34212,-1.81541 6.09591,-3.972713 6.11955,-4.793982 0.0392,-1.36038 9.91971,-6.419285 12.5375,-6.419285 3.0187,0 0.48603,4.619153 -4.00444,7.303368 -2.79968,1.673532 -5.70229,3.622054 -6.45023,4.330053 -0.74794,0.707987 -3.65473,2.790291 -6.45952,4.627337 -2.80479,1.83705 -5.09962,4.1968 -5.09962,5.24389 0,1.0471 -4.62069,6.15413 -10.26819,11.34899 -8.97068,8.25166 -10.15435,9.85118 -9.36731,12.65821 0.75341,2.68706 0.0109,3.95767 -4.53406,7.76168 -5.0474,4.2243 -5.48173,5.11542 -6.09085,12.49696 -2.58376,31.3101 -47.6984,55.34531 -117.62892,62.66781 -15.60896,1.63442 -40.98244,2.08817 -55.41553,0.99099 z M 181.23692,134.2488 c 0.88399,-0.50323 2.87284,-5.00308 4.41967,-9.99969 3.16347,-10.21877 3.89277,-32.38262 1.33672,-40.62294 -1.38612,-4.46862 -1.68994,-4.67513 -5.96413,-4.05426 -8.06585,1.17166 -25.4162,9.18066 -30.73872,14.18912 -9.36444,8.81189 -8.74157,16.76502 2.05178,26.19779 3.87698,3.38826 11.2967,8.18797 16.48828,10.66605 10.46027,4.99295 10.15708,4.90438 12.4064,3.62393 z m 158.21307,-7.03618 c 2.3184,-5.45848 3.29697,-23.18079 1.33975,-24.26358 -0.94549,-0.52307 -7.96635,-1.02062 -15.60189,-1.10567 -11.96491,-0.13324 -13.61718,0.0831 -11.95996,1.56664 1.10666,0.99061 1.57924,2.80683 1.11332,4.27872 -0.44524,1.4066 -1.19505,5.99881 -1.66623,10.20486 -0.47117,4.20607 -1.37831,7.93598 -2.01584,8.28868 -1.92033,1.06239 -1.30965,2.7185 1.22066,3.3104 1.3089,0.30619 7.74957,0.62026 14.31259,0.69792 11.61707,0.13747 11.96783,0.0587 13.2576,-2.97797 z m -33.75773,-0.77621 c -0.89753,-0.80342 -1.63188,-2.93598 -1.63188,-4.73899 0,-1.91795 -0.92719,-3.59673 -2.23449,-4.04578 -2.83868,-0.97509 -2.81131,-1.00726 -4.34594,5.10672 l -1.28986,5.13882 h 5.56703 c 4.3299,0 5.20437,-0.32462 3.93514,-1.46077 z m -15.73408,-6.45391 c 0.0972,-3.68117 -0.20878,-6.68464 -0.67995,-6.67439 -2.64805,0.0576 -4.33406,2.58316 -5.11076,7.6556 -0.83177,5.43213 -0.71403,5.71605 2.36936,5.71399 3.00439,-0.002 3.2577,-0.49773 3.42135,-6.6952 z m 140.3008,-14.24034 c 2.08662,-1.86783 2.10993,-4.62578 0.039,-4.62578 -1.89816,0 -6.5666,3.59585 -6.5666,5.05791 0,1.54544 4.66318,1.23673 6.52752,-0.43213 z m -122.1189,-2.11931 c 0,-1.43626 -2.65228,-2.97267 -3.62641,-2.1007 -0.9741,0.87198 0.74228,3.24616 2.34677,3.24616 0.7038,0 1.27964,-0.51546 1.27964,-1.14546 z m 116.95129,-9.954 c 0,-0.66952 -0.61196,-0.87876 -1.3599,-0.46497 -0.74795,0.41378 -1.3599,1.30012 -1.3599,1.96964 0,0.66952 0.61195,0.87876 1.3599,0.46497 0.74794,-0.41378 1.3599,-1.30012 1.3599,-1.96964 z M 145.63218,77.36297 c 20.83976,-8.240521 33.39062,-13.505346 35.62566,-14.944218 2.11842,-1.3638 2.17155,-1.72601 0.40503,-2.761344 -4.39299,-2.574693 -26.61526,1.60848 -39.78438,7.489092 -9.16244,4.09145 -17.32474,10.2517 -17.32474,13.07534 0,2.60717 11.04286,1.10944 21.07843,-2.85887 z M 485.7089,54.786298 c -1.43977,-1.299246 -3.7346,-2.362274 -5.09963,-2.362274 -1.57525,0 -2.48185,-0.889341 -2.48185,-2.434618 0,-3.75205 5.98528,-3.17109 9.40579,0.912982 1.54203,1.84118 3.44644,4.032336 4.23201,4.869236 2.42253,2.580805 -3.10018,1.682297 -6.05632,-0.985326 z"
           style="fill:#4d4e4e;stroke-width:1.28663003" />
        <path
           inkscape:connector-curvature="0"
           id="path681"
           d="m 255.78397,183.09052 c -21.88531,-1.17172 -54.62233,-6.94047 -74.92719,-13.20327 -36.23919,-11.17757 -65.7576,-29.87591 -75.70933,-47.95783 -9.366109,-17.01784 -6.040619,-30.2644 10.96256,-43.66761 9.3755,-7.3905 21.58852,-14.477042 22.91048,-13.293696 0.40969,0.366738 -1.30083,1.590195 -3.80115,2.718799 -5.70951,2.577167 -13.02799,8.684857 -15.53117,12.961627 -1.6847,2.87836 -1.64741,3.50808 0.31151,5.26161 2.86813,2.56739 5.66057,1.93009 23.59265,-5.38434 16.61262,-6.77625 37.39864,-12.95078 53.69689,-15.95079 4.47716,-0.824106 10.28167,-2.525745 12.8989,-3.781412 2.61723,-1.255666 6.14458,-2.283039 7.83852,-2.283039 1.69396,0 3.07992,-0.547789 3.07992,-1.217309 0,-0.66952 -1.10152,-1.217309 -2.44782,-1.217309 -1.3463,0 -3.21371,-0.684736 -4.1498,-1.521636 -3.12121,-2.790486 -40.76855,-1.203139 -52.76519,2.224778 -1.94349,0.555337 -1.7688,0.131385 0.77131,-1.871807 1.80614,-1.424373 4.17525,-2.283586 5.26469,-1.909361 1.08944,0.374225 5.23437,-0.697397 9.21096,-2.381361 3.97659,-1.683977 8.7581,-3.061776 10.62558,-3.061776 1.86749,0 5.02881,-0.555896 7.02514,-1.235313 9.78008,-3.3285 68.00618,-5.709021 88.33192,-3.611378 12.3518,1.274717 36.81544,5.641265 47.94503,8.557755 12.26924,3.215145 15.14132,4.102344 21.41841,6.616221 3.73972,1.497704 10.16524,3.955341 14.27893,5.46142 12.92534,4.732131 28.59058,13.719367 39.3173,22.556527 5.68873,4.68664 11.69042,9.19702 13.33708,10.02307 3.73486,1.87356 7.18117,0.79819 7.18117,-2.2408 0,-1.43149 0.95405,-2.30438 2.51864,-2.30438 3.53111,0 24.67933,-16.64191 24.67933,-19.42062 0,-1.29658 2.09049,-3.354547 4.93206,-4.855319 7.61868,-4.023802 8.46043,-2.296575 1.40342,2.879779 -3.48451,2.55592 -6.33548,5.55446 -6.33548,6.66341 0,1.10897 -4.28368,5.82144 -9.51929,10.47217 -5.23561,4.65073 -9.51929,9.42919 -9.51929,10.61881 0,1.33072 -1.0173,2.16294 -2.64397,2.16294 -3.54504,0 -10.29864,5.30007 -9.05283,7.10447 0.53797,0.77918 1.95478,1.41669 3.14848,1.41669 1.94865,0 1.95898,0.21762 0.10131,2.13029 -1.16969,1.20426 -2.41981,5.68722 -2.87582,10.31281 -2.60316,26.40453 -33.98995,46.44068 -89.98956,57.44596 -21.70714,4.26597 -52.11061,6.14131 -77.51423,4.78122 z m -69.91518,-56.23277 c 5.70521,-16.13097 4.83994,-46.46617 -1.37578,-48.23211 -2.45396,-0.6972 -8.56097,0.98109 -19.18386,5.27199 -16.57269,6.69419 -24.93588,16.60226 -21.83462,25.86798 0.85258,2.5473 3.14589,6.32904 5.09625,8.40386 6.7581,7.18943 28.53235,18.80676 32.61853,17.40316 0.99994,-0.34349 3.1057,-4.26518 4.67948,-8.71488 z m 156.94313,3.16972 c 0.39941,-1.50642 0.87003,-8.47202 1.04584,-15.47911 0.31391,-12.5118 0.25868,-12.76646 -3.08011,-14.20604 -3.72069,-1.60423 -59.09923,-3.90616 -69.23437,-2.87786 -5.22862,0.53049 -5.71728,0.81698 -3.80498,2.23086 1.41304,1.04473 3.30654,1.28479 5.31912,0.67433 3.97335,-1.2052 6.58178,-0.74952 9.61669,1.67996 1.84905,1.48018 2.7853,1.59659 4.0117,0.49878 1.99331,-1.78431 8.74599,-1.87909 9.94697,-0.13961 0.49077,0.71082 2.36275,1.79284 4.15995,2.40449 2.25939,0.76895 3.26765,2.06041 3.26765,4.1855 0,3.80774 3.70923,4.17635 4.32509,0.4298 0.239,-1.45398 1.2521,-2.88479 2.25131,-3.17958 1.44377,-0.42597 1.63029,0.92902 0.90852,6.59984 -0.49951,3.92472 -1.2053,8.09448 -1.56841,9.26614 -0.97782,3.15518 -3.19671,2.58278 -3.19671,-0.82463 0,-3.25201 -5.67262,-8.00087 -9.55719,-8.00087 -2.52806,0 -4.0418,-2.31684 -4.0418,-6.1861 0,-3.59458 -2.69323,-2.76661 -4.28346,1.31687 -0.85803,2.20323 -2.37732,3.65193 -3.82991,3.65193 -1.78843,0 -2.599,1.2767 -3.15146,4.96372 -0.93431,6.23531 -4.44782,9.87855 -9.06269,9.39727 -4.25198,-0.44341 -4.66157,-3.86201 -0.52592,-4.38937 4.76145,-0.60716 5.23031,-4.10466 0.95895,-7.1534 -4.65315,-3.32125 -5.94359,-2.67917 -5.94359,2.95738 0,2.76983 -1.03485,5.40066 -2.77758,7.0612 l -2.77758,2.64659 9.2371,0.85512 c 19.40186,1.79613 51.79827,4.00648 61.22732,4.17744 9.15382,0.16598 9.88354,-0.011 10.55955,-2.56065 z m -50.75528,-10.12058 c 0.24453,-1.86251 1.25662,-3.62528 2.2491,-3.91725 1.27182,-0.37416 1.67326,0.46877 1.3599,2.85551 -0.24453,1.86251 -1.25662,3.62528 -2.24911,3.91725 -1.27181,0.37416 -1.67326,-0.46877 -1.35989,-2.85551 z m -50.27962,5.31221 c -2.52792,-2.26285 -1.94833,-4.10592 1.76787,-5.62159 4.31459,-1.75973 4.33227,-4.26377 0.0479,-6.77669 -4.40813,-2.58545 -4.80751,-2.50254 -4.80751,0.99806 0,4.78941 -2.53907,9.39468 -5.57093,10.10441 -4.04427,0.9467 -0.49199,2.71412 5.50294,2.73795 3.64905,0.0145 4.329,-0.30599 3.05977,-1.44214 z m 13.72737,-0.95215 c -0.5214,-1.78476 0.2198,-2.72764 2.84711,-3.6218 3.8836,-1.32172 4.74987,-4.586 1.51217,-5.69815 -2.88573,-0.99126 -2.52964,-3.77184 0.67995,-5.30945 1.49589,-0.71663 2.7198,-2.24751 2.7198,-3.40194 0,-1.15444 -1.22391,-2.78317 -2.7198,-3.61942 -1.49589,-0.83624 -2.7198,-2.61137 -2.7198,-3.94473 0,-1.61277 -0.91045,-2.42431 -2.71979,-2.42431 -1.80263,0 -2.7198,0.81154 -2.7198,2.40656 0,1.3236 -1.52989,3.30386 -3.39975,4.40058 -1.86986,1.09671 -3.39975,2.53692 -3.39975,3.20047 0,0.66354 1.52989,2.28366 3.39975,3.60027 4.87835,3.43496 4.78385,10.80433 -0.1834,14.30187 l -3.58314,2.52297 h 5.49568 c 4.80969,0 5.40769,-0.30118 4.79077,-2.41292 z m -25.89847,-5.77966 c 3.56918,-0.91865 2.86488,-4.60919 -1.19566,-6.26531 -4.252,-1.7342 -3.99598,-1.93439 -5.00538,3.91401 -0.70201,4.06745 -0.50682,4.56185 1.50739,3.81814 1.27261,-0.46988 3.38475,-1.12996 4.69365,-1.46684 z m 172.60007,-2.34321 c 3.01503,-2.44247 3.16107,-4.49028 0.46314,-6.49458 -2.20373,-1.63717 -2.4084,-1.3736 -4.00811,5.16161 -0.93998,3.84001 0.01,4.19704 3.54497,1.33297 z m -123.98369,-9.013 c 0,-1.29952 -0.54649,-2.36277 -1.2144,-2.36277 -1.59701,0 -3.08943,3.55978 -2.09579,4.99894 1.18596,1.71773 3.31019,0.026 3.31019,-2.63617 z m -44.87665,-2.43461 c 0,-1.37856 -0.61196,-2.16791 -1.3599,-1.75412 -0.74795,0.41379 -1.3599,1.5417 -1.3599,2.50646 0,0.96477 0.61195,1.75412 1.3599,1.75412 0.74794,0 1.3599,-1.12791 1.3599,-2.50646 z m 9.51929,-7.16188 c 0,-0.55192 -1.22391,-1.28999 -2.7198,-1.64016 -3.03849,-0.71127 -3.5285,0.35919 -1.14221,2.49528 1.61354,1.44435 3.86201,0.94649 3.86201,-0.85512 z M 466.49505,62.056432 c -1.28274,-1.857881 0.6557,-3.101533 6.19277,-3.973162 l 4.75965,-0.749242 -3.81555,3.022895 c -4.19518,3.323643 -5.75849,3.695908 -7.13687,1.699509 z m 18.40778,-10.267039 c -0.97437,-1.050928 -2.59145,-1.629149 -3.59353,-1.284931 -1.0021,0.344206 -1.82198,0.09524 -1.82198,-0.553255 0,-0.648509 0.80096,-1.17911 1.77993,-1.17911 2.40346,0 7.26218,3.267526 6.23114,4.190465 -0.4532,0.40568 -1.62121,-0.122242 -2.59556,-1.173169 z"
           style="fill:#2b2d2d;stroke-width:1.28663003" />
        <path
           inkscape:connector-curvature="0"
           id="path679"
           d="m 227.2261,174.41067 c -4.48767,-0.93183 -11.21916,-1.81151 -14.95889,-1.95485 -19.88563,-0.76221 -55.96732,-11.88942 -73.43243,-22.64578 -3.26245,-2.00927 -6.36996,-3.65322 -6.90558,-3.65322 -1.93981,0 -14.97531,-11.61059 -19.96813,-17.78541 -6.12643,-7.5768 -9.1811,-14.81827 -9.12246,-21.62586 0.0581,-6.74871 2.14189,-8.7785 9.80245,-9.5486 4.39114,-0.44144 9.15964,-2.22642 14.95888,-5.59954 27.4688,-15.9772 52.8056,-22.9916 93.50662,-25.886969 22.91711,-1.630257 75.09381,-0.719381 84.31372,1.471909 3.36575,0.799943 13.15702,1.608078 21.75838,1.795872 16.90878,0.369161 25.43095,1.348238 26.61089,3.057248 0.41118,0.59554 3.48568,1.08281 6.83221,1.08281 5.14065,0 6.82304,0.66098 10.84427,4.26058 2.61781,2.34332 6.00115,4.26058 7.51857,4.26058 4.24205,0 15.89792,3.69718 17.66517,5.6033 0.86715,0.93531 2.17859,1.70055 2.91431,1.70055 0.73572,0 3.67487,1.65701 6.53145,3.68223 2.85657,2.02523 5.69842,3.60372 6.31523,3.50777 3.53449,-0.54982 4.5237,0.28978 3.71975,3.15713 -1.20672,4.30387 0.46587,9.50558 2.79883,8.7042 4.07486,-1.39971 4.85798,2.31947 1.37755,6.54229 -1.85621,2.25213 -3.37491,5.32552 -3.37491,6.82973 0,1.50421 -0.58499,3.05856 -1.29997,3.45411 -0.71498,0.39555 -2.00366,3.92098 -2.86375,7.83429 -1.37024,6.23453 -2.34284,7.69861 -7.85881,11.83007 -8.75588,6.55816 -14.93593,10.19287 -17.33075,10.19287 -1.98973,0 -9.37588,4.15788 -12.10812,6.81599 -2.15156,2.09319 -16.79786,5.6917 -20.05887,4.92835 -1.61337,-0.37767 -3.75977,-0.0728 -4.76979,0.67759 -1.89436,1.40735 -4.16367,1.76802 -16.26321,2.58489 -3.89339,0.26285 -8.78903,1.05497 -10.87919,1.76025 -13.01805,4.39271 -79.533,6.44165 -96.27342,2.96562 z m 73.77451,-16.95266 c -2.05685,-0.27892 -5.4226,-0.27892 -7.47945,0 -2.05684,0.27891 -0.37397,0.50712 3.73973,0.50712 4.11369,0 5.79656,-0.22821 3.73972,-0.50712 z m 49.36572,-19.28855 c 1.48928,-1.60631 1.18224,-2.38229 -1.98172,-5.00846 -2.6135,-2.16927 -3.5241,-3.89265 -3.01565,-5.70737 0.40063,-1.42985 0.83082,-8.03558 0.95601,-14.67939 0.18311,-9.71877 -0.18817,-12.35182 -1.89967,-13.47207 -2.06411,-1.35107 -22.57184,-2.64336 -88.60328,-5.58335 l -29.87973,-1.33036 -2.41786,2.67286 c -1.63006,1.80196 -2.41787,4.75224 -2.41787,9.05462 0,3.50998 -0.38641,9.69106 -0.85868,13.73575 -0.77478,6.63548 -0.58109,7.48695 1.98259,8.71513 2.61484,1.25269 25.11433,3.2909 46.47254,4.20992 4.86164,0.20919 22.9143,1.31503 40.11702,2.45743 27.98772,1.85861 31.47391,2.32739 33.14341,4.45659 2.24651,2.86512 5.99249,3.07853 8.40289,0.4787 z m -91.86256,-15.14151 c 0.46226,-0.66952 1.72229,-1.21731 2.80006,-1.21731 1.07777,0 2.0079,-0.95863 2.06695,-2.13029 0.0675,-1.33913 0.36776,-1.54998 0.80852,-0.56773 0.38562,0.85941 -0.0435,2.36583 -0.95382,3.3476 -1.83969,1.98425 -6.04916,2.49038 -4.72171,0.56773 z m -13.25901,-1.48572 c 4.7724,-2.0603 4.06304,-7.2788 -1.50632,-11.08134 -5.46784,-3.73323 -7.673,-2.57047 -7.673,4.04589 0,4.50875 -1.92556,7.30386 -5.03162,7.30386 -1.13325,0 -0.79153,-0.87397 0.95193,-2.43462 3.72132,-3.33113 3.42206,-5.16393 -1.3599,-8.32868 -6.78697,-4.49169 -4.7563,-13.16413 2.84603,-12.15469 1.64766,0.21878 3.67019,1.49335 4.49452,2.83239 0.82433,1.33904 1.64321,2.65519 1.81973,2.92478 0.1765,0.2696 1.59781,-0.96293 3.15847,-2.73895 1.56065,-1.776 3.71105,-3.2291 4.77868,-3.2291 2.89551,0 2.34384,2.15614 -0.77865,3.04327 -4.06109,1.15379 -3.64168,7.0918 0.67995,9.62653 5.43716,3.18902 3.64248,11.76003 -2.42766,11.59399 l -3.01193,-0.0824 3.05977,-1.32094 z m -9.85927,-16.16526 c 0,-2.84039 -0.60439,-3.65193 -2.71979,-3.65193 -2.08813,0 -2.82062,0.94106 -3.15391,4.05196 -0.38879,3.62892 -0.10485,4.01019 2.7198,3.65193 2.49843,-0.31689 3.1539,-1.15902 3.1539,-4.05196 z m 26.71282,8.02565 c -1.36803,-0.76083 -1.43253,-1.25435 -0.2495,-1.90885 1.86605,-1.03235 3.26695,-0.11844 2.57619,1.68061 -0.2829,0.73679 -1.24296,0.83097 -2.32669,0.22824 z m 8.86791,-3.47164 c -2.52372,-3.58495 3.72362,-10.16021 7.61046,-8.00989 1.0974,0.60712 0.51407,1.15903 -1.72513,1.6322 -2.41277,0.50986 -3.58731,1.74686 -4.09483,4.31257 -0.47289,2.39074 -1.07356,3.08353 -1.7905,2.06512 z m -4.94165,-3.07058 c -0.0228,-1.8622 -0.95929,-3.70111 -2.0812,-4.08649 -2.26905,-0.77942 -2.7875,-2.87483 -0.7113,-2.87483 0.7307,0 2.30941,1.34001 3.50824,2.97781 1.62742,2.22333 1.81812,3.53416 0.75265,5.17357 -1.24447,1.91484 -1.43233,1.76259 -1.46839,-1.19006 z m -80.07988,22.86275 c 4.00825,-10.91386 5.63398,-22.61129 4.86922,-35.03468 -0.88767,-14.42028 -3.09869,-18.57457 -9.29538,-17.46518 -8.28185,1.48269 -24.3788,8.41045 -30.20048,12.99757 -16.03301,12.63305 -11.90457,26.96363 11.51173,39.9594 8.94016,4.96169 12.37422,6.23288 16.11992,5.96713 4.40607,-0.31261 4.9257,-0.78983 6.99499,-6.42424 z m -30.1341,0.91298 c -0.0479,-2.10041 -2.50999,-4.20449 -3.97286,-3.39519 -1.19564,0.66148 -1.19214,1.28916 0.0145,2.59058 1.70603,1.8401 3.99261,2.30489 3.95839,0.80461 z m 247.95444,-13.96389 c 2.3165,-2.78004 2.50829,-3.8072 1.1932,-6.39087 -1.49498,-2.93707 -4.83569,-4.10914 -6.17221,-2.16546 -0.34529,0.50214 -1.07183,3.56868 -1.61456,6.81452 -0.87815,5.25194 -0.72148,5.85492 1.42334,5.47789 1.32555,-0.233 3.65216,-1.91424 5.17023,-3.73608 z M 225.18625,84.07952 c 5.60959,-0.73412 16.91463,-1.53805 25.12232,-1.78652 13.13357,-0.39758 15.19814,-0.75581 17.21672,-2.98727 1.85079,-2.04598 3.95821,-2.56753 10.91499,-2.7013 4.74175,-0.0912 7.09148,-0.40383 5.22162,-0.69477 -1.86986,-0.29094 -4.16534,-1.41742 -5.10106,-2.50327 -2.56672,-2.97854 -43.24976,-3.65569 -63.90124,-1.06361 -17.79463,2.23349 -23.47082,4.33655 -23.47082,8.69608 0,2.27 0.89941,3.16639 3.73973,3.72714 2.05684,0.40608 4.35167,0.94345 5.09962,1.19416 1.76052,0.59011 12.29702,-0.19751 25.15812,-1.88064 z m 195.18126,17.08871 c -0.44256,-0.64101 1.05121,-2.02454 3.31949,-3.07453 2.2683,-1.04999 4.12417,-2.71668 4.12417,-3.70378 0,-0.98709 0.81111,-1.7947 1.80246,-1.7947 0.99135,0 6.49894,-3.60146 12.23909,-8.00324 5.74014,-4.40178 10.43662,-7.53688 10.43662,-6.96688 0,0.57 -4.28368,4.8415 -9.51929,9.49223 -5.23561,4.65073 -9.53508,9.01835 -9.55438,9.70583 -0.0193,0.68747 -2.36161,2.20858 -5.20516,3.38024 -5.98076,2.46432 -6.55744,2.53712 -7.643,0.96483 z m 47.56067,-40.223043 c -0.46226,-0.669519 0.1497,-1.217309 1.3599,-1.217309 1.2102,0 1.82215,0.54779 1.3599,1.217309 -0.46226,0.66952 -1.07422,1.217309 -1.3599,1.217309 -0.28569,0 -0.89764,-0.547789 -1.3599,-1.217309 z"
           style="fill:#161918;stroke-width:1.28663003" />
      </g>
    </g>
  </g>
</svg>
