<?xml version="1.0" encoding="UTF-8" standalone="no"?>
<svg
   xmlns:dc="http://purl.org/dc/elements/1.1/"
   xmlns:cc="http://creativecommons.org/ns#"
   xmlns:rdf="http://www.w3.org/1999/02/22-rdf-syntax-ns#"
   xmlns:svg="http://www.w3.org/2000/svg"
   xmlns="http://www.w3.org/2000/svg"
   xmlns:sodipodi="http://sodipodi.sourceforge.net/DTD/sodipodi-0.dtd"
   xmlns:inkscape="http://www.inkscape.org/namespaces/inkscape"
   width="210mm"
   height="297mm"
   version="1.1"
   viewBox="0 0 744.09448819 1052.3622047"
   id="svg4"
   sodipodi:docname="bluetooth.svg"
   inkscape:version="0.92.5 (0.92.5+69)">
  <metadata
     id="metadata10">
    <rdf:RDF>
      <cc:Work
         rdf:about="">
        <dc:format>image/svg+xml</dc:format>
        <dc:type
           rdf:resource="http://purl.org/dc/dcmitype/StillImage" />
        <dc:title />
      </cc:Work>
    </rdf:RDF>
  </metadata>
  <defs
     id="defs8" />
  <sodipodi:namedview
     pagecolor="#ffffff"
     bordercolor="#666666"
     borderopacity="1"
     objecttolerance="10"
     gridtolerance="10"
     guidetolerance="10"
     inkscape:pageopacity="0"
     inkscape:pageshadow="2"
     inkscape:window-width="1853"
     inkscape:window-height="1025"
     id="namedview6"
     showgrid="false"
     inkscape:zoom="0.2102413"
     inkscape:cx="-349.91059"
     inkscape:cy="561.25983"
     inkscape:window-x="1987"
     inkscape:window-y="27"
     inkscape:window-maximized="1"
     inkscape:current-layer="svg4" />
  <path
     d="m 332.73136,1046.6574 c -8.85601,-0.2616 -25.62556,-1.5393 -33.09573,-2.5211 -23.58635,-3.1 -42.37402,-7.2161 -63.2837,-13.864 -36.65574,-11.6549 -70.54201,-29.1201 -100.99139,-52.05338 C 119.58787,966.34022 102.38718,950.52118 88.996857,935.58046 60.165889,903.40999 38.088881,864.69702 25.587439,824.39937 17.814063,799.34107 13.767455,775.58436 12.667062,748.54778 12.08026,734.12874 12.383166,306.76499 12.984905,300.13618 c 1.593351,-17.6033 3.130352,-28.32714 5.913504,-41.26092 11.850304,-55.06402 38.950072,-105.12883 79.504891,-146.8731 6.02738,-6.2045 19.20918,-18.383915 25.38927,-23.459092 53.17089,-43.66386 117.9336,-70.030655 187.11861,-76.183023 15.03169,-1.336259 17.36447,-1.385905 65.09921,-1.385905 47.73473,0 50.06863,0.04958 65.09919,1.385905 70.59748,6.275966 137.03888,33.80833 190.20977,78.817281 6.49476,5.498124 19.58337,17.849814 24.95,23.545404 29.84076,31.66916 51.62899,66.67138 65.82393,105.74339 10.29068,28.3254 15.87582,56.67636 17.23245,87.47618 0.50266,11.41088 0.50266,430.38952 0,441.81731 -0.43465,9.86796 -1.12249,17.72759 -2.36423,27.01346 -10.69114,79.9497 -54.67579,152.7976 -122.73673,203.28015 -36.05083,26.73928 -78.08874,46.27748 -122.56295,56.96638 -15.62294,3.7542 -31.71728,6.4807 -47.28068,8.0085 -16.15684,1.5863 -17.38406,1.6188 -63.82723,1.6907 -24.40352,0.037 -45.92367,0.024 -47.82421,-0.034 z M 459.7055,819.1787 c 64.88472,-73.40031 117.97426,-133.65346 117.97426,-133.89169 0,-0.23822 -36.41465,-34.67697 -80.92105,-76.52826 -44.50749,-41.85475 -80.92104,-76.23135 -80.92104,-76.39363 0,-0.1633 23.56711,-21.873 52.3722,-48.24532 95.3711,-87.31391 110.19832,-100.91333 110.31293,-101.18263 0.0636,-0.14674 -11.88652,-13.22517 -26.55586,-29.0632 -14.66932,-15.83768 -68.31976,-73.78699 -119.22405,-128.77852 l -92.55356,-99.9846 -0.18192,168.04732 -0.18191,168.04734 -63.80137,-59.98386 -63.80135,-59.98386 -13.66507,12.52432 c -7.51566,6.88844 -17.18182,15.81972 -21.48058,19.84742 l -7.81518,7.32312 17.83517,16.72566 c 17.02763,15.96819 112.53887,105.79864 132.96418,125.05326 l 9.72495,9.16882 -79.97449,73.17933 c -43.98614,40.24935 -79.98186,73.31399 -79.99294,73.47972 -0.0111,0.16365 7.23019,7.19329 16.08917,15.62121 8.85936,8.42757 18.31068,17.4362 21.00325,20.01866 l 4.89557,4.69544 64.00842,-58.60288 64.00841,-58.60285 0.0914,176.31953 0.0915,176.31955 0.86254,-0.84094 c 0.47439,-0.46249 53.95105,-60.89531 118.83581,-134.29907 z M 400.37816,697.99569 c 0,-63.2154 0.12684,-99.39422 0.34834,-99.32171 0.19151,0.0621 21.86586,20.36115 48.16438,45.10699 46.98484,44.21281 47.80571,45.00689 47.15865,45.67322 -0.36126,0.37353 -21.64403,24.44168 -47.29546,53.48624 -25.65145,29.04319 -47.02924,53.18588 -47.50992,53.64851 l -0.86964,0.84123 v -99.43564 z m 0,-326.27227 v -95.18907 l 0.87371,0.84124 c 0.48057,0.46271 22.0075,23.68005 47.83901,51.59426 l 46.96269,50.75186 -1.73969,1.57675 c -0.95684,0.86728 -22.34285,20.43436 -47.5247,43.48088 -25.18185,23.04824 -45.92738,41.95833 -46.09745,42.02046 -0.1738,0.0633 -0.31282,-42.12404 -0.31282,-95.07513 z"
     id="path2"
     inkscape:connector-curvature="0"
     style="fill:#29abe2;fill-opacity:1;stroke-width:3.57293224" />
</svg>
