<?xml version="1.0" encoding="UTF-8" standalone="no"?>
<svg
   xmlns:dc="http://purl.org/dc/elements/1.1/"
   xmlns:cc="http://creativecommons.org/ns#"
   xmlns:rdf="http://www.w3.org/1999/02/22-rdf-syntax-ns#"
   xmlns:svg="http://www.w3.org/2000/svg"
   xmlns="http://www.w3.org/2000/svg"
   xmlns:sodipodi="http://sodipodi.sourceforge.net/DTD/sodipodi-0.dtd"
   xmlns:inkscape="http://www.inkscape.org/namespaces/inkscape"
   enable-background="new 0 0 142 142"
   version="1.1"
   viewBox="0 0 380 272"
   xml:space="preserve"
   id="svg239"
   sodipodi:docname="email.svg"
   width="380"
   height="272"
   inkscape:version="0.92.5 (0.92.5+69)"><metadata
   id="metadata245"><rdf:RDF><cc:Work
       rdf:about=""><dc:format>image/svg+xml</dc:format><dc:type
         rdf:resource="http://purl.org/dc/dcmitype/StillImage" /><dc:title></dc:title></cc:Work></rdf:RDF></metadata><defs
   id="defs243" /><sodipodi:namedview
   pagecolor="#ffffff"
   bordercolor="#666666"
   borderopacity="1"
   objecttolerance="10"
   gridtolerance="10"
   guidetolerance="10"
   inkscape:pageopacity="0"
   inkscape:pageshadow="2"
   inkscape:window-width="1853"
   inkscape:window-height="1025"
   id="namedview241"
   showgrid="false"
   inkscape:zoom="2.1014019"
   inkscape:cx="179.14826"
   inkscape:cy="106.59259"
   inkscape:window-x="1987"
   inkscape:window-y="27"
   inkscape:window-maximized="1"
   inkscape:current-layer="svg239" />
	
	<path
   d="m 200.59239,33.644121 c -66.34888,0 -110.287797,52.687322 -110.287797,113.414779 0,58.3425 43.053887,93.76516 92.006607,93.76516 21.23661,0 36.57038,-2.68004 54.26288,-10.71613 l -5.30615,-16.96553 c -11.79767,5.95431 -28.01646,9.22857 -43.05789,9.22857 -43.93892,0 -75.19513,-27.98079 -75.19513,-77.98807 0,-57.154066 39.22144,-92.572688 84.63407,-92.572688 45.70896,0 70.48567,29.767488 70.48567,68.759498 0,34.52932 -15.92646,50.90063 -28.60915,50.30641 -8.25757,-0.29913 -10.31996,-8.33522 -7.37254,-25.89901 l 8.84625,-55.367362 c -7.37655,-3.876565 -22.11763,-7.150827 -35.09667,-7.150827 -42.46521,0 -69.30431,32.746659 -69.30431,69.357759 0,24.4074 14.15641,38.99202 33.03028,38.99202 15.92645,0 28.90149,-8.03609 38.33642,-22.91984 h 0.58468 c 1.4737,15.48201 11.50132,22.91984 25.36138,22.91984 31.84891,0 56.03293,-27.38658 56.03293,-71.14446 0.012,-50.003237 -37.15505,-86.020119 -89.35153,-86.020119 z m 5.60649,101.801249 c -2.65107,17.26466 -14.1524,31.25506 -25.06504,31.25506 -9.73528,0 -14.74909,-7.14274 -14.74909,-18.4531 0,-22.91983 15.33377,-42.27031 34.79632,-42.27031 3.5401,0 6.78386,0.59421 9.14259,1.19247 z"
   id="path219"
   style="fill:#29abe2;fill-opacity:1;stroke-width:4.02342558"
   inkscape:connector-curvature="0" />


<path
   style="fill:#29abe2;fill-opacity:1;stroke-width:0.67692703"
   d="M 24.611196,270.9809 C 18.913242,269.43194 14.307569,266.69538 9.8845883,262.23082 7.605996,259.9308 4.9407758,256.45357 3.9618775,254.50365 -0.0251103,246.5617 0.14074588,252.08162 0.33568376,133.81855 L 0.51425067,25.492178 2.1986664,21.266036 C 5.7051415,12.468336 12.666047,5.2623323 20.900389,1.9057286 L 24.769844,0.32842359 188.80939,0.15298782 c 180.86348,-0.19362611 167.1465,-0.50363 174.9115,3.95445968 4.37491,2.5118036 10.41495,8.9021925 12.68157,13.4172385 3.92303,7.814532 3.7584,2.667028 3.76925,117.849224 0.008,73.09305 -0.21585,107.0486 -0.72027,109.83653 -2.19483,12.12957 -11.68158,22.46572 -23.47068,25.57215 -4.13231,1.08883 -15.44173,1.16802 -166.13813,1.16285 -137.01831,-0.004 -162.242454,-0.15199 -165.231426,-0.9645 z M 346.05313,251.45624 c -0.28593,-0.46758 -14.25452,-17.6292 -31.04149,-38.13691 -18.1096,-22.12354 -30.33464,-37.61165 -30.06172,-38.08573 0.25301,-0.43944 1.27828,-2.02313 2.27841,-3.51939 1.00013,-1.49621 3.09344,-5.28373 4.65179,-8.41671 1.55836,-3.13294 3.06606,-5.42828 3.35046,-5.10077 0.28441,0.32742 14.82228,18.10303 32.30638,39.50106 17.48409,21.39803 32.08541,39.09024 32.44735,39.31604 0.42718,0.26639 0.65813,-34.9447 0.65813,-100.34142 0,-65.005335 -0.23267,-100.671548 -0.65556,-100.525298 -0.36042,0.124503 -14.3715,12.315551 -31.13544,27.090759 -16.76391,14.775249 -30.64326,26.743445 -30.843,26.596022 -0.19976,-0.147544 -1.15386,-2.595762 -2.12026,-5.440813 -0.96639,-2.845051 -2.62322,-6.936463 -3.68184,-9.092019 l -1.92475,-3.919251 1.66054,-1.629734 c 0.91329,-0.896339 14.04115,-12.522193 29.17302,-25.835221 l 27.51252,-24.205528 -159.23386,0.0081 -159.23384,0.0081 9.43273,9.377972 c 5.187999,5.157933 19.574649,19.358003 31.970332,31.555761 l 22.537599,22.177749 -3.503696,7.447814 c -1.927032,4.096264 -3.503699,7.624099 -3.503699,7.839554 0,0.215454 -0.307917,1.209294 -0.684257,2.208423 -0.671302,1.78225 -1.178686,1.32741 -26.782221,-24.008056 C 45.272881,62.123126 30.421052,47.522343 26.622695,43.880555 l -6.906106,-6.621689 v 96.409114 c 0,91.77877 0.05663,96.35684 1.17909,95.32221 0.6485,-0.59777 13.913278,-16.69704 29.477284,-35.77616 15.564006,-19.07913 28.486416,-34.70488 28.716458,-34.72391 0.230027,-0.0202 0.629258,2.03117 0.887128,4.55603 0.257859,2.5249 1.322761,7.95722 2.366418,12.07184 1.516654,5.97941 1.733089,7.68591 1.078222,8.50128 -0.450642,0.56107 -13.039241,15.97245 -27.974675,34.24753 -20.64847,25.26554 -26.931434,33.37047 -26.220939,33.82466 0.529622,0.33874 69.468066,0.60182 159.140845,0.60772 126.39529,0.008 158.10195,-0.16048 157.68671,-0.83971 z"
   id="path247"
   inkscape:connector-curvature="0" /></svg>