<?xml version="1.0" encoding="UTF-8" standalone="no"?>
<svg
   xmlns:dc="http://purl.org/dc/elements/1.1/"
   xmlns:cc="http://creativecommons.org/ns#"
   xmlns:rdf="http://www.w3.org/1999/02/22-rdf-syntax-ns#"
   xmlns:svg="http://www.w3.org/2000/svg"
   xmlns="http://www.w3.org/2000/svg"
   xmlns:sodipodi="http://sodipodi.sourceforge.net/DTD/sodipodi-0.dtd"
   xmlns:inkscape="http://www.inkscape.org/namespaces/inkscape"
   enable-background="new 0 0 142 142"
   version="1.1"
   viewBox="0 0 95 68"
   xml:space="preserve"
   id="svg239"
   sodipodi:docname="email.svg"
   width="95"
   height="68"
   inkscape:version="0.92.5 (0.92.5+69)"><metadata
   id="metadata245"><rdf:RDF><cc:Work
       rdf:about=""><dc:format>image/svg+xml</dc:format><dc:type
         rdf:resource="http://purl.org/dc/dcmitype/StillImage" /><dc:title /></cc:Work></rdf:RDF></metadata><defs
   id="defs243" /><sodipodi:namedview
   pagecolor="#ffffff"
   bordercolor="#666666"
   borderopacity="1"
   objecttolerance="10"
   gridtolerance="10"
   guidetolerance="10"
   inkscape:pageopacity="0"
   inkscape:pageshadow="2"
   inkscape:window-width="1853"
   inkscape:window-height="1025"
   id="namedview241"
   showgrid="false"
   inkscape:zoom="5.943662"
   inkscape:cx="44.585308"
   inkscape:cy="46.309548"
   inkscape:window-x="1987"
   inkscape:window-y="27"
   inkscape:window-maximized="1"
   inkscape:current-layer="svg239" />
	
	<path
   d="m 50.281245,8.993668 c -16.568,0 -27.54,13.034 -27.54,28.057002 0,14.433 10.751,23.196 22.975,23.196 5.303,0 9.132,-0.663 13.55,-2.651 l -1.325,-4.197 c -2.946,1.473 -6.996,2.283 -10.752,2.283 -10.972,0 -18.777,-6.922 -18.777,-19.293 0,-14.139002 9.794,-22.901002 21.134,-22.901002 11.414,0 17.601,7.364 17.601,17.010002 0,8.542 -3.977,12.592 -7.144,12.445 -2.062,-0.074 -2.577,-2.062 -1.841,-6.407 l 2.209,-13.697002 c -1.842,-0.959 -5.523,-1.769 -8.764,-1.769 -10.604,0 -17.306,8.101002 -17.306,17.158002 0,6.038 3.535,9.646 8.248,9.646 3.977,0 7.217,-1.988 9.573,-5.67 h 0.146 c 0.368,3.83 2.872,5.67 6.333,5.67 7.953,0 13.992,-6.775 13.992,-17.6 0.003,-12.370002 -9.278,-21.280002 -22.312,-21.280002 z m 1.4,25.184002 c -0.662,4.271 -3.534,7.732 -6.259,7.732 -2.431,0 -3.683,-1.767 -3.683,-4.565 0,-5.67 3.829,-10.457 8.689,-10.457 0.884,0 1.694,0.147 2.283,0.295 z"
   id="path219"
   style="fill:#29abe2;fill-opacity:1"
   inkscape:connector-curvature="0" />


<path
   style="fill:#29abe2;fill-opacity:1;stroke-width:0.16824645"
   d="M 6.336926,67.70699 C 4.914088,67.3238 3.764004,66.64682 2.65954,65.54236 2.090552,64.97337 1.425019,64.11316 1.180578,63.63078 0.184986,61.66607 0.226402,63.03161 0.27508,33.77522 L 0.31967,6.977014 0.740286,5.931528 C 1.615889,3.755124 3.354099,1.972467 5.410299,1.142099 L 6.376542,0.751896 47.33891,0.708486 c 45.163476,-0.04786 41.738206,-0.124583 43.677206,0.978279 1.09246,0.621371 2.60072,2.202252 3.16672,3.319209 0.97962,1.933189 0.93851,0.659776 0.94122,29.154006 0.002,18.08205 -0.0539,26.48211 -0.17986,27.1718 -0.54807,3.00066 -2.91701,5.55766 -5.86087,6.32614 -1.03188,0.26936 -3.85596,0.28895 -41.486405,0.28767 -34.214887,-10e-4 -40.513616,-0.0376 -41.259993,-0.2386 z M 86.604294,62.8769 c -0.0714,-0.11567 -3.5595,-4.36118 -7.75138,-9.43446 -4.522155,-5.47301 -7.574874,-9.30452 -7.506722,-9.4218 0.06318,-0.10871 0.319199,-0.50049 0.568942,-0.87064 0.249742,-0.37014 0.772463,-1.30711 1.1616,-2.08216 0.389138,-0.77504 0.765628,-1.34287 0.836645,-1.26185 0.07102,0.081 3.701275,4.4784 8.067235,9.77193 4.36596,5.29353 8.01206,9.6703 8.10244,9.72616 0.10667,0.0659 0.16434,-8.64476 0.16434,-24.82286 0,-16.081277 -0.0581,-24.904529 -0.1637,-24.868345 -0.09,0.03084 -3.58871,3.046663 -7.77484,6.701817 -4.18612,3.655154 -7.651937,6.615897 -7.701816,6.579428 -0.04988,-0.03647 -0.28813,-0.642154 -0.529449,-1.345971 -0.241319,-0.703816 -0.655046,-1.715966 -0.919393,-2.249223 l -0.48063,-0.969557 0.414652,-0.403166 c 0.22806,-0.22174 3.506222,-3.097791 7.284806,-6.391224 l 6.87016,-5.98806 -39.762339,0.0016 -39.762333,0.0016 2.35545,2.319966 c 1.295497,1.275986 4.887992,4.788859 7.983322,7.80639 l 5.627871,5.486419 -0.874909,1.842465 c -0.4812,1.013355 -0.87491,1.886078 -0.87491,1.939384 0,0.0533 -0.07689,0.299154 -0.170866,0.546331 -0.167631,0.4409 -0.29433,0.32838 -6.687797,-5.939212 C 11.496362,16.038118 7.787707,12.426119 6.839218,11.525198 L 5.114692,9.887101 V 33.73717 c 0,22.7046 0.01414,23.83714 0.294431,23.58119 0.161937,-0.14788 3.4742891,-4.13058 7.360782,-8.85045 3.886493,-4.71987 7.113352,-8.58543 7.170796,-8.59014 0.05744,-0.005 0.157132,0.50248 0.221525,1.12709 0.06439,0.62462 0.330307,1.96849 0.590919,2.98638 0.378724,1.47921 0.43277,1.90137 0.269243,2.10308 -0.11253,0.1388 -3.256033,3.95133 -6.985565,8.47229 -5.1561359,6.25029 -6.725057,8.25532 -6.547639,8.36768 0.132252,0.0838 17.346893,0.14888 39.73911,0.15034 31.56221,0.002 39.47969,-0.0397 39.376,-0.20773 z"
   id="path247"
   inkscape:connector-curvature="0" /></svg>