<?xml version="1.0" encoding="UTF-8" standalone="no"?>
<svg
   xmlns:dc="http://purl.org/dc/elements/1.1/"
   xmlns:cc="http://creativecommons.org/ns#"
   xmlns:rdf="http://www.w3.org/1999/02/22-rdf-syntax-ns#"
   xmlns:svg="http://www.w3.org/2000/svg"
   xmlns="http://www.w3.org/2000/svg"
   xmlns:sodipodi="http://sodipodi.sourceforge.net/DTD/sodipodi-0.dtd"
   xmlns:inkscape="http://www.inkscape.org/namespaces/inkscape"
   data-name="Layer 1"
   viewBox="0 0 790 460"
   version="1.1"
   id="svg4653"
   sodipodi:docname="laptop.svg"
   width="790"
   height="460"
   inkscape:version="0.92.5 (0.92.5+69)">
  <metadata
     id="metadata4657">
    <rdf:RDF>
      <cc:Work
         rdf:about="">
        <dc:format>image/svg+xml</dc:format>
        <dc:type
           rdf:resource="http://purl.org/dc/dcmitype/StillImage" />
        <dc:title></dc:title>
      </cc:Work>
    </rdf:RDF>
  </metadata>
  <sodipodi:namedview
     pagecolor="#ffffff"
     bordercolor="#666666"
     borderopacity="1"
     objecttolerance="10"
     gridtolerance="10"
     guidetolerance="10"
     inkscape:pageopacity="0"
     inkscape:pageshadow="2"
     inkscape:window-width="1853"
     inkscape:window-height="1025"
     id="namedview4655"
     showgrid="false"
     inkscape:zoom="0.7125"
     inkscape:cx="464.5614"
     inkscape:cy="315.4386"
     inkscape:window-x="1987"
     inkscape:window-y="27"
     inkscape:window-maximized="1"
     inkscape:current-layer="svg4653" />
  <defs
     id="defs4411">
    <style
       id="style4368">.cls-1{fill:#040404;}.cls-2{fill:#fff;}.cls-3{fill:#4d4d4d;}.cls-4{fill:#86328c;}.cls-5{fill:#f7f7f7;}.cls-6{fill:#ec008c;}.cls-7{fill:#0083ca;}.cls-8{fill:#999;}.cls-9{fill:#ed1164;}.cls-10{fill:#afafaf;}.cls-11{fill:#919296;}.cls-12{fill:url(#e);}.cls-13{fill:#464142;}.cls-14{fill:url(#d);}.cls-15{fill:#1d1e21;}.cls-16{fill:#0d0f12;}.cls-17{fill:#1c1e20;}.cls-18{fill:#dcdde0;}.cls-19{fill:#cecece;}.cls-20{stroke:#0c0c0c;fill:url(#c);}.cls-20,.cls-22,.cls-26{stroke-miterlimit:10;}.cls-21{opacity:0.63;}.cls-22{fill:none;stroke:#424242;}.cls-22,.cls-28{opacity:0.55;}.cls-23{fill:#191918;}.cls-24{fill:#423f43;}.cls-25{fill:#666;}.cls-26{fill:url(#b);stroke:url(#a);}.cls-27{opacity:0.93;}</style>
    <linearGradient
       id="e"
       x1="635.28003"
       x2="1420.2"
       y1="750.66998"
       y2="750.66998"
       gradientUnits="userSpaceOnUse"
       gradientTransform="translate(-632.98246,-316.84211)">
      <stop
         stop-color="#606162"
         offset="0"
         id="stop4370" />
      <stop
         stop-color="#b7babb"
         offset=".12"
         id="stop4372" />
      <stop
         stop-color="#a2a5a6"
         offset=".36"
         id="stop4374" />
      <stop
         stop-color="#c9cccd"
         offset=".51"
         id="stop4376" />
      <stop
         stop-color="#848687"
         offset=".73"
         id="stop4378" />
      <stop
         stop-color="#9c9fa0"
         offset=".88"
         id="stop4380" />
      <stop
         stop-color="#4c4d4e"
         offset="1"
         id="stop4382" />
    </linearGradient>
    <linearGradient
       id="d"
       x1="1023.8"
       x2="1023.8"
       y1="738.51001"
       y2="749.87"
       gradientUnits="userSpaceOnUse"
       gradientTransform="translate(-632.98246,-316.84211)">
      <stop
         stop-color="#9c9fa0"
         offset="0"
         id="stop4385" />
      <stop
         stop-color="#a2a5a6"
         offset=".24"
         id="stop4387" />
      <stop
         stop-color="#4c4d4e"
         offset="1"
         id="stop4389" />
    </linearGradient>
    <linearGradient
       id="c"
       x1="1564.1"
       x2="1572.8"
       y1="765.09998"
       y2="750.06"
       gradientUnits="userSpaceOnUse">
      <stop
         stop-color="#0a0a0a"
         offset="0"
         id="stop4392" />
      <stop
         stop-color="#1b1b1b"
         offset=".57"
         id="stop4394" />
      <stop
         stop-color="#090909"
         offset="1"
         id="stop4396" />
    </linearGradient>
    <radialGradient
       id="b"
       cx="390.29001"
       cy="758.76001"
       r="10.65"
       gradientTransform="matrix(0.67172059,0.7408046,-0.44448276,0.40303235,465.38,163.82)"
       gradientUnits="userSpaceOnUse">
      <stop
         stop-color="#2a2a2a"
         offset="0"
         id="stop4399" />
      <stop
         stop-color="#090909"
         offset="1"
         id="stop4401" />
    </radialGradient>
    <radialGradient
       id="a"
       cx="390.29001"
       cy="758.76001"
       r="11.15"
       gradientTransform="rotate(47.8,390.29398,758.7487)"
       gradientUnits="userSpaceOnUse">
      <stop
         stop-color="#464646"
         offset=".13"
         id="stop4404" />
      <stop
         stop-color="#2b2b2b"
         offset=".37"
         id="stop4406" />
      <stop
         stop-color="#090909"
         offset="1"
         id="stop4408" />
    </radialGradient>
  </defs>
  <path
     class="cls-1"
     d="m 115.76754,3.887894 h 562.25 a 35.18,35.18 0 0 1 35.18,35.179992 V 419.89789 H 80.587544 V 39.067886 A 35.18,35.18 0 0 1 115.76754,3.887894 Z"
     id="path4413"
     inkscape:connector-curvature="0"
     style="fill:#040404" />
  <rect
     class="cls-2"
     x="112.69753"
     y="42.177872"
     width="570.87"
     height="342.5"
     rx="2.21"
     ry="2.21"
     id="rect4415"
     style="fill:#ffffff" />
  <ellipse
     class="cls-3"
     cx="397.8176"
     cy="25.10791"
     rx="3.6199999"
     ry="2.1500001"
     id="ellipse4417"
     style="fill:#4d4d4d" />
  <image
     width="77"
     height="75"
     id="image4419"
     x="358.72757"
     y="-12.612091" />
  <rect
     class="cls-4"
     x="111.88753"
     y="58.917892"
     width="570.87"
     height="23.16"
     id="rect4421"
     style="fill:#86328c" />
  <rect
     class="cls-4"
     x="161.57755"
     y="92.587883"
     width="464.57001"
     height="120.11"
     id="rect4423"
     style="fill:#86328c" />
  <rect
     class="cls-5"
     x="246.46754"
     y="144.11787"
     width="294.79001"
     height="24.48"
     id="rect4425"
     style="fill:#f7f7f7" />
  <rect
     class="cls-6"
     x="478.41757"
     y="144.11787"
     width="62.790001"
     height="24.77"
     id="rect4427"
     style="fill:#ec008c" />
  <rect
     class="cls-7"
     x="321.77756"
     y="226.0779"
     width="143.28999"
     height="63.189999"
     id="rect4429"
     style="fill:#0083ca" />
  <rect
     class="cls-7"
     x="482.8176"
     y="224.61794"
     width="143.28999"
     height="63.189999"
     id="rect4431"
     style="fill:#0083ca" />
  <rect
     class="cls-7"
     x="161.57755"
     y="226.0779"
     width="143.28999"
     height="63.189999"
     id="rect4433"
     style="fill:#0083ca" />
  <rect
     class="cls-8"
     x="322.21756"
     y="299.46793"
     width="143.28999"
     height="4.21"
     id="rect4435"
     style="fill:#999999" />
  <rect
     class="cls-8"
     x="322.21756"
     y="311.54794"
     width="143.28999"
     height="4.21"
     id="rect4437"
     style="fill:#999999" />
  <rect
     class="cls-8"
     x="322.21756"
     y="323.6279"
     width="143.28999"
     height="4.21"
     id="rect4439"
     style="fill:#999999" />
  <rect
     class="cls-8"
     x="322.21756"
     y="335.71793"
     width="143.28999"
     height="4.21"
     id="rect4441"
     style="fill:#999999" />
  <rect
     class="cls-9"
     x="161.57755"
     y="349.80795"
     width="464.57001"
     height="34.709999"
     id="rect4443"
     style="fill:#ed1164" />
  <rect
     class="cls-8"
     x="161.57755"
     y="298.99796"
     width="143.28999"
     height="4.21"
     id="rect4445"
     style="fill:#999999" />
  <rect
     class="cls-8"
     x="161.57755"
     y="311.07791"
     width="143.28999"
     height="4.21"
     id="rect4447"
     style="fill:#999999" />
  <rect
     class="cls-8"
     x="161.57755"
     y="323.15793"
     width="143.28999"
     height="4.21"
     id="rect4449"
     style="fill:#999999" />
  <rect
     class="cls-8"
     x="161.57755"
     y="335.23795"
     width="143.28999"
     height="4.21"
     id="rect4451"
     style="fill:#999999" />
  <rect
     class="cls-8"
     x="482.8176"
     y="299.46793"
     width="143.28999"
     height="4.21"
     id="rect4453"
     style="fill:#999999" />
  <rect
     class="cls-8"
     x="482.8176"
     y="311.54794"
     width="143.28999"
     height="4.21"
     id="rect4455"
     style="fill:#999999" />
  <rect
     class="cls-8"
     x="482.8176"
     y="323.6279"
     width="143.28999"
     height="4.21"
     id="rect4457"
     style="fill:#999999" />
  <rect
     class="cls-8"
     x="482.8176"
     y="335.71793"
     width="143.28999"
     height="4.21"
     id="rect4459"
     style="fill:#999999" />
  <rect
     class="cls-8"
     x="484.91757"
     y="68.297897"
     width="69.349998"
     height="5.75"
     id="rect4461"
     style="fill:#999999" />
  <rect
     class="cls-10"
     x="397.8176"
     y="68.297897"
     width="69.349998"
     height="5.75"
     id="rect4463"
     style="fill:#afafaf" />
  <rect
     class="cls-8"
     x="227.4875"
     y="68.297897"
     width="69.349998"
     height="5.75"
     id="rect4465"
     style="fill:#999999" />
  <rect
     class="cls-8"
     x="310.79758"
     y="68.297897"
     width="69.349998"
     height="5.75"
     id="rect4467"
     style="fill:#999999" />
  <path
     class="cls-11"
     d="m 781.81754,440.33789 c 0,6.37 -25.13,15.61 -29.82,15.61 H 40.637545 c -4.69,0 -29.820001,-9.25 -29.820001,-15.61 z"
     id="path4469"
     inkscape:connector-curvature="0"
     style="fill:#919296" />
  <path
     class="cls-12"
     d="M 2.2975441,419.76789 H 787.16754 v 5.24 a 22.88,22.88 0 0 1 -22.88,22.88 H 24.617545 a 22.32,22.32 0 0 1 -22.3200009,-22.32 z"
     id="path4471"
     inkscape:connector-curvature="0"
     style="fill:url(#e)" />
  <path
     class="cls-13"
     d="m 763.01754,452.15789 c 0,2.75 -23.93,6.74 -28.39,6.74 H 57.297545 c -4.46,0 -28.39,-4 -28.39,-6.74 z"
     id="path4473"
     inkscape:connector-curvature="0"
     style="fill:#464142" />
  <path
     class="cls-14"
     d="m 445.41754,421.66789 a 11.57,11.57 0 0 1 -11.25,11.36 h -87.7 c -6.34,0 -10.24,-5.68 -10.24,-11.35 z"
     id="path4475"
     inkscape:connector-curvature="0"
     style="fill:url(#d)" />
  <path
     class="cls-15"
     d="m 282.46754,456.84789 c 2.13,-1.65 8.12,-1.61 9.65,0.06 a 17.18,17.18 0 0 1 -9.65,-0.06 z"
     id="path4477"
     inkscape:connector-curvature="0"
     style="fill:#1d1e21" />
  <path
     class="cls-15"
     d="m 495.21754,457.28789 c 2.13,-1.65 8.12,-1.61 9.65,0.06 a 17.18,17.18 0 0 1 -9.65,-0.06 z"
     id="path4479"
     inkscape:connector-curvature="0"
     style="fill:#1d1e21" />
  <path
     class="cls-15"
     d="m 57.017545,456.52789 c 2.13,-1.65 8.12,-1.61 9.65,0.06 a 17.18,17.18 0 0 1 -9.65,-0.06 z"
     id="path4481"
     inkscape:connector-curvature="0"
     style="fill:#1d1e21" />
  <path
     class="cls-15"
     d="m 717.31754,457.07789 c 2.13,-1.65 8.12,-1.61 9.65,0.06 a 17.18,17.18 0 0 1 -9.65,-0.06 z"
     id="path4483"
     inkscape:connector-curvature="0"
     style="fill:#1d1e21" />
  <path
     class="cls-16"
     d="m 710.01754,435.65789 a 5.94,5.94 0 0 1 -1.58,0.47 h -23 a 2.07,2.07 0 0 1 -1.57,-0.51 c 8.71,-0.21 17.44,-0.27 26.15,0.04 z"
     id="path4485"
     inkscape:connector-curvature="0"
     style="fill:#0d0f12" />
  <path
     class="cls-17"
     d="m 683.41754,437.34789 c -1,-1.23 -1.89,-2.44 0.42,-3.24 5.82,0.52 11.65,0.15 17.47,0.21 a 53.36,53.36 0 0 0 8.71,-0.16 c 2.3,1.13 1.26,2.22 0,3.3 -1.55,0.66 -3.18,0.29 -4.76,0.3 -6.36,0.05 -12.73,0 -19.1,0 -0.93,-0.02 -1.93,0.4 -2.74,-0.41 z"
     id="path4487"
     inkscape:connector-curvature="0"
     style="fill:#1c1e20" />
  <path
     class="cls-18"
     d="m 683.41754,437.34789 26.58,0.08 a 3.73,3.73 0 0 1 -0.05,0.47 q -13.18,0.07 -26.36,0.09 c -0.07,0 -0.2,-0.09 -0.2,-0.14 a 3.22,3.22 0 0 1 0.03,-0.5 z"
     id="path4489"
     inkscape:connector-curvature="0"
     style="fill:#dcdde0" />
  <path
     class="cls-16"
     d="m 710.01754,434.15789 a 5.94,5.94 0 0 1 -1.58,0.47 h -23 a 2.07,2.07 0 0 1 -1.57,-0.51 c 8.71,-0.23 17.44,-0.29 26.15,0.04 z"
     id="path4491"
     inkscape:connector-curvature="0"
     style="fill:#0d0f12" />
  <path
     class="cls-16"
     d="m 710.01754,434.15789 a 5.94,5.94 0 0 1 -1.58,0.47 h -23 a 2.07,2.07 0 0 1 -1.57,-0.51 c 8.71,-0.23 17.44,-0.29 26.15,0.04 z"
     id="path4493"
     inkscape:connector-curvature="0"
     style="fill:#0d0f12" />
  <path
     class="cls-17"
     d="m 683.41754,437.34789 c -1,-1.23 -1.89,-2.44 0.42,-3.24 5.82,0.52 11.65,0.15 17.47,0.21 a 53.36,53.36 0 0 0 8.71,-0.16 c 2.3,1.13 1.26,2.22 0,3.3 -1.55,0.66 -3.18,0.29 -4.76,0.3 -6.36,0.05 -12.73,0 -19.1,0 -0.93,-0.02 -1.93,0.4 -2.74,-0.41 z"
     id="path4495"
     inkscape:connector-curvature="0"
     style="fill:#1c1e20" />
  <path
     class="cls-19"
     d="m 683.41754,437.34789 26.58,0.08 a 3.73,3.73 0 0 1 -0.05,0.47 q -13.18,0.07 -26.36,0.09 c -0.07,0 -0.2,-0.09 -0.2,-0.14 a 3.22,3.22 0 0 1 0.03,-0.5 z"
     id="path4497"
     inkscape:connector-curvature="0"
     style="fill:#cecece" />
  <path
     class="cls-16"
     d="m 710.01754,434.15789 a 5.94,5.94 0 0 1 -1.58,0.47 h -23 a 2.07,2.07 0 0 1 -1.57,-0.51 c 8.71,-0.23 17.44,-0.29 26.15,0.04 z"
     id="path4499"
     inkscape:connector-curvature="0"
     style="fill:#0d0f12" />
</svg>
