<?xml version="1.0" encoding="UTF-8" standalone="no"?>
<svg
   xmlns:dc="http://purl.org/dc/elements/1.1/"
   xmlns:cc="http://creativecommons.org/ns#"
   xmlns:rdf="http://www.w3.org/1999/02/22-rdf-syntax-ns#"
   xmlns:svg="http://www.w3.org/2000/svg"
   xmlns="http://www.w3.org/2000/svg"
   xmlns:sodipodi="http://sodipodi.sourceforge.net/DTD/sodipodi-0.dtd"
   xmlns:inkscape="http://www.inkscape.org/namespaces/inkscape"
   width="723"
   height="712"
   version="1.1"
   viewBox="0 0 723.00001 712.00001"
   id="svg1590"
   sodipodi:docname="no-soundless.svg"
   inkscape:version="0.92.5 (0.92.5+69)">
  <metadata
     id="metadata1594">
    <rdf:RDF>
      <cc:Work
         rdf:about="">
        <dc:format>image/svg+xml</dc:format>
        <dc:type
           rdf:resource="http://purl.org/dc/dcmitype/StillImage" />
        <dc:title></dc:title>
      </cc:Work>
    </rdf:RDF>
  </metadata>
  <sodipodi:namedview
     pagecolor="#ffffff"
     bordercolor="#666666"
     borderopacity="1"
     objecttolerance="10"
     gridtolerance="10"
     guidetolerance="10"
     inkscape:pageopacity="0"
     inkscape:pageshadow="2"
     inkscape:window-width="1853"
     inkscape:window-height="1025"
     id="namedview1592"
     showgrid="false"
     inkscape:zoom="0.295"
     inkscape:cx="400"
     inkscape:cy="400"
     inkscape:window-x="1987"
     inkscape:window-y="27"
     inkscape:window-maximized="1"
     inkscape:current-layer="svg1590" />
  <defs
     id="defs1576">
    <linearGradient
       id="c"
       x1="294.98999"
       x2="-124.28"
       y1="554.71002"
       y2="964.83002"
       gradientUnits="userSpaceOnUse">
      <stop
         offset="0"
         id="stop1565" />
      <stop
         stop-opacity="0"
         offset="1"
         id="stop1567" />
    </linearGradient>
    <mask
       id="b"
       maskUnits="userSpaceOnUse">
      <circle
         cx="400"
         cy="634.51001"
         r="780"
         style="color:#000000;isolation:auto;mix-blend-mode:normal;solid-color:#000000;fill:#ffffff;color-rendering:auto;image-rendering:auto;shape-rendering:auto"
         id="circle1570" />
    </mask>
    <mask
       id="a"
       maskUnits="userSpaceOnUse">
      <circle
         cx="400"
         cy="400"
         r="400"
         style="color:#000000;isolation:auto;mix-blend-mode:normal;solid-color:#000000;fill:#ffffff;color-rendering:auto;image-rendering:auto;shape-rendering:auto"
         id="circle1573" />
    </mask>
    <inkscape:path-effect
       effect="skeletal"
       id="path-effect822"
       is_visible="true"
       pattern="M 0,5 C 0,2.24 2.24,0 5,0 7.76,0 10,2.24 10,5 10,7.76 7.76,10 5,10 2.24,10 0,7.76 0,5 Z"
       copytype="single_stretched"
       prop_scale="1"
       scale_y_rel="false"
       spacing="0"
       normal_offset="0"
       tang_offset="0"
       prop_units="false"
       vertical_pattern="false"
       fuse_tolerance="0" />
    <inkscape:path-effect
       effect="skeletal"
       id="path-effect818"
       is_visible="true"
       pattern="M 0,5 C 0,2.24 2.24,0 5,0 7.76,0 10,2.24 10,5 10,7.76 7.76,10 5,10 2.24,10 0,7.76 0,5 Z"
       copytype="single_stretched"
       prop_scale="1"
       scale_y_rel="false"
       spacing="0"
       normal_offset="0"
       tang_offset="0"
       prop_units="false"
       vertical_pattern="false"
       fuse_tolerance="0" />
  </defs>
  <ellipse
     id="circle1578"
     style="color:#000000;isolation:auto;mix-blend-mode:normal;solid-color:#000000;fill:none;stroke:#29abe2;stroke-width:36.16351318;stroke-miterlimit:4;stroke-dasharray:none;stroke-opacity:1;color-rendering:auto;image-rendering:auto;shape-rendering:auto"
     cy="357.76273"
     cx="362.71182"
     rx="339.11145"
     ry="330.63687" />
  <g
     style="fill:#29abe2;fill-opacity:1;stroke:none;stroke-opacity:1"
     id="g1586"
     mask="url(#b)"
     transform="matrix(0.51282,0,0,0.51282,157.58186,6.948983)">
    <path
       inkscape:connector-curvature="0"
       style="fill:#29abe2;fill-opacity:1;fill-rule:evenodd;stroke:none;stroke-opacity:1"
       id="path1582"
       d="M 359.46,341.17 C 224.89,344.6251 176.42,472.69 169.35,541.61 142.04,888.64 88.395,901.4 23.3,904.92 c -17.863,0 -17.609,29.706 0,29.706 h 753.4 c 17.609,0 17.863,-29.706 0,-29.706 -65.096,-3.5224 -118.8,-21.45 -146.11,-368.48 -5.7731,-65.039 -55.477,-191.82 -190.05,-195.27 0,-119.38 -79.898,-116.36 -81.082,0 z" />
    <path
       inkscape:connector-curvature="0"
       id="path1584"
       style="color:#000000;isolation:auto;mix-blend-mode:normal;solid-color:#000000;fill:#29abe2;fill-opacity:1;stroke:none;stroke-opacity:1;color-rendering:auto;image-rendering:auto;shape-rendering:auto"
       d="m 323.14,950.41 a 79.994,79.994 0 0 0 -3.1361,21.951 79.994,79.994 0 0 0 80,80.002 79.994,79.994 0 0 0 80,-80.002 79.994,79.994 0 0 0 -3.0791,-21.951 h -153.78 z" />
  </g>
  <path
     style="fill:none;stroke:#29abe2;stroke-width:29.20000076;stroke-linecap:butt;stroke-linejoin:miter;stroke-miterlimit:4;stroke-dasharray:none;stroke-opacity:1"
     d="m 106.30508,555.28813 515.25424,-400"
     id="path2148"
     inkscape:connector-curvature="0" />
  <path
     transform="matrix(4.8033196,8.2192363,-6.60298,3.8587798,456.79469,-145.08805)"
     style="fill:#ff0000;stroke:none;stroke-width:1px;stroke-linecap:butt;stroke-linejoin:miter;stroke-opacity:1"
     d="M 6.3474578,69.504662 C 4.4164934,67.532613 16.498908,52.566902 33.317134,36.099056 50.135359,19.63121 65.352093,7.8665051 67.283058,9.8385539 69.214022,11.810603 57.131607,26.776314 40.313382,43.24416 23.495156,59.712006 8.2784222,71.476711 6.3474578,69.504662 Z"
     id="path816"
     inkscape:connector-curvature="0"
     inkscape:path-effect="#path-effect818"
     inkscape:original-d="M 6.3474578,69.504662 67.283052,9.8385595" />
  <path
     transform="matrix(4.8033196,8.2192363,-6.60298,3.8587798,473.74384,-104.41009)"
     style="fill:#ff0000;stroke:none;stroke-width:1px;stroke-linecap:butt;stroke-linejoin:miter;stroke-opacity:1"
     d="M 11.108051,6.0300849 C 13.308337,4.363849 26.184355,17.656396 39.849162,35.70095 53.513969,53.745503 62.818508,69.742665 60.618223,71.408901 58.417937,73.075137 45.541919,59.782589 31.877112,41.738036 18.212304,23.693483 8.9077651,7.6963208 11.108051,6.0300849 Z"
     id="path820"
     inkscape:connector-curvature="0"
     inkscape:path-effect="#path-effect822"
     inkscape:original-d="M 11.108051,6.0300849 60.618222,71.4089" />
</svg>
