<?xml version="1.0" encoding="UTF-8" standalone="no"?>
<svg
   xmlns:dc="http://purl.org/dc/elements/1.1/"
   xmlns:cc="http://creativecommons.org/ns#"
   xmlns:rdf="http://www.w3.org/1999/02/22-rdf-syntax-ns#"
   xmlns:svg="http://www.w3.org/2000/svg"
   xmlns="http://www.w3.org/2000/svg"
   xmlns:sodipodi="http://sodipodi.sourceforge.net/DTD/sodipodi-0.dtd"
   xmlns:inkscape="http://www.inkscape.org/namespaces/inkscape"
   enable-background="new 0 0 1920 1260"
   version="1.1"
   viewBox="0 0 1200 900"
   xml:space="preserve"
   id="svg12"
   sodipodi:docname="no-wifi.svg"
   width="1200"
   height="900"
   inkscape:version="0.92.5 (0.92.5+69)"><metadata
   id="metadata18"><rdf:RDF><cc:Work
       rdf:about=""><dc:format>image/svg+xml</dc:format><dc:type
         rdf:resource="http://purl.org/dc/dcmitype/StillImage" /><dc:title></dc:title></cc:Work></rdf:RDF></metadata><defs
   id="defs16"><inkscape:path-effect
     effect="skeletal"
     id="path-effect829"
     is_visible="true"
     pattern="M 0,5 C 0,2.24 2.24,0 5,0 7.76,0 10,2.24 10,5 10,7.76 7.76,10 5,10 2.24,10 0,7.76 0,5 Z"
     copytype="single_stretched"
     prop_scale="1"
     scale_y_rel="false"
     spacing="0"
     normal_offset="0"
     tang_offset="0"
     prop_units="false"
     vertical_pattern="false"
     fuse_tolerance="0" /><inkscape:path-effect
     effect="skeletal"
     id="path-effect825"
     is_visible="true"
     pattern="M 0,5 C 0,2.24 2.24,0 5,0 7.76,0 10,2.24 10,5 10,7.76 7.76,10 5,10 2.24,10 0,7.76 0,5 Z"
     copytype="single_stretched"
     prop_scale="1"
     scale_y_rel="false"
     spacing="0"
     normal_offset="0"
     tang_offset="0"
     prop_units="false"
     vertical_pattern="false"
     fuse_tolerance="0" /><inkscape:path-effect
     effect="skeletal"
     id="path-effect821"
     is_visible="true"
     pattern="M 0,5 C 0,2.24 2.24,0 5,0 7.76,0 10,2.24 10,5 10,7.76 7.76,10 5,10 2.24,10 0,7.76 0,5 Z"
     copytype="single_stretched"
     prop_scale="1"
     scale_y_rel="false"
     spacing="0"
     normal_offset="0"
     tang_offset="0"
     prop_units="false"
     vertical_pattern="false"
     fuse_tolerance="0" /><inkscape:path-effect
     effect="skeletal"
     id="path-effect822"
     is_visible="true"
     pattern="M 0,5 C 0,2.24 2.24,0 5,0 7.76,0 10,2.24 10,5 10,7.76 7.76,10 5,10 2.24,10 0,7.76 0,5 Z"
     copytype="single_stretched"
     prop_scale="1"
     scale_y_rel="false"
     spacing="0"
     normal_offset="0"
     tang_offset="0"
     prop_units="false"
     vertical_pattern="false"
     fuse_tolerance="0" /><inkscape:path-effect
     effect="skeletal"
     id="path-effect818"
     is_visible="true"
     pattern="M 0,5 C 0,2.24 2.24,0 5,0 7.76,0 10,2.24 10,5 10,7.76 7.76,10 5,10 2.24,10 0,7.76 0,5 Z"
     copytype="single_stretched"
     prop_scale="1"
     scale_y_rel="false"
     spacing="0"
     normal_offset="0"
     tang_offset="0"
     prop_units="false"
     vertical_pattern="false"
     fuse_tolerance="0" /></defs><sodipodi:namedview
   pagecolor="#ffffff"
   bordercolor="#666666"
   borderopacity="1"
   objecttolerance="10"
   gridtolerance="10"
   guidetolerance="10"
   inkscape:pageopacity="0"
   inkscape:pageshadow="2"
   inkscape:window-width="1853"
   inkscape:window-height="1025"
   id="namedview14"
   showgrid="false"
   inkscape:zoom="0.178125"
   inkscape:cx="78.596491"
   inkscape:cy="630"
   inkscape:window-x="1987"
   inkscape:window-y="27"
   inkscape:window-maximized="1"
   inkscape:current-layer="svg12" />
<g
   id="g10"
   transform="matrix(1.9286447,0,0,2.0764352,-788.17285,-1115.9125)"
   style="fill:#29abe2">
	<path
   d="m 1020,669.39 c -40.277,-40.277 -87.23,-71.467 -139.56,-92.705 -50.534,-20.511 -103.91,-30.91 -158.66,-30.91 -54.75,0 -108.12,10.399 -158.66,30.91 -52.324,21.237 -99.277,52.428 -139.55,92.705 -13.473,13.474 -13.473,35.317 0,48.791 13.473,13.474 35.318,13.472 48.79,0 137.53,-137.53 361.31,-137.53 498.84,0 6.737,6.736 15.566,10.104 24.396,10.104 8.83,0 17.658,-3.368 24.396,-10.104 13.473,-13.474 13.473,-35.318 0,-48.791 z"
   id="path2"
   inkscape:connector-curvature="0" />
	<path
   d="m 721.74,667.94 c -84.481,0 -163.95,32.939 -223.76,92.75 -13.473,13.474 -13.473,35.317 0,48.791 13.473,13.473 35.317,13.473 48.79,0 96.478,-96.479 253.46,-96.479 349.93,0 6.736,6.736 15.566,10.104 24.395,10.104 8.829,0 17.659,-3.368 24.395,-10.104 13.473,-13.474 13.473,-35.317 0,-48.791 -59.812,-59.81 -139.28,-92.75 -223.76,-92.75 z"
   id="path4"
   inkscape:connector-curvature="0" />
	<path
   d="m 721.74,792.71 c -51.632,0 -100.2,20.129 -136.75,56.68 -13.473,13.474 -13.473,35.317 0,48.791 13.472,13.472 35.316,13.472 48.79,0 48.5,-48.5 127.42,-48.5 175.92,0 6.736,6.736 15.565,10.104 24.395,10.104 8.829,0 17.659,-3.368 24.395,-10.104 13.473,-13.474 13.473,-35.317 0,-48.791 -36.551,-36.551 -85.116,-56.68 -136.75,-56.68 z"
   id="path6"
   inkscape:connector-curvature="0" />
	<circle
   cx="721.59998"
   cy="939.57001"
   r="28.652"
   id="circle8" />
</g>
<path
   transform="matrix(13.996087,0,0,11.003558,91.046231,16.403942)"
   style="fill:#ff0000;stroke:none;stroke-width:1px;stroke-linecap:butt;stroke-linejoin:miter;stroke-opacity:1"
   d="M 6.3474578,69.504662 C 4.4164934,67.532613 16.498908,52.566902 33.317134,36.099056 50.135359,19.63121 65.352093,7.8665051 67.283058,9.8385539 69.214022,11.810603 57.131607,26.776314 40.313382,43.24416 23.495156,59.712006 8.2784222,71.476711 6.3474578,69.504662 Z"
   id="path816"
   inkscape:connector-curvature="0"
   inkscape:path-effect="#path-effect818"
   inkscape:original-d="M 6.3474578,69.504662 67.283052,9.8385595" /><path
   transform="matrix(13.996087,0,0,11.003558,91.046231,16.403942)"
   style="fill:#ff0000;stroke:none;stroke-width:1px;stroke-linecap:butt;stroke-linejoin:miter;stroke-opacity:1"
   d="M 11.108051,6.0300849 C 13.308337,4.363849 26.184355,17.656396 39.849162,35.70095 53.513969,53.745503 62.818508,69.742665 60.618223,71.408901 58.417937,73.075137 45.541919,59.782589 31.877112,41.738036 18.212304,23.693483 8.9077651,7.6963208 11.108051,6.0300849 Z"
   id="path820"
   inkscape:connector-curvature="0"
   inkscape:path-effect="#path-effect822"
   inkscape:original-d="M 11.108051,6.0300849 60.618222,71.4089" /></svg>