<?xml version="1.0" encoding="UTF-8" standalone="no"?>
<svg
   xmlns:dc="http://purl.org/dc/elements/1.1/"
   xmlns:cc="http://creativecommons.org/ns#"
   xmlns:rdf="http://www.w3.org/1999/02/22-rdf-syntax-ns#"
   xmlns:svg="http://www.w3.org/2000/svg"
   xmlns="http://www.w3.org/2000/svg"
   xmlns:sodipodi="http://sodipodi.sourceforge.net/DTD/sodipodi-0.dtd"
   xmlns:inkscape="http://www.inkscape.org/namespaces/inkscape"
   viewBox="0 0 435.78131 443.18143"
   version="1.1"
   id="svg77"
   sodipodi:docname="settings.svg"
   width="435.78131"
   height="443.18143"
   inkscape:version="0.92.5 (0.92.5+69)">
  <metadata
     id="metadata81">
    <rdf:RDF>
      <cc:Work
         rdf:about="">
        <dc:format>image/svg+xml</dc:format>
        <dc:type
           rdf:resource="http://purl.org/dc/dcmitype/StillImage" />
        <dc:title></dc:title>
      </cc:Work>
    </rdf:RDF>
  </metadata>
  <sodipodi:namedview
     pagecolor="#ffffff"
     bordercolor="#666666"
     borderopacity="1"
     objecttolerance="10"
     gridtolerance="10"
     guidetolerance="10"
     inkscape:pageopacity="0"
     inkscape:pageshadow="2"
     inkscape:window-width="1853"
     inkscape:window-height="1025"
     id="namedview79"
     showgrid="false"
     inkscape:zoom="0.51847458"
     inkscape:cx="-79.4789"
     inkscape:cy="215.06165"
     inkscape:window-x="1987"
     inkscape:window-y="27"
     inkscape:window-maximized="1"
     inkscape:current-layer="svg77" />
  <defs
     id="defs47">
    <linearGradient
       id="i"
       x1="269.23999"
       x2="269.41"
       y1="501.70999"
       y2="573.45001"
       gradientUnits="userSpaceOnUse"
       gradientTransform="matrix(1.8919,0,0,-1.3158,-292.92,839.13)">
      <stop
         stop-color="#fff"
         stop-opacity="0"
         offset="0"
         id="stop2" />
      <stop
         stop-color="#fff"
         stop-opacity=".75664"
         offset="1"
         id="stop4" />
    </linearGradient>
    <linearGradient
       id="h"
       x1="1409.7"
       x2="1407.8"
       y1="71.122002"
       y2="357.59"
       gradientUnits="userSpaceOnUse"
       gradientTransform="matrix(1.0404,0,0,1.0261,-1250.4025,2.420033)">
      <stop
         offset="0"
         id="stop7" />
      <stop
         stop-color="#6facdb"
         offset="1"
         id="stop9" />
    </linearGradient>
    <linearGradient
       id="g"
       x1="1027.9"
       x2="1024.3"
       y1="90.219002"
       y2="194.14999"
       gradientUnits="userSpaceOnUse"
       gradientTransform="matrix(0.98044,0,0,0.98834,-793.25254,47.190033)">
      <stop
         stop-color="#063a5b"
         offset="0"
         id="stop12" />
      <stop
         stop-color="#063a5b"
         stop-opacity="0"
         offset="1"
         id="stop14" />
    </linearGradient>
    <linearGradient
       id="f"
       x1="1026"
       x2="1034.5"
       y1="267.53"
       y2="87.887001"
       gradientUnits="userSpaceOnUse"
       gradientTransform="matrix(0.92597,0,0,0.93344,-736.98254,57.000033)">
      <stop
         stop-color="#4e4e4e"
         offset="0"
         id="stop17" />
      <stop
         stop-color="#bababa"
         offset="1"
         id="stop19" />
    </linearGradient>
    <linearGradient
       id="e"
       x1="1029.9"
       x2="1033.5"
       y1="267.66"
       y2="152.55"
       gradientUnits="userSpaceOnUse"
       gradientTransform="matrix(0.84,0,0,0.84677,-648.15254,72.500033)">
      <stop
         stop-color="#989a98"
         offset="0"
         id="stop22" />
      <stop
         stop-color="#364dae"
         stop-opacity="0"
         offset="1"
         id="stop24" />
    </linearGradient>
    <linearGradient
       id="d"
       x1="1012.6"
       x2="1011.8"
       y1="145.89999"
       y2="189.63"
       gradientUnits="userSpaceOnUse"
       gradientTransform="matrix(1.6333,0,0,2.1233,-1434.6025,-123.88999)">
      <stop
         offset="0"
         id="stop27" />
      <stop
         stop-opacity="0"
         offset="1"
         id="stop29" />
    </linearGradient>
    <radialGradient
       id="c"
       cx="776.69"
       cy="151.19"
       r="218.89"
       gradientTransform="matrix(1.2811,0.03283,-0.02855,1.1138,-770.94254,-68.119967)"
       gradientUnits="userSpaceOnUse">
      <stop
         stop-color="#fff"
         stop-opacity=".21579"
         offset="0"
         id="stop32" />
      <stop
         stop-color="#5b5b5b"
         offset="1"
         id="stop34" />
    </radialGradient>
    <radialGradient
       id="b"
       cx="184.44"
       cy="653.27002"
       r="42.856998"
       gradientTransform="matrix(1.1418,0.02771,-0.01072,0.47409,14.33,-3.69)"
       gradientUnits="userSpaceOnUse">
      <stop
         stop-color="#fff"
         stop-opacity=".76549"
         offset="0"
         id="stop37" />
      <stop
         stop-color="#fff"
         stop-opacity="0"
         offset="1"
         id="stop39" />
    </radialGradient>
    <radialGradient
       id="a"
       cx="185"
       cy="892.01001"
       r="5"
       gradientTransform="matrix(36.42798,-0.22627836,0.12099,4.5632222,-6625.4237,-3591.8341)"
       gradientUnits="userSpaceOnUse">
      <stop
         stop-opacity=".79279"
         offset="0"
         id="stop42" />
      <stop
         stop-color="#364dae"
         stop-opacity="0"
         offset="1"
         id="stop44" />
    </radialGradient>
  </defs>
  <path
     style="opacity:0.95;fill:#29abe2;fill-opacity:1"
     d="m 240.07325,3.5129056 -37.0586,0.8125 -10.34375,40.2500004 c -12.022,1.8591 -23.644,4.904651 -34.75,9.03125 l -29.4375,-30.84375 -31.6875,19.25 11.1543,40.0625 C 98.6311,89.597007 90.0629,98.045916 82.4209,107.26289 L 41.4502,95.262906 23.63965,127.7629 53.2959,156.85665 c -4.2735,11.045 -7.4811,22.61375 -9.5,34.59375 l -41.43945,10.09571 0.8125,37.06054 40.25,10.375 c 1.8606,12.032 4.89945,23.66725 9.03125,34.78125 l -30.81055,29.40625 19.21875,31.6875 40.03125,-11.15625 c 7.5246,9.325 15.99675,17.88525 25.21875,25.53125 l -12,40.93946 32.5,17.81054 29.06055,-29.625 c 11.063,4.2824 22.65625,7.4798 34.65625,9.5 l 10.06445,41.43946 37.06055,-0.8125 10.375,-40.25 c 12.032,-1.8606 23.66725,-4.89945 34.78125,-9.03125 l 29.40625,30.81054 31.6875,-19.25 -11.15625,-40 c 9.3303,-7.5289 17.9135,-15.99075 25.5625,-25.21875 l 40.9043,11.96875 17.8125,-32.5 -29.625,-29.06054 c 4.2809,-11.064 7.4818,-22.65525 9.5,-34.65625 l 41.4375,-10.0625 -0.8125,-37.0625 -40.25,-10.34375 c -1.8605,-12.032 -4.89935,-23.66725 -9.03125,-34.78125 l 30.8125,-29.4375 -19.21875,-31.656246 -40.0625,11.156236 C 352.04255,99.778103 343.5845,91.19611 334.3545,83.54611 l 12,-40.9375 -32.5,-17.8125 -29.0625,29.65625 c -11.064,-4.2808 -22.65525,-7.4817 -34.65625,-9.5 z M 224.51661,76.425016 a 145.00055,144.99819 0 0 1 140.80078,144.972654 145.00055,144.99819 0 1 1 -290,0 145.00055,144.99819 0 0 1 149.19922,-144.972654 z"
     id="path49"
     inkscape:connector-curvature="0" />
  <path
     inkscape:connector-curvature="0"
     style="fill:none;stroke:#29abe2;stroke-width:15;stroke-miterlimit:4;stroke-dasharray:none;stroke-opacity:1"
     id="path55"
     d="m 307.78469,221.40451 a 87.539566,87.538262 0 1 1 -175.07718,0 87.539566,87.538262 0 1 1 175.07718,0 z" />
  <path
     inkscape:connector-curvature="0"
     style="opacity:0.76549;fill:none;stroke:#29abe2;stroke-width:15;stroke-miterlimit:4;stroke-dasharray:none;stroke-opacity:1"
     id="path65"
     d="m 250.57893,221.40451 a 30.332831,30.334281 0 1 1 -60.66566,0 30.332831,30.334281 0 1 1 60.66566,0 z" />
</svg>
