<?xml version="1.0" encoding="UTF-8" standalone="no"?>
<svg
   xmlns:dc="http://purl.org/dc/elements/1.1/"
   xmlns:cc="http://creativecommons.org/ns#"
   xmlns:rdf="http://www.w3.org/1999/02/22-rdf-syntax-ns#"
   xmlns:svg="http://www.w3.org/2000/svg"
   xmlns="http://www.w3.org/2000/svg"
   xmlns:sodipodi="http://sodipodi.sourceforge.net/DTD/sodipodi-0.dtd"
   xmlns:inkscape="http://www.inkscape.org/namespaces/inkscape"
   width="173mm"
   height="325mm"
   version="1.1"
   viewBox="0 0 612.99468 1151.595"
   id="svg4146"
   sodipodi:docname="whatsapp.svg"
   inkscape:version="0.92.5 (0.92.5+69)">
  <metadata
     id="metadata4150">
    <rdf:RDF>
      <cc:Work
         rdf:about="">
        <dc:format>image/svg+xml</dc:format>
        <dc:type
           rdf:resource="http://purl.org/dc/dcmitype/StillImage" />
        <dc:title></dc:title>
      </cc:Work>
    </rdf:RDF>
  </metadata>
  <sodipodi:namedview
     pagecolor="#ffffff"
     bordercolor="#666666"
     borderopacity="1"
     objecttolerance="10"
     gridtolerance="10"
     guidetolerance="10"
     inkscape:pageopacity="0"
     inkscape:pageshadow="2"
     inkscape:window-width="1853"
     inkscape:window-height="1025"
     id="namedview4148"
     showgrid="false"
     inkscape:zoom="0.74901168"
     inkscape:cx="479.60626"
     inkscape:cy="857.20221"
     inkscape:window-x="1987"
     inkscape:window-y="27"
     inkscape:window-maximized="1"
     inkscape:current-layer="svg4146" />
  <defs
     id="defs3216">
    <clipPath
       id="f">
      <circle
         cx="426.28"
         cy="230.10001"
         r="141.42"
         id="circle3201"
         style="fill:#ffffff" />
    </clipPath>
    <clipPath
       id="g">
      <circle
         cx="289.31"
         cy="192.45"
         r="102.14"
         id="circle3204"
         style="fill:#ffffff" />
    </clipPath>
    <clipPath
       id="b">
      <circle
         cx="426.28"
         cy="230.10001"
         r="141.42"
         id="circle3207"
         style="fill:#ffffff" />
    </clipPath>
    <filter
       id="a"
       style="color-interpolation-filters:sRGB">
      <feGaussianBlur
         result="blur"
         stdDeviation="5.3 6.5"
         id="feGaussianBlur3210" />
    </filter>
    <filter
       id="h"
       style="color-interpolation-filters:sRGB">
      <feGaussianBlur
         result="blur"
         stdDeviation="5.3 4.8"
         id="feGaussianBlur3213" />
    </filter>
  </defs>
  <g
     id="g3870"
     transform="matrix(2.9081265,0,0,3.0061922,2742.1451,-598.21604)">
    <rect
       style="fill:#ffffff;fill-rule:evenodd"
       id="rect3646"
       height="380.53"
       width="209.10001"
       y="200.64999"
       x="-941.81" />
    <rect
       style="fill:#009688;fill-rule:evenodd"
       id="rect3648"
       height="38.168999"
       width="209.10001"
       y="200.64999"
       x="-941.81" />
    <rect
       style="fill:#00796b;fill-rule:evenodd"
       id="rect3650"
       height="11.056"
       width="209.10001"
       y="200.64999"
       x="-941.81" />
    <g
       style="fill:#ffffff"
       id="g3660"
       transform="translate(-306.69)">
      <rect
         id="rect3652"
         height="6.4376998"
         width="2.4273"
         y="203.38"
         x="-442.67999" />
      <rect
         id="rect3654"
         height="4.9825001"
         width="2.4273"
         y="204.84"
         x="-446" />
      <rect
         id="rect3656"
         height="3.7139001"
         width="2.4273"
         y="206.10001"
         x="-449.32001" />
      <rect
         id="rect3658"
         height="2.3706"
         width="2.4273"
         y="207.45"
         x="-452.57001" />
    </g>
    <g
       id="g3666"
       transform="translate(-306.69)">
      <path
         style="fill:#f2f2f2"
         inkscape:connector-curvature="0"
         id="path3662"
         d="m 240.55,-502.58 a 6.7621,6.7621 0 0 1 -6.762,6.762 v -6.762 z"
         transform="matrix(-0.62389,-0.78152,0.62389,-0.78152,0,0)" />
      <path
         style="fill:#ffffff"
         inkscape:connector-curvature="0"
         id="path3664"
         d="m 239.02,-502.59 a 5.2197,5.2197 0 0 1 -5.2197,5.2197 v -5.2197 z"
         transform="matrix(-0.62389,-0.78152,0.62389,-0.78152,0,0)" />
    </g>
    <g
       style="fill:#ffffff"
       id="g3672"
       transform="translate(-306.69)">
      <rect
         id="rect3668"
         height="6.6964002"
         width="4.2410998"
         y="203.03"
         x="-436.88" />
      <rect
         id="rect3670"
         height="1.1607"
         width="2.1429"
         y="202.27"
         x="-435.82999" />
    </g>
    <path
       style="fill:#ffffff"
       inkscape:connector-curvature="0"
       id="path3674"
       d="m -785.41,220.19 c -2.1704,0 -3.9299,1.7596 -3.9299,3.9299 0,2.1703 1.7596,3.9299 3.9299,3.9299 0.84875,0 1.634,-0.26995 2.2763,-0.72739 l 2.1868,2.1868 c 0.20461,0.20463 0.53647,0.20463 0.74093,0 l 0.18549,-0.18524 c 0.20177,-0.20304 0.20158,-0.53582 -0.004,-0.74019 v -2.5e-4 l -2.187,-2.1871 c 0.45849,-0.64319 0.7284,-1.4277 0.7284,-2.2766 0,-2.1704 -1.7596,-3.9299 -3.9299,-3.9299 z m 0,1.0485 a 2.8819,2.8819 0 0 1 2.882,2.882 2.8819,2.8819 0 0 1 -2.882,2.882 2.8819,2.8819 0 0 1 -2.8817,-2.882 2.8819,2.8819 0 0 1 2.8817,-2.882 z" />
    <rect
       style="fill:#ffffff"
       id="rect3676"
       ry="1.2627"
       height="11.429"
       width="54.285999"
       y="218.78999"
       x="-907.57001" />
    <ellipse
       style="fill:#ffffff"
       id="ellipse3678"
       ry="1.3573999"
       rx="1.3857"
       cy="221.64"
       cx="-740.84003" />
    <ellipse
       style="fill:#ffffff"
       id="ellipse3680"
       ry="1.3573999"
       rx="1.3857"
       cy="225.17"
       cx="-740.84003" />
    <ellipse
       style="fill:#ffffff"
       id="ellipse3682"
       ry="1.3573999"
       rx="1.3857"
       cy="228.8"
       cx="-740.84003" />
    <g
       style="fill:#ffffff;fill-rule:evenodd;stroke-width:0.5"
       id="g3704"
       transform="matrix(0.030609,0,0,0.030609,-933.25,215.26)">
      <path
         style="stroke:#b4d881"
         inkscape:connector-curvature="0"
         id="path3684"
         d="m 260.86,433.97 v -9 l 0.3,-0.2 0.2,-0.3 24.5,-1.5 q 24.5,-1.5 48,-7.5 23.5,-6 46,-16 22.5,-10 40,-21.5 17.5,-11.5 31.7,-24.2 14.3,-12.8 25.3,-26.3 11,-13.5 20,-29.5 9,-16 11.7,-22.2 2.8,-6.3 16.8,-2.3 14,4 31.2,11.7 17.3,7.8 30.8,16.8 13.5,9 20.5,16.5 7,7.5 6.5,11 -0.5,3.5 -10.5,19.5 -10,16 -25.3,35.2 -15.2,19.3 -25.7,31.6 -10.5,12.2 -12.7,13.7 -2.3,1.5 -2.6,2.5 -0.2,1 -17.2,15.2 -17,14.3 -33,24.3 -16,10 -32,16.5 -16,6.5 -28.5,9.5 -12.5,3 -21,4 -8.5,1 -28,0.5 -19.5,-0.5 -37,-4 -17.5,-3.5 -33,-9.5 -15.5,-6 -24.5,-12.5 -9,-6.5 -14.2,-14.8 -5.3,-8.2 -6.8,-13.2 -1.5,-5 -1.5,-14 z" />
      <path
         style="stroke:#b3d880"
         inkscape:connector-curvature="0"
         id="path3686"
         d="m 183.86,422.47 21.5,1 0.2,0.3 0.3,0.2 v 9 q 0,9 -2,15.5 -2,6.5 -6.7,13.3 -4.8,6.7 -13,13 -8.3,6.2 -24,12.4 -15.8,6.3 -32.8,9.8 -17,3.5 -43.5,3.5 -26.5,0 -43.5,-4 -17,-4 -32,-10.5 -15,-6.5 -29.5,-15.5 -14.5,-9 -33.5,-25.3 -19,-16.2 -28.8,-27.2 -9.7,-11 -27.2,-33 -17.5,-22 -27,-37.5 -9.5,-15.5 -10,-19 -0.5,-3.5 1,-5.5 1.5,-2 11.2,-10.8 9.8,-8.7 26.8,-18.2 17,-9.5 36,-16.5 19,-7 24,-7.5 5,-0.5 5.8,1.2 0.7,1.8 8.2,16.8 7.5,15 18.2,30.5 10.8,15.5 11.8,15.5 1,0 1.2,1 0.3,1 10.6,10.8 10.2,9.7 23.7,20.2 13.5,10.5 30.5,20 17,9.5 37,17.5 20,8 42,13 22,5 43.5,6 z" />
      <path
         style="stroke:#b3d881"
         inkscape:connector-curvature="0"
         id="path3688"
         d="m 370.36,276.97 -1,0.5 -0.2,0.3 -0.3,0.2 -0.3,0.2 -0.2,0.3 -1,0.5 -1,0.5 -0.2,0.3 -0.3,0.2 -0.3,0.2 -0.2,0.3 -1,0.3 -1,0.2 0.2,-1.5 0.3,-1.5 0.5,-1.5 0.5,-1.5 4.5,-16 q 4.5,-16 5.5,-25 1,-9 0.5,-26 -0.5,-17 -4.5,-34.5 -4,-17.5 -5.5,-22.5 -1.5,-5 17.8,-12.8 19.2,-7.7 46.2,-14.7 27,-7 48.5,-9.5 21.5,-2.5 24.7,9.2 3.3,11.8 5.3,26.8 2,15 1.5,37 -0.5,22 -4,39 -3.5,17 -4.8,19.8 -1.2,2.7 -21.7,1.7 -20.5,-1 -36.5,1.5 -16,2.5 -31.8,8.2 -15.7,5.8 -27.4,12.6 -11.8,6.7 -12.8,7.2 z" />
      <path
         style="stroke:#b3d880"
         inkscape:connector-curvature="0"
         id="path3690"
         d="m 102.36,273.47 0.5,1.5 0.5,1.5 0.5,1.5 v 3 l -0.3,-0.2 -0.2,-0.3 -1,-0.5 -1,-0.5 -1,-0.5 -1,-0.5 -0.2,-0.3 -0.3,-0.2 -0.3,-0.2 -0.2,-0.3 -16.5,-9 q -16.5,-9 -34,-14.5 -17.5,-5.5 -24.5,-6.5 -7,-1 -31.8,-0.7 -24.7,0.2 -28.7,-15.3 -4,-15.5 -5,-24.5 -1,-9 -0.5,-31 0.5,-22 4.5,-42.5 4,-20.5 4.7,-21.7 0.8,-1.3 21.3,1.2 20.5,2.5 46.5,9 26,6.5 48,14.8 22,8.2 16.8,28.2 -5.3,20 -6.3,36.5 -1,16.5 1.5,35 2.5,18.5 5,27 2.5,8.5 3,10 z" />
      <g
         style="stroke:#b4d881"
         id="g3702"
         transform="translate(-165.64,-83.029)">
        <path
           inkscape:connector-curvature="0"
           id="path3692"
           d="m 503.5,218.5 v 1.5 l -0.3,0.2 q -0.2,0.3 -3.2,1.8 -3,1.5 -17,10.5 -14,9 -26.8,20.3 -12.7,11.2 -25,27 -12.2,15.7 -20.4,31.4 l -8.3,15.8 -0.5,1 -0.5,1 -0.5,1 -0.5,1 -0.5,1 -0.5,1 -0.3,-0.2 -0.2,-0.3 -0.2,-0.3 -0.3,-0.2 -0.3,-0.2 -0.2,-0.3 -0.2,-0.3 -0.3,-0.2 -0.5,-1.5 -0.5,-1.5 -0.5,-1 q -0.5,-1 -1.5,-3.5 -1,-2.5 -9.5,-17.5 -8.5,-15 -19.5,-29 -11,-14 -21,-23 -10,-9 -28,-21 l -18,-12 1,-3 q 1,-3 11.5,-18 10.5,-15 25.2,-30.8 14.8,-15.7 29.8,-28.2 15,-12.5 25,-19.5 10,-7 12.5,-6.5 2.5,0.5 19.5,13.5 17,13 28,22.7 11,9.8 25.2,27.3 14.3,17.5 20.8,28 6.5,10.5 6.5,12 z" />
        <path
           inkscape:connector-curvature="0"
           id="path3694"
           d="M 448.5,488.5 H 433 l -0.2,-0.3 -0.3,-0.2 -0.3,-0.2 -0.2,-0.3 0.2,-0.3 0.3,-0.2 0.5,-1.5 0.5,-1.5 0.5,-1 0.5,-1 8,-13.5 q 8,-13.5 12.3,-19.5 4.2,-6 8,-9.5 3.7,-3.5 20.4,-20.3 16.8,-16.7 35.3,-30.2 18.5,-13.5 32.5,-21 14,-7.5 31.5,-13 17.5,-5.5 30,-7 12.5,-1.5 29,-0.8 16.5,0.8 13.7,7.8 -2.7,7 -12,21.2 -9.2,14.3 -20.7,27.3 -11.5,13 -25.5,25.5 -14,12.5 -31,23.5 -17,11 -36,19 -19,8 -37.5,12 -18.5,4 -23.5,4.5 -5,0.5 -20.5,0.5 z" />
        <path
           inkscape:connector-curvature="0"
           id="path3696"
           d="m 364,481 0.5,1 0.5,1 0.5,1 0.3,2 0.2,2 -17,-0.2 q -17,-0.3 -25,-1.3 -8,-1 -25.5,-5.5 Q 281,476.5 265,469.5 249,462.5 232.5,452 216,441.5 202.2,429.8 188.5,418 174.5,401.5 160.5,385 151,369 l -9.5,-16 -0.5,-1 -0.5,-1 -0.3,-2 q -0.2,-2 25.3,-1.8 25.5,0.3 42.5,4.8 17,4.5 35,13.5 18,9 35.8,22.3 17.7,13.2 34.2,28.7 16.5,15.5 28.5,31 12,15.5 17,24 5,8.5 5.5,9.5 z" />
        <path
           inkscape:connector-curvature="0"
           id="path3698"
           d="m 387,475 0.5,4 0.3,3 0.2,3 -1.5,-0.2 -1.5,-0.3 -0.2,-0.3 -0.3,-0.2 -0.5,-1 -0.5,-1 -0.3,-0.2 -0.2,-0.3 -0.2,-0.3 -0.3,-0.2 -0.5,-1 -0.5,-1 -9.3,-13.2 Q 363,452.5 349,436.5 335,420.5 318.5,405 302,389.5 298.8,386.2 295.5,383 289.5,369 q -6,-14 -9.5,-28.5 -3.5,-14.5 -3.5,-35.5 0,-21 4,-38.5 4,-17.5 6.3,-22.3 2.2,-4.7 9.4,-1 7.3,3.8 22,15.6 14.8,11.7 26,24 11.3,12.2 21.8,28.7 10.5,16.5 17.5,33 7,16.5 4,34 -3,17.5 -3,46.5 0,29 1,37.5 1,8.5 1.5,12.5 z" />
        <path
           inkscape:connector-curvature="0"
           id="path3700"
           d="m 417,479 -0.5,1 -0.3,0.2 -0.2,0.3 -0.2,0.3 -0.3,0.2 -0.5,1 -0.5,1 -0.5,1 -0.5,1 -0.3,0.2 -0.2,0.3 h -3 l -0.2,-0.3 -0.3,-0.2 v -2 l 0.5,-2.5 0.5,-2.5 2,-19.5 q 2,-19.5 1.5,-41 -0.5,-21.5 -3.5,-40 -3,-18.5 4.5,-34.5 7.5,-16 16.8,-30.2 9.2,-14.3 13.2,-20 4,-5.8 7.8,-9.3 3.7,-3.5 11,-10 7.2,-6.5 7.2,-7.5 0,-1 17,-12.8 17,-11.7 19.5,-13.2 2.5,-1.5 4.3,-1.2 1.7,0.2 6.2,14.2 4.5,14 6,24.5 1.5,10.5 1,28 -0.5,17.5 -3.5,31 -3,13.5 -10.5,30.5 -7.5,17 -27,34.5 -19.5,17.5 -36,36.5 -16.5,19 -23.5,29.5 -7,10.5 -7.5,11.5 z" />
      </g>
    </g>
    <rect
       style="fill:#e0f7fa"
       id="rect3706"
       ry="3.6572001"
       height="38.382999"
       width="135.63"
       y="250"
       x="-931.10999" />
    <path
       style="fill:#e0f7fa;fill-rule:evenodd"
       inkscape:connector-curvature="0"
       id="path3708"
       d="m -925.24,250 -9.3094,0.14322 c -0.96031,0.19551 -0.72741,0.76781 -0.42967,1.3606 l 5.0127,6.7314 z" />
    <rect
       style="fill:#e0f7fa"
       id="rect3710"
       ry="3.6572001"
       height="38.382999"
       width="135.63"
       y="294.45001"
       x="-931.10999" />
    <path
       style="fill:#e0f7fa;fill-rule:evenodd"
       inkscape:connector-curvature="0"
       id="path3712"
       d="m -925.24,294.45 -9.3094,0.14322 c -0.96031,0.19551 -0.72741,0.76781 -0.42967,1.3606 l 5.0127,6.7314 z" />
    <rect
       style="fill:#ede7f6"
       id="rect3714"
       ry="2.5343001"
       height="26.597"
       width="135.63"
       y="339.39999"
       x="746.07001"
       transform="scale(-1,1)" />
    <path
       style="fill:#ede7f6;fill-rule:evenodd"
       inkscape:connector-curvature="0"
       id="path3716"
       d="m -751.94,339.4 9.3094,0.14322 c 0.96031,0.19551 0.72741,0.76781 0.42967,1.3606 l -5.0127,6.7314 z" />
    <rect
       style="fill:#e0f7fa"
       id="rect3718"
       ry="3.6572001"
       height="38.382999"
       width="135.63"
       y="372.20999"
       x="-931.10999" />
    <path
       style="fill:#e0f7fa;fill-rule:evenodd"
       inkscape:connector-curvature="0"
       id="path3720"
       d="m -925.24,372.21 -9.3094,0.14322 c -0.96031,0.19551 -0.72741,0.76781 -0.42967,1.3606 l 5.0127,6.7314 z" />
    <rect
       style="fill:#e0f7fa"
       id="rect3722"
       ry="4.0317998"
       height="79.796997"
       width="67.320999"
       y="417.92001"
       x="-931.10999" />
    <path
       style="fill:#e0f7fa;fill-rule:evenodd"
       inkscape:connector-curvature="0"
       id="path3724"
       d="m -925.24,417.92 -9.3094,0.14322 c -0.96031,0.19551 -0.72741,0.76781 -0.42967,1.3606 l 5.0127,6.7314 z" />
    <rect
       style="fill:#ede7f6"
       id="rect3726"
       ry="3.7972"
       height="39.852001"
       width="135.63"
       y="503"
       x="746.07001"
       transform="scale(-1,1)" />
    <path
       style="fill:#ede7f6;fill-rule:evenodd"
       inkscape:connector-curvature="0"
       id="path3728"
       d="m -751.94,503 9.3094,0.14322 c 0.96031,0.19551 0.72741,0.76781 0.42967,1.3606 l -5.0127,6.7314 z" />
    <rect
       style="fill:#f2f2f2"
       id="rect3730"
       ry="2.053"
       height="21.547001"
       width="193.71001"
       y="552"
       x="740.40002"
       transform="scale(-1,1)" />
    <path
       inkscape:connector-curvature="0"
       id="path3732"
       style="color:#000000;text-indent:0;text-decoration:none;text-decoration-line:none;text-decoration-style:solid;text-decoration-color:#000000;text-transform:none;white-space:normal;isolation:auto;mix-blend-mode:normal;solid-color:#000000;fill:#ffffff;color-rendering:auto;image-rendering:auto;shape-rendering:auto"
       d="m -446.64,222.19 c -0.22926,0.0384 -0.46352,0.11939 -0.69141,0.25391 l -1.1621,0.58984 c -0.0118,0.006 -0.022,0.0124 -0.0332,0.0195 -0.26395,0.16753 -0.50424,0.4049 -0.50586,0.73828 -0.002,0.32696 0.22117,0.55248 0.42578,0.71485 0.41622,0.33027 1.0504,0.62365 1.8164,1.0332 0.006,0.003 0.0129,0.007 0.0195,0.01 2.3987,1.1694 4.7194,2.3471 7.2402,3.5156 1.0339,0.51788 1.5881,0.70089 3.0195,0.55273 a 0.25256,0.25256 0 0 0 0.004,-0.002 c 0.80302,-0.0933 1.2282,-0.13648 1.5625,-0.36914 0.18264,-0.12709 0.28966,-0.31102 0.3418,-0.48828 0.0468,-0.15922 0.0608,-0.3057 0.084,-0.46484 l -0.006,0.0234 c 0.10773,-0.43321 -0.0542,-0.86334 -0.30664,-1.2207 -0.25271,-0.35785 -0.61681,-0.67388 -1.0449,-0.88672 a 0.25256,0.25256 0 0 0 -0.008,-0.002 l -0.0156,-0.008 a 0.25256,0.25256 0 0 0 -0.002,0 l -7.7266,-3.6738 c -0.19889,-0.10794 -0.48069,-0.0167 -0.57813,0.1875 -0.0319,0.0669 -0.012,0.14181 -0.004,0.21484 l -0.62305,-0.30859 -0.004,-0.002 c -0.31437,-0.16114 -0.66073,-0.30575 -1.0371,-0.38671 a 0.25256,0.25256 0 0 0 -0.0976,-0.0391 c -0.21308,-0.036 -0.43871,-0.0404 -0.66797,-0.002 z m 0.13672,0.81836 c 0.12741,-0.0212 0.25215,-0.0153 0.38867,0.008 0.26826,0.0454 0.57395,0.18215 0.90039,0.34961 a 0.25256,0.25256 0 0 0 0.006,0.002 0.25256,0.25256 0 0 0 0.0176,0.008 l 5.6699,2.8027 0.006,0.004 a 0.25256,0.25256 0 0 0 0.0254,0.0156 c 0.50415,0.27084 0.70162,0.42653 0.73437,0.46875 0.0238,0.0307 0.0513,0.15334 0.0996,0.35742 -0.003,0.0142 -0.0103,0.0471 -0.008,0.043 0.005,-0.008 0.0189,-0.0135 -0.0195,0.006 a 0.25256,0.25256 0 0 0 0,0.002 c -0.0507,0.0255 -0.27751,0.0799 -0.56055,0.14648 -9.2e-4,2.2e-4 -10e-4,-2.2e-4 -0.002,0 -0.32304,0.06 -0.41481,0.0672 -0.60547,0.0137 -0.18296,-0.0517 -0.4936,-0.20235 -1.0449,-0.46484 a 0.25256,0.25256 0 0 0 0,-0.002 l -5.1758,-2.6914 0.0117,0.008 c -0.19445,-0.11539 -0.47862,-0.036 -0.58399,0.16406 -0.0849,0.16125 -0.0167,0.35226 0.11133,0.47852 -0.70041,-0.37166 -1.3228,-0.68597 -1.5586,-0.87305 -0.0261,-0.0207 -0.0282,-0.0287 -0.0449,-0.0449 0.0176,-0.017 0.0193,-0.0239 0.0547,-0.0469 10e-4,-8.8e-4 5.7e-4,-0.001 0.002,-0.002 l 1.1211,-0.57031 0.0254,-0.0117 0.004,-0.002 a 0.25256,0.25256 0 0 0 0.0234,-0.0117 c 0.14625,-0.0863 0.27494,-0.13501 0.40235,-0.15625 z m 8.2383,2.9941 2.0215,0.96094 c 0.29544,0.1483 0.56352,0.38435 0.72657,0.61523 0.16258,0.23024 0.20194,0.45107 0.18164,0.53516 -7e-5,2.7e-4 6e-5,0.002 0,0.002 -0.003,0.009 -0.006,0.018 -0.008,0.0273 a 0.25256,0.25256 0 0 0 -0.002,0.0117 c -0.0271,0.18358 -0.0463,0.32054 -0.0606,0.36914 -0.0203,0.0691 0.0159,0.0138 -0.0176,0.0371 -0.005,0.003 -0.11196,0.0526 -0.30665,0.0937 -0.19468,0.0411 -0.4799,0.0853 -0.87109,0.13086 l 0.004,-0.002 c -1.3663,0.14141 -1.548,0.0431 -2.5723,-0.4707 l -0.002,-0.002 c -0.002,-0.001 -0.005,-7.3e-4 -0.008,-0.002 a 0.25256,0.25256 0 0 0 -0.004,-0.002 c -0.1468,-0.068 -0.27828,-0.13693 -0.42383,-0.20508 0.16321,-0.001 0.33297,-0.0238 0.51953,-0.0586 a 0.25256,0.25256 0 0 0 0.0195,-0.006 c 0.0103,-0.002 0.0191,-0.005 0.0293,-0.008 a 0.25256,0.25256 0 0 0 0.004,-0.002 c 0.25403,-0.0578 0.49049,-0.0901 0.72656,-0.20898 0.27451,-0.13815 0.47204,-0.42628 0.5,-0.77735 a 0.25256,0.25256 0 0 0 0,-0.008 c 0.002,-0.0448 -0.002,-0.0896 -0.0137,-0.13281 -0.0618,-0.2536 -0.0792,-0.49579 -0.27344,-0.7461 -0.0438,-0.0565 -0.11533,-0.10226 -0.16992,-0.15234 z"
       transform="translate(-321.43)" />
    <g
       style="fill:#ff8a65"
       id="g3740"
       transform="matrix(0.14465,0,0,0.14465,-965.21,535.08)">
      <path
         inkscape:connector-curvature="0"
         id="path3734"
         d="m 318,187 c 0,-1.657 -1.343,-3 -3,-3 -1.657,0 -3,1.343 -3,3 0,12.15 -9.85,22 -22,22 -12.15,0 -22,-9.85 -22,-22 0,-1.657 -1.343,-3 -3,-3 -1.657,0 -3,1.343 -3,3 0,14.45 10.947,26.341 25,27.838 v 5.16 h -8 c -1.657,0 -3,1.343 -3,3 0,1.657 1.343,3 3,3 h 22 c 1.657,0 3,-1.343 3,-3 0,-1.657 -1.343,-3 -3,-3 h -8 v -5.162 c 14.05,-1.5 25,-13.39 25,-27.84 z" />
      <path
         inkscape:connector-curvature="0"
         id="path3736"
         d="m 290,154 c -9.941,0 -18,8.059 -18,18 v 14 c 0,9.941 8.059,18 18,18 9.941,0 18,-8.059 18,-18 v -14 c 0,-9.94 -8.06,-18 -18,-18 z" />
      <path
         inkscape:connector-curvature="0"
         id="path3738"
         d="m 272,174 h 12 v -4 h -12 z m 0,7 h 12 v -4 h -12 z m 0,7 h 12 v -4 h -12 z m 24,-18 v 4 h 12 v -4 z m 0,11 h 12 v -4 h -12 z m 0,7 h 12 v -4 h -12 z" />
    </g>
    <text
       id="text3744"
       xml:space="preserve"
       style="font-size:13.8920002px;line-height:125%;font-family:sans-serif;letter-spacing:0px;word-spacing:0px;fill:#b3b3b3;stroke-width:1px"
       word-spacing="0px"
       letter-spacing="0px"
       font-size="13.892px"
       y="567.88416"
       x="-913.39929"><tspan
         id="tspan3742"
         y="567.88416"
         x="-913.39929">00:15</tspan></text>
    <g
       style="fill:#b3b3b3"
       id="g3750"
       transform="translate(-321.43)">
      <rect
         id="rect3746"
         height="1.636"
         width="10.252"
         y="772.54999"
         x="21.735001"
         transform="matrix(0.70711,0.70711,-0.70711,0.70711,0,0)" />
      <rect
         id="rect3748"
         height="1.636"
         width="10.252"
         y="-23.283001"
         x="-774.09003"
         transform="matrix(0.70711,-0.70711,-0.70711,-0.70711,0,0)" />
    </g>
    <g
       style="fill:#26c6da"
       id="g3758"
       transform="matrix(0.14465,0,0,0.14465,-794.85,535.08)">
      <path
         inkscape:connector-curvature="0"
         id="path3752"
         d="m 318,187 c 0,-1.657 -1.343,-3 -3,-3 -1.657,0 -3,1.343 -3,3 0,12.15 -9.85,22 -22,22 -12.15,0 -22,-9.85 -22,-22 0,-1.657 -1.343,-3 -3,-3 -1.657,0 -3,1.343 -3,3 0,14.45 10.947,26.341 25,27.838 v 5.16 h -8 c -1.657,0 -3,1.343 -3,3 0,1.657 1.343,3 3,3 h 22 c 1.657,0 3,-1.343 3,-3 0,-1.657 -1.343,-3 -3,-3 h -8 v -5.162 c 14.05,-1.5 25,-13.39 25,-27.84 z" />
      <path
         inkscape:connector-curvature="0"
         id="path3754"
         d="m 290,154 c -9.941,0 -18,8.059 -18,18 v 14 c 0,9.941 8.059,18 18,18 9.941,0 18,-8.059 18,-18 v -14 c 0,-9.94 -8.06,-18 -18,-18 z" />
      <path
         inkscape:connector-curvature="0"
         id="path3756"
         d="m 272,174 h 12 v -4 h -12 z m 0,7 h 12 v -4 h -12 z m 0,7 h 12 v -4 h -12 z m 24,-18 v 4 h 12 v -4 z m 0,11 h 12 v -4 h -12 z m 0,7 h 12 v -4 h -12 z" />
    </g>
    <rect
       style="fill:#f06292"
       id="rect3760"
       height="6.8216"
       width="68.418999"
       y="254.64999"
       x="-924.60999" />
    <rect
       style="fill:#9e9e9e"
       id="rect3762"
       height="4.8013"
       width="93.672997"
       y="268.04001"
       x="-919.96002" />
    <rect
       style="fill:#9e9e9e"
       id="rect3764"
       height="4.8013"
       width="43.669998"
       y="277.13"
       x="-919.96002" />
    <rect
       style="fill:#4dd0e1"
       id="rect3766"
       height="6.8216"
       width="41.991001"
       y="299.04001"
       x="-924.60999" />
    <rect
       style="fill:#9e9e9e"
       id="rect3768"
       height="4.8013"
       width="93.672997"
       y="312.42001"
       x="-924.60999" />
    <rect
       style="fill:#9e9e9e"
       id="rect3770"
       height="4.8013"
       width="78.669998"
       y="321.51999"
       x="-924.60999" />
    <rect
       style="fill:#d4e157"
       id="rect3772"
       height="6.8216"
       width="68.418999"
       y="376.89999"
       x="-924.60999" />
    <rect
       style="fill:#b2ebf2"
       id="rect3774"
       height="3.3727"
       width="17.778"
       y="282.31"
       x="-816.39001" />
    <rect
       style="fill:#9e9e9e"
       id="rect3776"
       height="4.8013"
       width="93.672997"
       y="345.28"
       x="-874.60999" />
    <rect
       style="fill:#9e9e9e"
       id="rect3778"
       height="4.8013"
       width="59.983002"
       y="354.37"
       x="-874.60999" />
    <rect
       style="fill:#b2ebf2"
       id="rect3780"
       height="3.3727"
       width="17.778"
       y="326.06"
       x="-816.39001" />
    <rect
       style="fill:#b2ebf2"
       id="rect3782"
       height="3.3727"
       width="12.474"
       y="403.56"
       x="-849.59998" />
    <rect
       style="fill:#b2ebf2"
       id="rect3784"
       height="3.3727"
       width="17.778"
       y="490.57999"
       x="-887.34998" />
    <rect
       style="fill:#d1c4e9"
       id="rect3786"
       height="3.3727"
       width="17.778"
       y="357.88"
       x="-768.91998" />
    <path
       style="fill:#b3b3b3"
       inkscape:connector-curvature="0"
       id="path3788"
       d="m -584.09,397.2 c -0.0285,1.7377 -11.169,7.9284 -12.659,7.0348 -1.49,-0.8936 -1.2817,-13.637 0.23739,-14.481 1.5191,-0.84418 12.451,5.7083 12.422,7.446 z"
       transform="matrix(0.99961,-0.02807,0.02807,0.99961,-332.81,-16.488)" />
    <rect
       style="fill:#b3b3b3"
       id="rect3790"
       height="1.7678"
       width="62.629002"
       y="395.76001"
       x="-899.48999" />
    <circle
       style="fill:#29b6f6"
       id="circle3792"
       r="3.052"
       cy="396.48001"
       cx="-898.20001" />
    <g
       id="g3840"
       clip-path="url(#b)"
       transform="matrix(0.12807,0,0,0.12807,-869.99,361.01)">
      <path
         style="fill:#333333"
         inkscape:connector-curvature="0"
         id="path3794"
         d="m 460.78,136 c 2.7287,-1.16 24.104,-1.9214 28.985,0.59987 17.432,51.831 18.173,72.272 -15.789,152.96 -1.1265,-9.6332 -1.7067,-17.349 -0.29905,-32.878 -3.0261,11.375 -4.0859,25.552 -12.407,36.423 0.74892,-4.3936 0.2527,-16.084 -0.9544,-24.669 -2.2698,6.5629 -3.9596,20.632 -10.061,27.45 1.2837,-3.799 0.32459,-7.2708 -0.0544,-11.07 l -20.217,18.155 c -9.3752,-11.153 -26.396,-22.372 -29.589,-36.335 2.2532,5.43 6.8032,21.659 9.7084,26.858 -6.5933,-6.6246 -14.843,-23.898 -19.646,-32.32 2.0396,6.992 3.3985,20.525 9.5166,28.537 -11.046,-6.7873 -21.549,-27.599 -25.671,-35.37 1.8685,7.2276 4.9022,22.416 8.6011,33.714 -30.119,-34.118 -36.288,-78.124 -30.423,-132.86 27.54,-28.327 69.627,-43.35 108.3,-19.195 z" />
      <path
         style="fill:#ffe680"
         inkscape:connector-curvature="0"
         id="path3796"
         d="m 417.44,264.95 26.153,-6.3659 c -2.3481,21.011 -1.2172,33.414 9.3027,43.311 6.7634,6.3633 58.534,15.628 69.569,18.302 5.4924,4.9171 7.2122,30.876 11.065,47.952 h -165.73 l -26.473,-0.2323 c 0.69225,-5.833 1.4431,-12.058 2.2609,-18.728 2.4678,-14.57 4.4682,-25.829 10.517,-30.849 6.3089,-1.8652 18.364,-5.2356 29.961,-7.4416 13.728,-1.9856 22.764,-3.7983 25.316,-9.9751 4.0686,-9.8477 1.2667,-22.753 3.8357,-33.163 z" />
      <path
         style="fill:#806600;fill-opacity:0.59896001"
         inkscape:connector-curvature="0"
         id="path3798"
         d="m 441.82,267.88 1.1314,13.427 c -2.9669,2.4895 -11.053,6.6212 -15.251,6.7357 -4.8279,0.13204 -10.848,-2.7598 -15.129,-5.8903 l -1.0779,-18.325 z" />
      <path
         style="fill:#ffe680"
         inkscape:connector-curvature="0"
         id="path3800"
         d="m 362.05,148.37 h 128.63 c -3.7584,50.902 -0.0493,110.6 -65.733,132.32 -54.583,-17.251 -64.306,-78.273 -62.9,-132.32 z" />
      <path
         style="fill:#ffe680;fill-rule:evenodd"
         inkscape:connector-curvature="0"
         id="path3802"
         d="m 330.71,377.23 6.3189,6.7247 -71.811,14.616 -14.78,-3.6679 -30.854,-119.6 -9.0728,-19.988 5.2165,-9.1848 13.945,-14.332 8.5906,30.679 38.426,98.149 37.082,-16.753 z" />
      <path
         style="fill:#ffe680;fill-rule:evenodd"
         inkscape:connector-curvature="0"
         id="path3804"
         d="m 534.69,327.3 48.023,105.4 3.7862,17.382 -31.334,57.863 -45.446,65.339 -12.842,-12.897 30.585,-54.184 22.793,-59.55 -36.859,-75.515 z" />
      <path
         style="fill:#00aad4"
         inkscape:connector-curvature="0"
         id="path3806"
         d="m 434.94,333.05 c 15.43,-7.4332 16.868,-19.585 17.952,-31.157 6.7634,6.3633 71.725,15.628 82.76,18.302 5.4924,4.9171 22.921,41.136 26.773,58.211 -8.3344,23.054 -19.643,27.326 -32.758,35.609 l -17.495,-40.006 -1.1934,174.71 c -47.492,-16.405 -94.785,34.221 -145.79,0.7027 l -12.041,-165.52 -23.003,6.8336 c -7.133,-5.833 -32.764,-39.434 -28.404,-46.103 9.7225,-10.425 40.457,-22.375 46.507,-27.395 6.3089,-1.8652 24.227,-4.1363 35.824,-6.3424 13.728,-1.9856 22.516,-3.5499 25.068,-9.7267 3.6422,17.404 9.5274,25.4 25.804,31.88 z" />
      <path
         style="fill:#333333;fill-opacity:0.43017004"
         inkscape:connector-curvature="0"
         id="path3808"
         d="m 488.77,145.25 c 2.1575,9.9922 -3.9518,9.9672 -8.8048,15.101 -7.0153,17.992 -27.748,15.901 -47.326,23.148 21.743,-12.743 27.942,-16.848 36.38,-30.391 -8.8315,27.418 -86.159,19.709 -115.44,42.194 -2.068,-70.33 60.824,-67.246 135.19,-50.052 z" />
      <path
         style="fill:#333333"
         inkscape:connector-curvature="0"
         id="path3810"
         d="m 379.62,199.75 c 13.1,-14.94 25.473,-8.6528 33.239,-0.56829 v 4.884 c -9.1578,-8.0456 -19.156,-12.508 -33.265,0.63817 z" />
      <path
         style="fill:none;stroke:#000000;stroke-width:1.96730006px"
         inkscape:connector-curvature="0"
         id="path3812"
         d="m 409.29,250.99 c 9.4386,6.5573 24.873,6.7301 33.317,-1.6536" />
      <path
         style="fill:#ffe680;fill-rule:evenodd"
         inkscape:connector-curvature="0"
         id="path3814"
         d="m 481.63,208.54 c 1.4459,-5.218 7.1495,-5.4315 11.144,-3.3095 2.5692,6.5448 2.2936,12.415 0.46009,17.916 -2.3838,7.1516 -7.5874,17 -13.158,17.346 -2.4174,-0.75464 -3.8643,1.0532 -5.8756,-3.5528 3.8574,-7.3476 6.041,-19.49 7.4291,-28.399 z" />
      <path
         style="fill:#ffe680;fill-rule:evenodd"
         inkscape:connector-curvature="0"
         id="path3816"
         d="m 368.86,208.54 c -1.4457,-5.218 -7.1495,-5.4315 -11.144,-3.3095 -2.5689,6.5448 -2.2935,12.415 -0.45995,17.916 2.3836,7.1516 7.5874,17 13.158,17.346 2.4174,-0.75464 3.8642,1.0532 5.8756,-3.5528 -3.8573,-7.3476 -6.0409,-19.49 -7.4293,-28.399 z" />
      <path
         style="fill:#333333"
         inkscape:connector-curvature="0"
         id="path3818"
         d="m 469.08,199.75 c -13.1,-14.94 -25.473,-8.6528 -33.239,-0.56829 v 4.884 c 9.1578,-8.0456 19.156,-12.508 33.265,0.63817 z" />
      <path
         style="fill:#a05a2c;fill-rule:evenodd"
         inkscape:connector-curvature="0"
         id="path3820"
         d="m 239.94,249.35 2.5027,-14.683 17.551,-16.759 c -2.1944,-5.2274 -0.64447,-12.918 -9.8468,-14.447 l -12.477,6.5338 -13.939,-39.104 c -5.5936,-2.7845 -16.35,-3.9159 -18.887,0.11738 l 13.459,35.615 -20.911,-39.333 c -8.62,-6.9469 -16.584,-4.18 -18.747,6.8884 l 22.136,37.251 -24.326,-33.819 c -5.9218,0.32392 -12.342,8.1015 -11.49,13.558 l 25.194,32.659 -22.405,-25.238 c -4.9898,2.1524 -6.1503,7.826 -5.828,12.572 l 19.95,29.042 23.223,22.823 z" />
      <path
         style="fill:#784421;fill-rule:evenodd"
         inkscape:connector-curvature="0"
         id="path3822"
         d="m 260.04,217.95 -17.619,16.712 -2.3319,13.732 -4.1456,1.9432 5.182,-18.007 18.266,-15.416 z" />
      <path
         style="fill:#1a1a1a;fill-rule:evenodd"
         inkscape:connector-curvature="0"
         id="path3824"
         d="m 213.16,277.11 30.028,-11.643 -2.2468,-19.254 -37.073,14.854 z" />
      <path
         style="fill:#a05a2c;fill-rule:evenodd"
         inkscape:connector-curvature="0"
         id="path3826"
         d="m 502.72,531.98 -14.64,2.7433 -21.804,-10.652 c -4.1423,3.8707 -11.894,5.0834 -10.137,14.245 l 10.455,9.438 -31.845,26.632 c -0.67244,6.212 1.9956,16.693 6.6584,17.675 l 28.739,-24.972 -29.643,33.251 c -3.5274,10.494 1.8292,17.005 12.961,15.196 l 27.265,-33.678 -23.287,34.543 c 2.357,5.4421 11.878,8.768 16.7,6.0768 l 21.898,-34.955 -15.904,29.766 c 3.7489,3.934 9.473,3.0554 13.813,1.1076 l 20.323,-28.782 13.356,-29.695 z" />
      <path
         style="fill:#1a1a1a;fill-rule:evenodd"
         inkscape:connector-curvature="0"
         id="path3828"
         d="m 538.04,547.47 -21.332,-24.128 -17.281,8.783 26.786,29.624 z" />
      <path
         style="fill:#333333"
         inkscape:connector-curvature="0"
         id="path3830"
         d="m 488.74,140.68 c 2.2871,10.592 -4.1893,10.566 -9.3338,16.008 -7.4368,19.073 -29.415,16.856 -50.169,24.539 23.049,-13.509 29.621,-17.86 38.565,-32.217 -9.3621,29.066 -91.335,20.893 -122.38,44.729 -2.1922,-74.556 95.569,-81.132 143.31,-53.059 z" />
      <path
         style="fill:#333333"
         inkscape:connector-curvature="0"
         id="path3832"
         d="m 473.56,161.55 c -0.3456,20.386 2.0542,41.594 7.1551,61.534 l 25.786,-52.844 -21.016,-33.971 z" />
      <path
         style="fill:#333333"
         inkscape:connector-curvature="0"
         id="path3834"
         d="m 372.23,239.4 -13.413,-26.004 -1.9895,-3.8571 -9.3991,-15.475 26.878,-26.84 c -4.0751,26.757 -3.5004,50.314 -2.0762,72.176 z" />
      <path
         style="fill:#1a1a1a;fill-rule:evenodd"
         inkscape:connector-curvature="0"
         id="path3836"
         d="m 482.6,570.17 -6.4774,-16.815 16.323,-5.441 17.1,0.25909 -0.7773,16.841 -8.032,15.287 z" />
      <path
         style="fill:#a05a2c;fill-rule:evenodd"
         inkscape:connector-curvature="0"
         id="path3838"
         d="m 486.11,567.55 -5.5086,-12.522 13.189,-4.3964 13.817,0.20935 -1.0861,13.058 -6.5815,11.619 z" />
    </g>
    <g
       style="fill:#673ab7"
       id="g3848"
       transform="matrix(0.14832,0,0,0.14832,-868.91,375.18)">
      <path
         inkscape:connector-curvature="0"
         id="path3842"
         d="m 318,187 c 0,-1.657 -1.343,-3 -3,-3 -1.657,0 -3,1.343 -3,3 0,12.15 -9.85,22 -22,22 -12.15,0 -22,-9.85 -22,-22 0,-1.657 -1.343,-3 -3,-3 -1.657,0 -3,1.343 -3,3 0,14.45 10.947,26.341 25,27.838 v 5.16 h -8 c -1.657,0 -3,1.343 -3,3 0,1.657 1.343,3 3,3 h 22 c 1.657,0 3,-1.343 3,-3 0,-1.657 -1.343,-3 -3,-3 h -8 v -5.162 c 14.05,-1.5 25,-13.39 25,-27.84 z" />
      <path
         inkscape:connector-curvature="0"
         id="path3844"
         d="m 290,154 c -9.941,0 -18,8.059 -18,18 v 14 c 0,9.941 8.059,18 18,18 9.941,0 18,-8.059 18,-18 v -14 c 0,-9.94 -8.06,-18 -18,-18 z" />
      <path
         inkscape:connector-curvature="0"
         id="path3846"
         d="m 272,174 h 12 v -4 h -12 z m 0,7 h 12 v -4 h -12 z m 0,7 h 12 v -4 h -12 z m 24,-18 v 4 h 12 v -4 z m 0,11 h 12 v -4 h -12 z m 0,7 h 12 v -4 h -12 z" />
    </g>
    <rect
       style="fill:#ffca28"
       id="rect3850"
       height="6.8216"
       width="38.062"
       y="421.17999"
       x="-924.07001" />
    <rect
       style="fill:#d1c4e9"
       id="rect3852"
       height="3.3727"
       width="11.843"
       y="530.98999"
       x="-766.90997" />
    <path
       style="fill:#80deea;fill-rule:evenodd"
       inkscape:connector-curvature="0"
       id="path3854"
       d="m -873.98,445.51 -19.951,15.152 -19.445,-12.123 c 0,0 -9.7733,6.102 -17.736,11.012 v 34.131 c 0,2.2336 1.7976,4.0312 4.0312,4.0312 h 59.258 c 2.2336,0 4.0312,-1.7976 4.0312,-4.0312 v -39.586 l -10.188,-8.5859 z" />
    <path
       style="fill:#b3b3b3"
       inkscape:connector-curvature="0"
       id="path3856"
       d="m -584.09,397.2 c -0.0285,1.7377 -11.169,7.9284 -12.659,7.0348 -1.49,-0.8936 -1.2817,-13.637 0.23739,-14.481 1.5191,-0.84418 12.451,5.7083 12.422,7.446 z"
       transform="matrix(0.99961,-0.02807,0.02807,0.99961,-252.13,109.78)" />
    <rect
       style="fill:#b3b3b3"
       id="rect3858"
       height="1.7678"
       width="62.629002"
       y="522.03003"
       x="-818.81" />
    <circle
       style="fill:#29b6f6"
       id="circle3860"
       r="3.052"
       cy="522.75"
       cx="-817.52002" />
    <g
       id="g3868"
       transform="matrix(0.90502,0,0,0.90502,-580.23,77.323)">
      <circle
         style="fill:#ff8a65"
         id="circle3862"
         r="16.92"
         cy="492.04001"
         cx="-309.82001" />
      <path
         style="fill:#f4511e"
         inkscape:connector-curvature="0"
         id="path3864"
         d="m -315.88,482.85 v 18.395 l 7.6348,7.6348 a 16.92,16.92 0 0 0 15.268,-15.246 l -10.783,-10.783 h -12.119 z" />
      <path
         style="fill:#ffffff"
         inkscape:connector-curvature="0"
         id="path3866"
         d="m -303.76,501.24 h -12.119 v -18.394 h 12.119 v 2.1742 h -9.6728 v 5.0402 h 9.6728 v 2.1742 h -9.6728 v 6.8315 h 9.6728 v 2.1742 z" />
    </g>
  </g>
  <path
     inkscape:connector-curvature="0"
     id="path3872"
     style="color:#000000;text-indent:0;text-decoration:none;text-decoration-line:none;text-decoration-style:solid;text-decoration-color:#000000;text-transform:none;white-space:normal;isolation:auto;mix-blend-mode:normal;solid-color:#000000;fill:#ffffff;stroke-width:2.95675278;color-rendering:auto;image-rendering:auto;shape-rendering:auto"
     d="m 508.53658,69.729879 c -0.66673,0.115461 -1.34798,0.358911 -2.01073,0.763305 l -3.37952,1.773166 c -0.0343,0.01804 -0.064,0.03728 -0.0966,0.05853 -0.7676,0.503638 -1.46639,1.21721 -1.47111,2.219414 -0.006,0.982901 0.64319,1.660853 1.23822,2.148976 1.21042,0.992863 3.05469,1.874816 5.28233,3.105997 0.0183,0.01002 0.0376,0.02105 0.0568,0.03007 6.97573,3.515443 13.72462,7.055822 21.05541,10.568539 3.00672,1.556857 4.61841,2.10702 8.7811,1.661614 a 0.73447643,0.7592439 0 0 0 0.0122,-0.006 c 2.33528,-0.280474 3.57177,-0.410267 4.54396,-1.109688 0.53114,-0.382063 0.84236,-0.934992 0.994,-1.467876 0.13606,-0.478642 0.17691,-0.918997 0.24427,-1.397398 l -0.0184,0.07036 c 0.31328,-1.302302 -0.1577,-2.595364 -0.89176,-3.669651 -0.7349,-1.07575 -1.79377,-2.025797 -3.0387,-2.665643 a 0.73447643,0.7592439 0 0 0 -0.0233,-0.006 l -0.0454,-0.02406 a 0.73447643,0.7592439 0 0 0 -0.006,0 L 517.29338,70.73938 c -0.5784,-0.324493 -1.39791,-0.05011 -1.68126,0.563654 -0.0927,0.201114 -0.035,0.426303 -0.0122,0.645859 l -1.8119,-0.927696 -0.0122,-0.006 c -0.91422,-0.484414 -1.92148,-0.919136 -3.01601,-1.162526 a 0.73447643,0.7592439 0 0 0 -0.28385,-0.117466 c -0.61966,-0.108244 -1.27581,-0.121474 -1.94253,-0.006 z m 0.39759,2.460139 c 0.37052,-0.06374 0.73329,-0.0459 1.13029,0.02405 0.78015,0.136509 1.66913,0.547577 2.61847,1.050995 a 0.73447643,0.7592439 0 0 0 0.0184,0.006 0.73447643,0.7592439 0 0 0 0.051,0.02406 l 16.48879,8.425456 0.0184,0.01203 a 0.73447643,0.7592439 0 0 0 0.074,0.04691 c 1.46614,0.8142 2.0404,1.282238 2.13565,1.409164 0.0693,0.09221 0.14912,0.460962 0.28964,1.074448 -0.008,0.0427 -0.03,0.14152 -0.0233,0.129292 0.0143,-0.02405 0.055,-0.04069 -0.0568,0.01804 a 0.73447643,0.7592439 0 0 0 0,0.006 c -0.1475,0.07657 -0.80703,0.240183 -1.63013,0.440335 -0.002,6.62e-4 -0.002,-6.61e-4 -0.006,0 -0.93944,0.180408 -1.20631,0.202017 -1.76079,0.04109 -0.53207,-0.155351 -1.43545,-0.608294 -3.0387,-1.397377 a 0.73447643,0.7592439 0 0 0 0,-0.006 l -15.05188,-8.09086 0.0342,0.02405 c -0.56549,-0.346884 -1.39188,-0.108244 -1.69832,0.493194 -0.2469,0.484756 -0.0486,1.058973 0.32377,1.438531 -2.03687,-1.117285 -3.84688,-2.06216 -4.53261,-2.62455 -0.076,-0.06214 -0.0818,-0.0862 -0.13053,-0.134905 0.051,-0.05112 0.0562,-0.07176 0.15913,-0.140918 0.002,-0.002 10e-4,-0.002 0.006,-0.006 l 3.26029,-1.714474 0.074,-0.03508 0.0122,-0.006 a 0.73447643,0.7592439 0 0 0 0.068,-0.03508 c 0.4253,-0.259426 0.79955,-0.405857 1.17009,-0.469701 z m 23.95801,9.000836 5.87878,2.888767 c 0.85918,0.445808 1.6388,1.155431 2.11297,1.849499 0.47281,0.692144 0.58726,1.356004 0.52822,1.608795 -1.9e-4,8.02e-4 1.9e-4,0.006 0,0.006 -0.008,0.02706 -0.0183,0.05412 -0.0233,0.08198 a 0.73447643,0.7592439 0 0 0 -0.006,0.03508 c -0.0788,0.551867 -0.13462,0.963597 -0.17628,1.109707 -0.059,0.20771 0.0462,0.04149 -0.0513,0.111452 -0.0143,0.01002 -0.32561,0.158158 -0.89179,0.281677 -0.56616,0.123479 -1.39559,0.256419 -2.53323,0.393388 l 0.0122,-0.006 c -3.97336,0.4251 -4.50178,0.129492 -7.48056,-1.415017 l -0.006,-0.006 c -0.006,-0.002 -0.0143,-0.002 -0.0233,-0.006 a 0.73447643,0.7592439 0 0 0 -0.0122,-0.006 c -0.42692,-0.204422 -0.80927,-0.41165 -1.23256,-0.616513 0.47464,-0.002 0.96832,-0.07156 1.51085,-0.176198 a 0.73447643,0.7592439 0 0 0 0.0568,-0.01804 c 0.03,-0.006 0.0555,-0.01403 0.0852,-0.02405 a 0.73447643,0.7592439 0 0 0 0.0122,-0.006 c 0.73875,-0.173792 1.4264,-0.270852 2.11292,-0.628239 0.7983,-0.415299 1.37276,-1.281476 1.45407,-2.33686 a 0.73447643,0.7592439 0 0 0 0,-0.02405 c 0.006,-0.134705 -0.006,-0.269349 -0.0398,-0.399243 -0.17976,-0.762362 -0.23033,-1.490427 -0.79521,-2.242907 -0.12746,-0.169784 -0.3354,-0.307415 -0.49414,-0.457955 z" />
</svg>
