<?xml version="1.0" encoding="UTF-8" standalone="no"?>
<!-- Created with Inkscape (http://www.inkscape.org/) -->

<svg
   xmlns:dc="http://purl.org/dc/elements/1.1/"
   xmlns:cc="http://creativecommons.org/ns#"
   xmlns:rdf="http://www.w3.org/1999/02/22-rdf-syntax-ns#"
   xmlns:svg="http://www.w3.org/2000/svg"
   xmlns="http://www.w3.org/2000/svg"
   xmlns:xlink="http://www.w3.org/1999/xlink"
   xmlns:sodipodi="http://sodipodi.sourceforge.net/DTD/sodipodi-0.dtd"
   xmlns:inkscape="http://www.inkscape.org/namespaces/inkscape"
   width="192mm"
   height="125mm"
   viewBox="0 0 192 125"
   version="1.1"
   id="svg6514"
   inkscape:version="0.92.5 (0.92.5+69)"
   sodipodi:docname="youtube.svg">
  <defs
     id="defs6508">
    <clipPath
       id="fu">
      <use
         y="0"
         x="0"
         style="overflow:visible"
         width="744.09448"
         height="1052.3622"
         overflow="visible"
         xlink:href="#fj"
         id="use27" />
    </clipPath>
    <path
       inkscape:connector-curvature="0"
       enable-background="new    "
       d="m 766.81,398.13 -33.988,-22.36 c -1.563,-1.029 -4.101,-1.029 -5.664,0 l -33.987,22.36 c -1.564,1.029 -1.564,2.697 0,3.727 l 33.987,22.36 c 1.563,1.029 4.101,1.029 5.664,0 l 33.988,-22.36 c 1.56,-1.03 1.56,-2.7 0,-3.73 z"
       id="fj" />
  </defs>
  <sodipodi:namedview
     id="base"
     pagecolor="#ffffff"
     bordercolor="#666666"
     borderopacity="1.0"
     inkscape:pageopacity="0.0"
     inkscape:pageshadow="2"
     inkscape:zoom="1.4"
     inkscape:cx="302.06439"
     inkscape:cy="217.14286"
     inkscape:document-units="mm"
     inkscape:current-layer="layer1"
     showgrid="false"
     inkscape:window-width="1853"
     inkscape:window-height="1025"
     inkscape:window-x="1987"
     inkscape:window-y="27"
     inkscape:window-maximized="1" />
  <metadata
     id="metadata6511">
    <rdf:RDF>
      <cc:Work
         rdf:about="">
        <dc:format>image/svg+xml</dc:format>
        <dc:type
           rdf:resource="http://purl.org/dc/dcmitype/StillImage" />
        <dc:title></dc:title>
      </cc:Work>
    </rdf:RDF>
  </metadata>
  <g
     inkscape:label="Layer 1"
     inkscape:groupmode="layer"
     id="layer1"
     transform="translate(0,-172)">
    <rect
       style="fill:#b2dfdb;fill-rule:evenodd;stroke-width:0.68542695"
       id="rect584"
       height="115.76015"
       width="185.08112"
       y="175.73212"
       x="3.5908456" />
    <rect
       style="fill:#ffffff;fill-rule:evenodd;stroke-width:0.68542695"
       id="rect586"
       height="113.9626"
       width="142.52759"
       y="177.52264"
       x="-167.39516"
       transform="scale(-1,1)" />
    <rect
       style="fill:#263238;fill-rule:evenodd;stroke-width:0.68542695"
       id="rect588"
       height="11.294443"
       width="142.52759"
       y="177.52264"
       x="-167.39516"
       transform="scale(-1,1)" />
    <rect
       style="fill:#eceff1;fill-rule:evenodd;stroke-width:0.68542695"
       id="rect590"
       height="24.163158"
       width="142.52759"
       y="267.33054"
       x="-167.39516"
       transform="scale(-1,1)" />
    <path
       style="fill:#4d4d4d;fill-rule:evenodd;stroke-width:0.68542695"
       inkscape:connector-curvature="0"
       id="path592"
       d="M 0.09821242,172.31257 V 296.81478 H 192.29167 V 172.31257 Z m 4.53034688,6.43429 H 186.9263 V 289.86564 H 4.6285593 Z" />
    <rect
       style="fill:#263238;fill-rule:evenodd;stroke-width:0.68542695"
       id="rect1236"
       ry="1.5046855"
       height="63.482712"
       width="97.665718"
       y="195.37894"
       x="47.301861" />
    <g
       id="g1244"
       transform="matrix(0.66908077,0,0,0.70217249,-340.7484,-75.969524)">
      <circle
         style="fill:#ffffff;fill-rule:evenodd"
         id="circle1238"
         r="19.820999"
         cy="428.10999"
         cx="652.96002" />
      <circle
         style="fill:#263238;fill-rule:evenodd"
         id="circle1240"
         r="17.224001"
         cy="428.10999"
         cx="652.96002" />
      <g
         id="use1242"
         style="fill:#ffffff"
         transform="matrix(0.06012127,0.03511021,-0.03511021,0.06012127,620.2756,444.24356)">
        <path
           style="stroke-width:2"
           inkscape:connector-curvature="0"
           id="path7420"
           d="m 35,35 h 80 l -40,70 z" />
      </g>
    </g>
    <rect
       style="fill:#455a64;fill-rule:evenodd;stroke-width:0.68542695"
       id="rect1246"
       ry="1.3845437"
       height="8.1571379"
       width="97.665718"
       y="250.70312"
       x="47.301861" />
    <g
       id="use1248"
       style="fill:#263238"
       transform="matrix(0.01341781,0.00822349,-0.00783594,0.01408143,46.61046,258.68452)">
      <path
         style="stroke-width:2"
         inkscape:connector-curvature="0"
         id="path7424"
         d="m 35,35 h 80 l -40,70 z" />
    </g>
    <rect
       style="fill:#263238;fill-rule:evenodd;stroke-width:0.68542695"
       id="rect1250"
       ry="1.1526161"
       height="2.3052323"
       width="42.242413"
       y="253.80669"
       x="59.452377" />
    <rect
       style="fill:#546e7a;fill-rule:evenodd;stroke-width:0.68542695"
       id="rect1252"
       ry="1.1526161"
       height="2.3052323"
       width="26.866268"
       y="253.80669"
       x="59.452377" />
    <rect
       style="fill:#90a4ae;fill-rule:evenodd;stroke-width:0.68542695"
       id="rect1254"
       ry="0.24785285"
       height="3.8594208"
       width="1.098296"
       y="253.01324"
       x="134.81761" />
    <rect
       style="fill:#90a4ae;fill-rule:evenodd;stroke-width:0.68542695"
       id="rect1256"
       ry="0.19860949"
       height="3.0925786"
       width="1.098296"
       y="253.77859"
       x="133.32559" />
    <rect
       style="fill:#90a4ae;fill-rule:evenodd;stroke-width:0.68542695"
       id="rect1258"
       ry="0.14935912"
       height="2.3257358"
       width="1.098296"
       y="254.54402"
       x="131.7666" />
    <rect
       style="fill:#90a4ae;fill-rule:evenodd;stroke-width:0.68542695"
       id="rect1260"
       ry="0.11750857"
       height="1.5815032"
       width="1.098296"
       y="255.28827"
       x="130.30803" />
    <rect
       style="fill:#90a4ae;fill-rule:evenodd;stroke-width:0.68542695"
       id="rect1262"
       ry="0.14219695"
       height="0.97250891"
       width="1.098296"
       y="255.89919"
       x="128.84273" />
    <g
       style="fill:#90a4ae"
       id="g1266"
       transform="matrix(0.05872187,0,0,0.06162617,130.29467,216.12111)">
      <path
         style="fill:#90a4ae"
         inkscape:connector-curvature="0"
         id="path1264"
         d="m 213.99,634.88 v -9.754 l -9.23,-2.1 c -0.556,-1.972 -1.332,-3.849 -2.315,-5.599 l 5.04,-8.009 -6.898,-6.897 -8.007,5.039 c -1.75,-0.985 -3.627,-1.761 -5.6,-2.316 l -2.099,-9.229 h -9.754 l -2.1,9.229 c -1.972,0.556 -3.849,1.331 -5.6,2.316 l -8.009,-5.039 -6.897,6.897 5.04,8.009 c -0.984,1.75 -1.76,3.627 -2.316,5.599 l -9.23,2.1 v 9.754 l 9.23,2.1 c 0.556,1.973 1.332,3.849 2.316,5.599 l -5.04,8.009 6.897,6.898 8.009,-5.04 c 1.75,0.985 3.627,1.761 5.6,2.316 l 2.1,9.229 h 9.754 l 2.099,-9.229 c 1.972,-0.556 3.849,-1.331 5.6,-2.316 l 8.007,5.04 6.898,-6.898 -5.04,-8.009 c 0.984,-1.75 1.759,-3.626 2.315,-5.599 z" />
    </g>
    <g
       style="fill:#455a64"
       id="g1270"
       transform="matrix(0.05872187,0,0,0.06162617,130.29467,216.12111)">
      <circle
         style="fill:#455a64"
         id="circle1268"
         r="17"
         cy="630"
         cx="180" />
    </g>
    <rect
       style="fill:#ff7043;fill-rule:evenodd;stroke-width:0.68542695"
       id="rect1272"
       ry="0.36112732"
       height="15.236442"
       width="23.439909"
       y="271.69101"
       x="28.601015" />
    <ellipse
       style="fill:#ffffff;fill-rule:evenodd;stroke-width:0.68542695"
       id="circle1274"
       cy="279.3096"
       cx="40.323334"
       rx="3.1830177"
       ry="3.340445" />
    <ellipse
       style="fill:#ff7043;fill-rule:evenodd;stroke-width:0.68542695"
       id="circle1276"
       cy="279.3096"
       cx="40.323334"
       rx="2.765913"
       ry="2.9027109" />
    <g
       id="use1278"
       style="fill:#ffffff"
       transform="matrix(0.00965457,0.00591718,-0.00563832,0.01013207,35.07228,282.0273)">
      <path
         style="stroke-width:2"
         inkscape:connector-curvature="0"
         id="path7428"
         d="m 35,35 h 80 l -40,70 z" />
    </g>
    <rect
       style="fill:#cddc39;fill-rule:evenodd;stroke-width:0.68542695"
       id="rect1280"
       ry="0.36112732"
       height="15.236442"
       width="23.439909"
       y="271.69101"
       x="56.026653" />
    <ellipse
       style="fill:#ffffff;fill-rule:evenodd;stroke-width:0.68542695"
       id="circle1282"
       cy="279.3096"
       cx="67.742241"
       rx="3.1830177"
       ry="3.340445" />
    <ellipse
       style="fill:#cddc39;fill-rule:evenodd;stroke-width:0.68542695"
       id="circle1284"
       cy="279.3096"
       cx="67.742241"
       rx="2.765913"
       ry="2.9027109" />
    <g
       id="use1286"
       style="fill:#ffffff"
       transform="matrix(0.00965457,0.00591718,-0.00563832,0.01013207,62.491223,282.0273)">
      <path
         style="stroke-width:2"
         inkscape:connector-curvature="0"
         id="path7432"
         d="m 35,35 h 80 l -40,70 z" />
    </g>
    <rect
       style="fill:#29b6f6;fill-rule:evenodd;stroke-width:0.68542695"
       id="rect1288"
       ry="0.36112732"
       height="15.236442"
       width="23.439909"
       y="271.69101"
       x="83.458954" />
    <ellipse
       style="fill:#ffffff;fill-rule:evenodd;stroke-width:0.68542695"
       id="circle1290"
       cy="279.3096"
       cx="95.181267"
       rx="3.1830177"
       ry="3.340445" />
    <ellipse
       style="fill:#29b6f6;fill-rule:evenodd;stroke-width:0.68542695"
       id="circle1292"
       cy="279.3096"
       cx="95.181267"
       rx="2.765913"
       ry="2.9027109" />
    <g
       id="use1294"
       style="fill:#ffffff"
       transform="matrix(0.00965457,0.00591718,-0.00563832,0.01013207,89.930223,282.0273)">
      <path
         style="stroke-width:2"
         inkscape:connector-curvature="0"
         id="path7436"
         d="m 35,35 h 80 l -40,70 z" />
    </g>
    <rect
       style="fill:#ffb300;fill-rule:evenodd;stroke-width:0.68542695"
       id="rect1296"
       ry="0.36112732"
       height="15.236442"
       width="23.439909"
       y="271.69101"
       x="111.71426" />
    <ellipse
       style="fill:#ffffff;fill-rule:evenodd;stroke-width:0.68542695"
       id="circle1298"
       cy="279.3096"
       cx="123.42989"
       rx="3.1830177"
       ry="3.340445" />
    <ellipse
       style="fill:#ffb300;fill-rule:evenodd;stroke-width:0.68542695"
       id="circle1300"
       cy="279.3096"
       cx="123.42989"
       rx="2.765913"
       ry="2.9027109" />
    <g
       id="use1302"
       style="fill:#ffffff"
       transform="matrix(0.00965457,0.00591718,-0.00563832,0.01013207,118.18555,282.0273)">
      <path
         style="stroke-width:2"
         inkscape:connector-curvature="0"
         id="path7440"
         d="m 35,35 h 80 l -40,70 z" />
    </g>
    <rect
       style="fill:#1de9b6;fill-rule:evenodd;stroke-width:0.68542695"
       id="rect1304"
       ry="0.36112732"
       height="15.236442"
       width="23.439909"
       y="271.69101"
       x="139.24028" />
    <ellipse
       style="fill:#ffffff;fill-rule:evenodd;stroke-width:0.68542695"
       id="circle1306"
       cy="279.3096"
       cx="150.95586"
       rx="3.1830177"
       ry="3.340445" />
    <ellipse
       style="fill:#1de9b6;fill-rule:evenodd;stroke-width:0.68542695"
       id="circle1308"
       cy="279.3096"
       cx="150.95586"
       rx="2.765913"
       ry="2.9027109" />
    <g
       id="use1310"
       style="fill:#ffffff"
       transform="matrix(0.00965457,0.00591718,-0.00563832,0.01013207,145.71151,282.0273)">
      <path
         style="stroke-width:2"
         inkscape:connector-curvature="0"
         id="path7444"
         d="m 35,35 h 80 l -40,70 z" />
    </g>
  </g>
</svg>
